<svg width="60" height="56" viewBox="0 0 60 56" fill="none" xmlns="http://www.w3.org/2000/svg">
<ellipse cx="29.5" cy="37.6709" rx="21.5" ry="7" fill="#D5EEFF"/>
<path d="M29.8839 8.78701C29.3957 8.29886 28.6043 8.29886 28.1161 8.78701L20.1612 16.742C19.673 17.2301 19.673 18.0216 20.1612 18.5097C20.6493 18.9979 21.4408 18.9979 21.9289 18.5097L29 11.4387L36.0711 18.5097C36.5592 18.9979 37.3507 18.9979 37.8388 18.5097C38.327 18.0216 38.327 17.2301 37.8388 16.742L29.8839 8.78701ZM30.25 41.6709L30.25 9.6709H27.75L27.75 41.6709H30.25Z" fill="#D5EEFF"/>
<path d="M29.7071 8.96379C29.3166 8.57327 28.6834 8.57327 28.2929 8.96379L21.9289 15.3278C21.5384 15.7183 21.5384 16.3514 21.9289 16.742C22.3195 17.1325 22.9526 17.1325 23.3431 16.742L29 11.0851L34.6569 16.742C35.0474 17.1325 35.6805 17.1325 36.0711 16.742C36.4616 16.3514 36.4616 15.7183 36.0711 15.3278L29.7071 8.96379ZM30 41.6709L30 9.6709H28L28 41.6709H30Z" fill="#0593F5"/>
</svg>
