<svg width="73" height="67" viewBox="0 0 73 67" fill="none" xmlns="http://www.w3.org/2000/svg">
<ellipse cx="37.5" cy="51.5" rx="34.5" ry="11.5" fill="#D5EEFF"/>
<path d="M37.8839 7.11612C37.3957 6.62796 36.6043 6.62796 36.1161 7.11612L28.1612 15.0711C27.673 15.5592 27.673 16.3507 28.1612 16.8388C28.6493 17.327 29.4408 17.327 29.9289 16.8388L37 9.76777L44.0711 16.8388C44.5592 17.327 45.3507 17.327 45.8388 16.8388C46.327 16.3507 46.327 15.5592 45.8388 15.0711L37.8839 7.11612ZM38.25 58V8H35.75V58H38.25Z" fill="#D5EEFF"/>
<path d="M37.7071 7.29289C37.3166 6.90237 36.6834 6.90237 36.2929 7.29289L29.9289 13.6569C29.5384 14.0474 29.5384 14.6805 29.9289 15.0711C30.3195 15.4616 30.9526 15.4616 31.3431 15.0711L37 9.41422L42.6569 15.0711C43.0474 15.4616 43.6805 15.4616 44.0711 15.0711C44.4616 14.6805 44.4616 14.0474 44.0711 13.6569L37.7071 7.29289ZM38 58V8H36V58H38Z" fill="#0593F5"/>
</svg>
