<svg width="39" height="40" viewBox="0 0 39 40" fill="none" xmlns="http://www.w3.org/2000/svg">
<g clip-path="url(#clip0_445_4868)">
<rect x="5.07031" y="18.084" width="28.86" height="10.92" fill="white"/>
<rect x="15.9902" y="23.5442" width="7.02" height="14.04" fill="white"/>
<rect x="8.18945" y="25.292" width="7.02" height="14.04" transform="rotate(-53.5576 8.18945 25.292)" fill="white"/>
<rect x="17.5762" y="32.9902" width="7.02" height="14.04" transform="rotate(-116.618 17.5762 32.9902)" fill="white"/>
<path d="M15.2428 33.3973L15.2025 33.1091L14.932 33.0017C13.7246 32.5226 12.6827 31.8686 11.6652 31.0859L11.438 30.9111L11.1724 31.0189L6.19171 33.0392C5.95723 33.1206 5.69358 33.0233 5.58606 32.8262L5.5862 32.8261L5.58 32.8154L1.57146 25.8806L1.57149 25.8806L1.56845 25.8755C1.50786 25.7735 1.4865 25.6529 1.50836 25.5362C1.53023 25.4196 1.59383 25.315 1.68726 25.2418L1.68825 25.2411L5.91725 21.914L6.12591 21.7498L6.1068 21.485L5.96906 19.5763L6.10687 17.6075L6.12556 17.3405L5.91377 17.1769L1.68726 13.9119C1.68692 13.9116 1.68658 13.9114 1.68623 13.9111C1.59336 13.838 1.53015 13.7337 1.50836 13.6175C1.4865 13.5009 1.50786 13.3803 1.56846 13.2783L1.56849 13.2783L1.57146 13.2731L5.58 6.33836L5.58013 6.33844L5.58606 6.32756C5.70338 6.11248 5.97282 6.02505 6.1804 6.10997L6.18338 6.11118L11.174 8.11545L11.4352 8.22034L11.6603 8.05147C12.681 7.28594 13.7241 6.63135 14.932 6.15203L15.2025 6.04468L15.2428 5.75642L15.9833 0.452804C16.0253 0.216507 16.2355 0.0341797 16.4913 0.0341797H24.5083C24.7641 0.0341797 24.9743 0.216484 25.0163 0.45276L25.7569 5.75642L25.7971 6.04468L26.0676 6.15203C27.2755 6.63135 28.3186 7.28594 29.3393 8.05147L29.5644 8.22034L29.8256 8.11545L34.8162 6.11119L34.8192 6.10997C35.0268 6.02505 35.2962 6.11247 35.4136 6.32756L35.4134 6.32764L35.4196 6.33836L39.4281 13.2731L39.4306 13.2773C39.5586 13.4939 39.5031 13.76 39.3125 13.9118C39.3119 13.9123 39.3113 13.9127 39.3107 13.9132L35.0858 17.1769L34.8741 17.3405L34.8927 17.6075L35.0306 19.5769L34.8927 21.5462L34.8741 21.8132L35.0858 21.9768L39.3107 25.2405C39.3113 25.241 39.3119 25.2415 39.3125 25.2419C39.5031 25.3938 39.5586 25.6598 39.4306 25.8764L39.4282 25.8806L35.4196 32.8154L35.4195 32.8153L35.4136 32.8262C35.2962 33.0412 35.0268 33.1287 34.8192 33.0437L34.8162 33.0425L29.8256 31.0383L29.5644 30.9334L29.3393 31.1023C28.3186 31.8678 27.2755 32.5224 26.0676 33.0017L25.7971 33.1091L25.7569 33.3973L25.0163 38.701C24.9743 38.9372 24.7641 39.1195 24.5083 39.1195H16.4913C16.2355 39.1195 16.0253 38.9372 15.9833 38.7009L15.2428 33.3973ZM18.9966 3.04272H18.5625L18.5016 3.47254L17.8085 8.36169C15.5597 8.9027 13.5627 10.1008 12.0495 11.7397L7.54992 9.79794L7.14118 9.62155L6.91872 10.0072L5.41551 12.6127L5.1918 13.0005L5.55259 13.2655L9.49042 16.1582C8.80494 18.3858 8.80497 20.7683 9.49051 22.9958L5.53222 25.9085L5.17194 26.1736L5.39547 26.5611L6.89867 29.1666L7.12046 29.5511L7.5285 29.3764L12.0705 27.4325C13.5791 29.0513 15.5565 30.2486 17.7885 30.774L18.4815 35.6809L18.5422 36.111H18.9766H22.0231H22.4572L22.5181 35.6812L23.2113 30.7913C25.4421 30.2497 27.4197 29.0522 28.9291 27.4325L33.4711 29.3764L33.8792 29.5511L34.1009 29.1666L35.6041 26.5611L35.8284 26.1724L35.4662 25.9076L31.5092 23.0145C32.1947 20.7808 32.1946 18.3921 31.509 16.1584L35.447 13.2655L35.8078 13.0005L35.5841 12.6127L34.0809 10.0072L33.8584 9.62155L33.4497 9.79794L28.9504 11.7395C27.41 10.069 25.4036 8.89838 23.191 8.37956L22.4981 3.4728L22.4374 3.04272H22.003H18.9966ZM20.4998 12.0598C22.4935 12.0598 24.4055 12.8518 25.8152 14.2615C27.2249 15.6712 28.0169 17.5832 28.0169 19.5769C28.0169 21.5705 27.2249 23.4825 25.8152 24.8922C24.4055 26.302 22.4935 27.0939 20.4998 27.0939C18.5062 27.0939 16.5942 26.302 15.1844 24.8922C13.7747 23.4825 12.9827 21.5705 12.9827 19.5769C12.9827 17.5832 13.7747 15.6712 15.1844 14.2615C16.5942 12.8518 18.5062 12.0598 20.4998 12.0598ZM20.4998 15.0683C19.3041 15.0683 18.1573 15.5433 17.3118 16.3888C16.4663 17.2344 15.9913 18.3811 15.9913 19.5769C15.9913 20.7726 16.4663 21.9194 17.3118 22.7649C18.1573 23.6104 19.3041 24.0854 20.4998 24.0854C21.6955 24.0854 22.8423 23.6104 23.6878 22.7649C24.5333 21.9194 25.0083 20.7726 25.0083 19.5769C25.0083 18.3811 24.5333 17.2344 23.6878 16.3888C22.8423 15.5433 21.6955 15.0683 20.4998 15.0683Z" fill="#0593F5" stroke="#D5EEFF"/>
</g>
<defs>
<clipPath id="clip0_445_4868">
<rect width="39" height="39" fill="white" transform="translate(0 0.53418)"/>
</clipPath>
</defs>
</svg>
