<svg width="50" height="50" viewBox="0 0 50 50" fill="none" xmlns="http://www.w3.org/2000/svg">
<rect x="3" y="32" width="44" height="15" fill="white"/>
<path d="M3.07143 44.8572V45.3572H3.57143H46.4286H46.9286V44.8572V9.14296V8.64296H46.4286H3.57143H3.07143V9.14296V44.8572ZM1.78571 6.07153H48.2143C48.5553 6.07153 48.8823 6.20699 49.1234 6.44811C49.3645 6.68923 49.5 7.01625 49.5 7.35725V46.643C49.5 46.984 49.3645 47.311 49.1234 47.5521C48.8823 47.7932 48.5553 47.9287 48.2143 47.9287H1.78571C1.44472 47.9287 1.11769 47.7932 0.876578 47.5521C0.635459 47.311 0.5 46.9839 0.5 46.643V7.35725C0.5 7.01626 0.635459 6.68923 0.876577 6.44811C1.1177 6.20699 1.44472 6.07153 1.78571 6.07153Z" fill="#0593F5" stroke="#D5EEFF"/>
<path d="M3.07143 16.2858V16.7858H3.57143H46.4286H46.9286V16.2858V9.14296V8.64296H46.4286H3.57143H3.07143V9.14296V16.2858ZM1.78571 6.07153H48.2143C48.5553 6.07153 48.8823 6.20699 49.1234 6.44811C49.3645 6.68923 49.5 7.01625 49.5 7.35725V18.0715C49.5 18.4125 49.3645 18.7396 49.1234 18.9807C48.8823 19.2218 48.5553 19.3572 48.2143 19.3572H1.78571C1.44472 19.3572 1.1177 19.2218 0.876577 18.9807C0.635459 18.7396 0.5 18.4125 0.5 18.0715V7.35725C0.5 7.01626 0.635459 6.68923 0.876577 6.44811C1.1177 6.20699 1.44472 6.07153 1.78571 6.07153Z" fill="#0593F5" stroke="#D5EEFF"/>
<path d="M13.4108 2.87658L13.7571 2.53024L13.4108 2.87658C13.6519 3.1177 13.7874 3.44472 13.7874 3.78571V7.35714C13.7874 7.69814 13.6519 8.02516 13.4108 8.26628C13.1697 8.5074 12.8427 8.64286 12.5017 8.64286H8.93025C8.58925 8.64286 8.26223 8.5074 8.02111 8.26628L7.6712 8.61619L8.02111 8.26628C7.77999 8.02516 7.64453 7.69814 7.64453 7.35714V3.78571C7.64453 3.44472 7.77999 3.1177 8.02111 2.87658C8.26223 2.63546 8.58925 2.5 8.93025 2.5H12.5017C12.8427 2.5 13.1697 2.63546 13.4108 2.87658ZM41.0731 8.64286H37.5017C37.1607 8.64286 36.8337 8.5074 36.5925 8.26628C36.3514 8.02516 36.216 7.69814 36.216 7.35714V3.78571C36.216 3.44472 36.3514 3.11769 36.5925 2.87658C36.8337 2.63546 37.1607 2.5 37.5017 2.5H41.0731C41.4141 2.5 41.7411 2.63546 41.9822 2.87658C42.2234 3.11769 42.3588 3.44472 42.3588 3.78571V7.35714C42.3588 7.69814 42.2234 8.02516 41.9822 8.26628C41.7411 8.5074 41.4141 8.64286 41.0731 8.64286ZM10.716 30.0714C9.90137 30.0714 9.12014 29.7478 8.54413 29.1718C7.96813 28.5958 7.64453 27.8146 7.64453 27C7.64453 26.1854 7.96813 25.4042 8.54413 24.8282C9.12014 24.2522 9.90137 23.9286 10.716 23.9286C11.5306 23.9286 12.3118 24.2522 12.8878 24.8282C13.4638 25.4042 13.7874 26.1854 13.7874 27C13.7874 27.8146 13.4638 28.5958 12.8878 29.1718C12.3118 29.7478 11.5306 30.0714 10.716 30.0714Z" fill="#0593F5" stroke="#D5EEFF"/>
</svg>
