<svg width="50" height="50" viewBox="0 0 50 50" fill="none" xmlns="http://www.w3.org/2000/svg">
<g clip-path="url(#clip0_445_4723)">
<rect x="1" y="29" width="48" height="15" fill="white"/>
<path d="M50.25 15V5C50.25 4.66848 50.1183 4.35054 49.8839 4.11612C49.6495 3.8817 49.3315 3.75 49 3.75H39C38.6685 3.75 38.3505 3.8817 38.1161 4.11612C37.8817 4.35054 37.75 4.66848 37.75 5C37.75 5.33152 37.8817 5.64946 38.1161 5.88388C38.3505 6.1183 38.6685 6.25 39 6.25H47.75V15C47.75 15.3315 47.8817 15.6495 48.1161 15.8839C48.3505 16.1183 48.6685 16.25 49 16.25C49.3315 16.25 49.6495 16.1183 49.8839 15.8839C50.1183 15.6495 50.25 15.3315 50.25 15ZM11 43.75H2.25V35C2.25 34.6685 2.1183 34.3505 1.88388 34.1161C1.64946 33.8817 1.33152 33.75 1 33.75C0.66848 33.75 0.350537 33.8817 0.116117 34.1161C-0.118304 34.3505 -0.25 34.6685 -0.25 35V45C-0.25 45.3315 -0.118303 45.6495 0.116116 45.8839C0.350538 46.1183 0.668481 46.25 1 46.25H11C11.3315 46.25 11.6495 46.1183 11.8839 45.8839C12.1183 45.6495 12.25 45.3315 12.25 45C12.25 44.6685 12.1183 44.3505 11.8839 44.1161C11.6495 43.8817 11.3315 43.75 11 43.75ZM49 33.75C48.6685 33.75 48.3505 33.8817 48.1161 34.1161C47.8817 34.3505 47.75 34.6685 47.75 35V43.75H39C38.6685 43.75 38.3505 43.8817 38.1161 44.1161C37.8817 44.3505 37.75 44.6685 37.75 45C37.75 45.3315 37.8817 45.6495 38.1161 45.8839C38.3505 46.1183 38.6685 46.25 39 46.25H49C49.3315 46.25 49.6495 46.1183 49.8839 45.8839C50.1183 45.6495 50.25 45.3315 50.25 45V35C50.25 34.6685 50.1183 34.3505 49.8839 34.1161C49.6495 33.8817 49.3315 33.75 49 33.75ZM1 16.25C1.33152 16.25 1.64946 16.1183 1.88388 15.8839C2.1183 15.6495 2.25 15.3315 2.25 15V6.25H11C11.3315 6.25 11.6495 6.1183 11.8839 5.88388C12.1183 5.64946 12.25 5.33152 12.25 5C12.25 4.66848 12.1183 4.35054 11.8839 4.11612C11.6495 3.8817 11.3315 3.75 11 3.75H1C0.668479 3.75 0.350537 3.8817 0.116117 4.11612C-0.118304 4.35054 -0.25 4.66848 -0.25 5V15C-0.25 15.3315 -0.118304 15.6495 0.116117 15.8839C0.350537 16.1183 0.66848 16.25 1 16.25ZM13 13.75C12.6685 13.75 12.3505 13.8817 12.1161 14.1161C11.8817 14.3505 11.75 14.6685 11.75 15V35C11.75 35.3315 11.8817 35.6495 12.1161 35.8839C12.3505 36.1183 12.6685 36.25 13 36.25C13.3315 36.25 13.6495 36.1183 13.8839 35.8839C14.1183 35.6495 14.25 35.3315 14.25 35V15C14.25 14.6685 14.1183 14.3505 13.8839 14.1161C13.6495 13.8817 13.3315 13.75 13 13.75ZM38.25 15C38.25 14.6685 38.1183 14.3505 37.8839 14.1161C37.6495 13.8817 37.3315 13.75 37 13.75C36.6685 13.75 36.3505 13.8817 36.1161 14.1161C35.8817 14.3505 35.75 14.6685 35.75 15V35C35.75 35.3315 35.8817 35.6495 36.1161 35.8839C36.3505 36.1183 36.6685 36.25 37 36.25C37.3315 36.25 37.6495 36.1183 37.8839 35.8839C38.1183 35.6495 38.25 35.3315 38.25 35V15ZM29 13.75C28.6685 13.75 28.3505 13.8817 28.1161 14.1161C27.8817 14.3505 27.75 14.6685 27.75 15V35C27.75 35.3315 27.8817 35.6495 28.1161 35.8839C28.3505 36.1183 28.6685 36.25 29 36.25C29.3315 36.25 29.6495 36.1183 29.8839 35.8839C30.1183 35.6495 30.25 35.3315 30.25 35V15C30.25 14.6685 30.1183 14.3505 29.8839 14.1161C29.6495 13.8817 29.3315 13.75 29 13.75ZM21 13.75C20.6685 13.75 20.3505 13.8817 20.1161 14.1161C19.8817 14.3505 19.75 14.6685 19.75 15V35C19.75 35.3315 19.8817 35.6495 20.1161 35.8839C20.3505 36.1183 20.6685 36.25 21 36.25C21.3315 36.25 21.6495 36.1183 21.8839 35.8839C22.1183 35.6495 22.25 35.3315 22.25 35V15C22.25 14.6685 22.1183 14.3505 21.8839 14.1161C21.6495 13.8817 21.3315 13.75 21 13.75Z" fill="#0593F5" stroke="#D5EEFF" stroke-width="0.5"/>
</g>
<defs>
<clipPath id="clip0_445_4723">
<rect width="50" height="50" fill="white"/>
</clipPath>
</defs>
</svg>
