<svg width="37" height="36" viewBox="0 0 37 36" fill="none" xmlns="http://www.w3.org/2000/svg">
<g clip-path="url(#clip0_445_4848)">
<rect x="0.740234" y="20.4368" width="35.52" height="10.5" fill="white"/>
<path d="M35.5649 11.3134L35.7367 11.1317L35.5649 11.3134C35.7515 11.4899 36.0018 11.5868 36.26 11.5868C36.5182 11.5868 36.7685 11.4899 36.9551 11.3134L36.7833 11.1317L36.9551 11.3134C37.1421 11.1364 37.25 10.8933 37.25 10.6368V3.63677C37.25 3.38019 37.1421 3.13713 36.9551 2.96018L36.9551 2.96017C36.7685 2.78367 36.5182 2.68677 36.26 2.68677H28.86C28.6018 2.68677 28.3515 2.78367 28.1649 2.96018C27.9779 3.13713 27.87 3.38019 27.87 3.63677C27.87 3.89335 27.9779 4.13641 28.1649 4.31336C28.3515 4.48986 28.6018 4.58677 28.86 4.58677H35.27V10.6368C35.27 10.8933 35.3779 11.1364 35.5649 11.3134ZM8.14 30.6868H1.73V24.6368C1.73 24.3802 1.62212 24.1371 1.43506 23.9602C1.24847 23.7837 0.99822 23.6868 0.74 23.6868C0.48178 23.6868 0.231532 23.7837 0.0449414 23.9602C-0.142122 24.1371 -0.25 24.3802 -0.25 24.6368V31.6368C-0.25 31.8933 -0.142122 32.1364 0.0449414 32.3134C0.231532 32.4899 0.48178 32.5868 0.74 32.5868H8.14C8.39822 32.5868 8.64847 32.4899 8.83506 32.3134C9.02212 32.1364 9.13 31.8933 9.13 31.6368C9.13 31.3802 9.02212 31.1371 8.83506 30.9602C8.64847 30.7837 8.39822 30.6868 8.14 30.6868ZM36.26 23.6868C36.0018 23.6868 35.7515 23.7837 35.5649 23.9602C35.3779 24.1371 35.27 24.3802 35.27 24.6368V30.6868H28.86C28.6018 30.6868 28.3515 30.7837 28.1649 30.9602C27.9779 31.1371 27.87 31.3802 27.87 31.6368C27.87 31.8933 27.9779 32.1364 28.1649 32.3134C28.3515 32.4899 28.6018 32.5868 28.86 32.5868H36.26C36.5182 32.5868 36.7685 32.4899 36.9551 32.3134C37.1421 32.1364 37.25 31.8933 37.25 31.6368V24.6368C37.25 24.3802 37.1421 24.1371 36.9551 23.9602C36.7685 23.7837 36.5182 23.6868 36.26 23.6868ZM0.74 11.5868C0.998219 11.5868 1.24847 11.4899 1.43506 11.3134C1.62212 11.1364 1.73 10.8933 1.73 10.6368V4.58677H8.14C8.39822 4.58677 8.64847 4.48986 8.83506 4.31336C9.02212 4.13641 9.13 3.89335 9.13 3.63677C9.13 3.38019 9.02212 3.13713 8.83506 2.96018C8.64847 2.78367 8.39822 2.68677 8.14 2.68677H0.74C0.48178 2.68677 0.231532 2.78367 0.0449412 2.96018C-0.142121 3.13713 -0.25 3.38019 -0.25 3.63677V10.6368C-0.25 10.8933 -0.142122 11.1364 0.0449414 11.3134C0.231533 11.4899 0.481781 11.5868 0.74 11.5868ZM9.62 9.68677C9.36178 9.68677 9.11153 9.78367 8.92494 9.96018C8.73788 10.1371 8.63 10.3802 8.63 10.6368V24.6368C8.63 24.8933 8.73788 25.1364 8.92494 25.3134C9.11153 25.4899 9.36178 25.5868 9.62 25.5868C9.87822 25.5868 10.1285 25.4899 10.3151 25.3134C10.5021 25.1364 10.61 24.8933 10.61 24.6368V10.6368C10.61 10.3802 10.5021 10.1371 10.3151 9.96018C10.1285 9.78367 9.87822 9.68677 9.62 9.68677ZM28.37 10.6368C28.37 10.3802 28.2621 10.1371 28.0751 9.96018C27.8885 9.78367 27.6382 9.68677 27.38 9.68677C27.1218 9.68677 26.8715 9.78367 26.6849 9.96018C26.4979 10.1371 26.39 10.3802 26.39 10.6368V24.6368C26.39 24.8933 26.4979 25.1364 26.6849 25.3134C26.8715 25.4899 27.1218 25.5868 27.38 25.5868C27.6382 25.5868 27.8885 25.4899 28.0751 25.3134C28.2621 25.1364 28.37 24.8933 28.37 24.6368V10.6368ZM21.46 9.68677C21.2018 9.68677 20.9515 9.78367 20.7649 9.96018C20.5779 10.1371 20.47 10.3802 20.47 10.6368V24.6368C20.47 24.8933 20.5779 25.1364 20.7649 25.3134C20.9515 25.4899 21.2018 25.5868 21.46 25.5868C21.7182 25.5868 21.9685 25.4899 22.1551 25.3134C22.3421 25.1364 22.45 24.8933 22.45 24.6368V10.6368C22.45 10.3802 22.3421 10.1371 22.1551 9.96018C21.9685 9.78367 21.7182 9.68677 21.46 9.68677ZM15.54 9.68677C15.2818 9.68677 15.0315 9.78367 14.8449 9.96018C14.6579 10.1371 14.55 10.3802 14.55 10.6368V24.6368C14.55 24.8933 14.6579 25.1364 14.8449 25.3134C15.0315 25.4899 15.2818 25.5868 15.54 25.5868C15.7982 25.5868 16.0485 25.4899 16.2351 25.3134C16.4221 25.1364 16.53 24.8933 16.53 24.6368V10.6368C16.53 10.3802 16.4221 10.1371 16.2351 9.96018C16.0485 9.78367 15.7982 9.68677 15.54 9.68677Z" fill="#0593F5" stroke="#D5EEFF" stroke-width="0.5"/>
</g>
<defs>
<clipPath id="clip0_445_4848">
<rect width="37" height="35" fill="white" transform="translate(0 0.136719)"/>
</clipPath>
</defs>
</svg>
