<svg width="34" height="35" viewBox="0 0 34 35" fill="none" xmlns="http://www.w3.org/2000/svg">
<g clip-path="url(#clip0_445_4857)">
<path d="M30.3577 1.28223H3.64341C2.99932 1.28223 2.3816 1.53809 1.92616 1.99354C1.47071 2.44898 1.21484 3.0667 1.21484 3.7108V30.4251C1.21484 31.0692 1.47071 31.6869 1.92616 32.1423C2.3816 32.5978 2.99932 32.8537 3.64341 32.8537H30.3577C31.0018 32.8537 31.6195 32.5978 32.075 32.1423C32.5304 31.6869 32.7863 31.0692 32.7863 30.4251V3.7108C32.7863 3.0667 32.5304 2.44898 32.075 1.99354C31.6195 1.53809 31.0018 1.28223 30.3577 1.28223Z" fill="white" stroke="#D5EEFF" stroke-width="3" stroke-linecap="round" stroke-linejoin="round"/>
<path d="M17.0012 1.28223V6.45994C16.4771 5.9911 15.8284 5.68399 15.1336 5.57569C14.4387 5.46738 13.7274 5.56252 13.0854 5.8496C12.4434 6.13668 11.8983 6.60345 11.5158 7.19354C11.1332 7.78364 10.9297 8.47185 10.9297 9.17508C10.9297 9.87832 11.1332 10.5665 11.5158 11.1566C11.8983 11.7467 12.4434 12.2135 13.0854 12.5006C13.7274 12.7877 14.4387 12.8828 15.1336 12.7745C15.8284 12.6662 16.4771 12.3591 17.0012 11.8902V22.2457C17.5254 21.7768 18.174 21.4697 18.8688 21.3614C19.5637 21.2531 20.275 21.3482 20.917 21.6353C21.559 21.9224 22.1041 22.3892 22.4867 22.9793C22.8692 23.5694 23.0727 24.2576 23.0727 24.9608C23.0727 25.664 22.8692 26.3522 22.4867 26.9423C22.1041 27.5324 21.559 27.9992 20.917 28.2863C20.275 28.5734 19.5637 28.6685 18.8688 28.5602C18.174 28.4519 17.5254 28.1448 17.0012 27.6759V32.8537" fill="white"/>
<path d="M17.0012 1.28223V6.45994C16.4771 5.9911 15.8284 5.68399 15.1336 5.57569C14.4387 5.46738 13.7274 5.56252 13.0854 5.8496C12.4434 6.13668 11.8983 6.60345 11.5158 7.19354C11.1332 7.78364 10.9297 8.47185 10.9297 9.17508C10.9297 9.87832 11.1332 10.5665 11.5158 11.1566C11.8983 11.7467 12.4434 12.2135 13.0854 12.5006C13.7274 12.7877 14.4387 12.8828 15.1336 12.7745C15.8284 12.6662 16.4771 12.3591 17.0012 11.8902V22.2457C17.5254 21.7768 18.174 21.4697 18.8688 21.3614C19.5637 21.2531 20.275 21.3482 20.917 21.6353C21.559 21.9224 22.1041 22.3892 22.4867 22.9793C22.8692 23.5694 23.0727 24.2576 23.0727 24.9608C23.0727 25.664 22.8692 26.3522 22.4867 26.9423C22.1041 27.5324 21.559 27.9992 20.917 28.2863C20.275 28.5734 19.5637 28.6685 18.8688 28.5602C18.174 28.4519 17.5254 28.1448 17.0012 27.6759V32.8537" stroke="#D5EEFF" stroke-width="3" stroke-linecap="round" stroke-linejoin="round"/>
<path d="M1.21484 17.0676H6.39256C5.92372 17.5918 5.61661 18.2404 5.5083 18.9353C5.4 19.6301 5.49513 20.3414 5.78222 20.9834C6.0693 21.6254 6.53606 22.1705 7.12616 22.5531C7.71626 22.9356 8.40446 23.1391 9.1077 23.1391C9.81094 23.1391 10.4991 22.9356 11.0892 22.5531C11.6793 22.1705 12.1461 21.6254 12.4332 20.9834C12.7203 20.3414 12.8154 19.6301 12.7071 18.9353C12.5988 18.2404 12.2917 17.5918 11.8228 17.0676H22.1783C21.7094 16.5435 21.4023 15.8948 21.294 15.2C21.1857 14.5051 21.2808 13.7938 21.5679 13.1518C21.855 12.5098 22.3218 11.9647 22.9119 11.5822C23.502 11.1996 24.1902 10.9961 24.8934 10.9961C25.5966 10.9961 26.2849 11.1996 26.875 11.5822C27.465 11.9647 27.9318 12.5098 28.2189 13.1518C28.506 13.7938 28.6011 14.5051 28.4928 15.2C28.3845 15.8948 28.0774 16.5435 27.6086 17.0676H32.7863" fill="white"/>
<path d="M1.21484 17.0676H6.39256C5.92372 17.5918 5.61661 18.2404 5.5083 18.9353C5.4 19.6301 5.49513 20.3414 5.78222 20.9834C6.0693 21.6254 6.53606 22.1705 7.12616 22.5531C7.71626 22.9356 8.40446 23.1391 9.1077 23.1391C9.81094 23.1391 10.4991 22.9356 11.0892 22.5531C11.6793 22.1705 12.1461 21.6254 12.4332 20.9834C12.7203 20.3414 12.8154 19.6301 12.7071 18.9353C12.5988 18.2404 12.2917 17.5918 11.8228 17.0676H22.1783C21.7094 16.5435 21.4023 15.8948 21.294 15.2C21.1857 14.5051 21.2808 13.7938 21.5679 13.1518C21.855 12.5098 22.3218 11.9647 22.9119 11.5822C23.502 11.1996 24.1902 10.9961 24.8934 10.9961C25.5966 10.9961 26.2849 11.1996 26.875 11.5822C27.465 11.9647 27.9318 12.5098 28.2189 13.1518C28.506 13.7938 28.6011 14.5051 28.4928 15.2C28.3845 15.8948 28.0774 16.5435 27.6086 17.0676H32.7863" stroke="#D5EEFF" stroke-width="3" stroke-linecap="round" stroke-linejoin="round"/>
<path d="M30.3577 1.28223H3.64341C2.99932 1.28223 2.3816 1.53809 1.92616 1.99354C1.47071 2.44898 1.21484 3.0667 1.21484 3.7108V30.4251C1.21484 31.0692 1.47071 31.6869 1.92616 32.1423C2.3816 32.5978 2.99932 32.8537 3.64341 32.8537H30.3577C31.0018 32.8537 31.6195 32.5978 32.075 32.1423C32.5304 31.6869 32.7863 31.0692 32.7863 30.4251V3.7108C32.7863 3.0667 32.5304 2.44898 32.075 1.99354C31.6195 1.53809 31.0018 1.28223 30.3577 1.28223Z" fill="white" stroke="#0593F5" stroke-width="2" stroke-linecap="round" stroke-linejoin="round"/>
<path d="M17.0012 1.28223V6.45994C16.4771 5.9911 15.8284 5.68399 15.1336 5.57569C14.4387 5.46738 13.7274 5.56252 13.0854 5.8496C12.4434 6.13668 11.8983 6.60345 11.5158 7.19354C11.1332 7.78364 10.9297 8.47185 10.9297 9.17508C10.9297 9.87832 11.1332 10.5665 11.5158 11.1566C11.8983 11.7467 12.4434 12.2135 13.0854 12.5006C13.7274 12.7877 14.4387 12.8828 15.1336 12.7745C15.8284 12.6662 16.4771 12.3591 17.0012 11.8902V22.2457C17.5254 21.7768 18.174 21.4697 18.8688 21.3614C19.5637 21.2531 20.275 21.3482 20.917 21.6353C21.559 21.9224 22.1041 22.3892 22.4867 22.9793C22.8692 23.5694 23.0727 24.2576 23.0727 24.9608C23.0727 25.664 22.8692 26.3522 22.4867 26.9423C22.1041 27.5324 21.559 27.9992 20.917 28.2863C20.275 28.5734 19.5637 28.6685 18.8688 28.5602C18.174 28.4519 17.5254 28.1448 17.0012 27.6759V32.8537" fill="white"/>
<path d="M17.0012 1.28223V6.45994C16.4771 5.9911 15.8284 5.68399 15.1336 5.57569C14.4387 5.46738 13.7274 5.56252 13.0854 5.8496C12.4434 6.13668 11.8983 6.60345 11.5158 7.19354C11.1332 7.78364 10.9297 8.47185 10.9297 9.17508C10.9297 9.87832 11.1332 10.5665 11.5158 11.1566C11.8983 11.7467 12.4434 12.2135 13.0854 12.5006C13.7274 12.7877 14.4387 12.8828 15.1336 12.7745C15.8284 12.6662 16.4771 12.3591 17.0012 11.8902V22.2457C17.5254 21.7768 18.174 21.4697 18.8688 21.3614C19.5637 21.2531 20.275 21.3482 20.917 21.6353C21.559 21.9224 22.1041 22.3892 22.4867 22.9793C22.8692 23.5694 23.0727 24.2576 23.0727 24.9608C23.0727 25.664 22.8692 26.3522 22.4867 26.9423C22.1041 27.5324 21.559 27.9992 20.917 28.2863C20.275 28.5734 19.5637 28.6685 18.8688 28.5602C18.174 28.4519 17.5254 28.1448 17.0012 27.6759V32.8537" stroke="#0593F5" stroke-width="2" stroke-linecap="round" stroke-linejoin="round"/>
<path d="M1.21484 17.0676H6.39256C5.92372 17.5918 5.61661 18.2404 5.5083 18.9353C5.4 19.6301 5.49513 20.3414 5.78222 20.9834C6.0693 21.6254 6.53606 22.1705 7.12616 22.5531C7.71626 22.9356 8.40446 23.1391 9.1077 23.1391C9.81094 23.1391 10.4991 22.9356 11.0892 22.5531C11.6793 22.1705 12.1461 21.6254 12.4332 20.9834C12.7203 20.3414 12.8154 19.6301 12.7071 18.9353C12.5988 18.2404 12.2917 17.5918 11.8228 17.0676H22.1783C21.7094 16.5435 21.4023 15.8948 21.294 15.2C21.1857 14.5051 21.2808 13.7938 21.5679 13.1518C21.855 12.5098 22.3218 11.9647 22.9119 11.5822C23.502 11.1996 24.1902 10.9961 24.8934 10.9961C25.5966 10.9961 26.2849 11.1996 26.875 11.5822C27.465 11.9647 27.9318 12.5098 28.2189 13.1518C28.506 13.7938 28.6011 14.5051 28.4928 15.2C28.3845 15.8948 28.0774 16.5435 27.6086 17.0676H32.7863" fill="white"/>
<path d="M1.21484 17.0676H6.39256C5.92372 17.5918 5.61661 18.2404 5.5083 18.9353C5.4 19.6301 5.49513 20.3414 5.78222 20.9834C6.0693 21.6254 6.53606 22.1705 7.12616 22.5531C7.71626 22.9356 8.40446 23.1391 9.1077 23.1391C9.81094 23.1391 10.4991 22.9356 11.0892 22.5531C11.6793 22.1705 12.1461 21.6254 12.4332 20.9834C12.7203 20.3414 12.8154 19.6301 12.7071 18.9353C12.5988 18.2404 12.2917 17.5918 11.8228 17.0676H22.1783C21.7094 16.5435 21.4023 15.8948 21.294 15.2C21.1857 14.5051 21.2808 13.7938 21.5679 13.1518C21.855 12.5098 22.3218 11.9647 22.9119 11.5822C23.502 11.1996 24.1902 10.9961 24.8934 10.9961C25.5966 10.9961 26.2849 11.1996 26.875 11.5822C27.465 11.9647 27.9318 12.5098 28.2189 13.1518C28.506 13.7938 28.6011 14.5051 28.4928 15.2C28.3845 15.8948 28.0774 16.5435 27.6086 17.0676H32.7863" stroke="#0593F5" stroke-width="2" stroke-linecap="round" stroke-linejoin="round"/>
</g>
<defs>
<clipPath id="clip0_445_4857">
<rect width="34" height="34" fill="white" transform="translate(0 0.0683594)"/>
</clipPath>
</defs>
</svg>
