<svg width="143" height="153" viewBox="0 0 143 153" fill="none" xmlns="http://www.w3.org/2000/svg">
<path d="M113.797 83.896L61.9037 77.7636L69.3408 131.78" stroke="#263238" stroke-width="2.3576" stroke-miterlimit="10"/>
<path d="M101.946 89.0419C98.1475 82.8146 100.117 74.6872 106.344 70.8888C112.571 67.0904 120.699 69.0594 124.497 75.2867C128.295 81.514 126.326 89.6415 120.099 93.4399C113.872 97.2383 105.744 95.2692 101.946 89.0419Z" fill="#80FFAF" stroke="#263238"/>
<path d="M102.64 83.8908C102.445 79.892 104.394 75.9151 108.049 73.6853" stroke="#263238" stroke-width="1.4476" stroke-miterlimit="10" stroke-linecap="round" stroke-linejoin="round"/>
<path d="M55.4294 138.198C50.9346 130.829 53.2646 121.212 60.6336 116.717C68.0026 112.222 77.6201 114.552 82.1148 121.921C86.6096 129.29 84.2796 138.908 76.9106 143.402C69.5416 147.897 59.9242 145.567 55.4294 138.198Z" fill="#80FFAF" stroke="#263238"/>
<path d="M56.1982 131.881C55.9739 127.178 58.2508 122.504 62.5604 119.876" stroke="#263238" stroke-width="1.4476" stroke-miterlimit="10" stroke-linecap="round" stroke-linejoin="round"/>
<path d="M13.4522 52.3541C10.5823 47.6491 12.07 41.5084 16.7751 38.6385C21.4802 35.7686 27.6209 37.2563 30.4908 41.9613C33.3607 46.6664 31.8729 52.8071 27.1679 55.677C22.4628 58.5469 16.3221 57.0592 13.4522 52.3541Z" fill="#80FFAF" stroke="#263238"/>
<path d="M14.0509 48.752C13.9043 45.7007 15.3789 42.6539 18.1819 40.9443L14.0509 48.752Z" fill="#80FFAF"/>
<path d="M14.0509 48.752C13.9043 45.7007 15.3789 42.6539 18.1819 40.9443" stroke="#263238" stroke-width="1.4476" stroke-miterlimit="10" stroke-linecap="round" stroke-linejoin="round"/>
<path d="M47.5332 89.6542C41.9959 80.576 44.8663 68.7277 53.9446 63.1903C63.0229 57.6529 74.8712 60.5234 80.4086 69.6017C85.9459 78.6799 83.0755 90.5282 73.9972 96.0656C64.9189 101.603 53.0706 98.7325 47.5332 89.6542Z" fill="#FFDB80" stroke="#263238"/>
<path d="M48.4187 81.5828C48.1421 75.8225 50.9439 70.0915 56.2112 66.8787" stroke="#263238" stroke-width="1.4476" stroke-miterlimit="10" stroke-linecap="round" stroke-linejoin="round"/>
</svg>
