<svg width="98" height="229" viewBox="0 0 98 229" fill="none" xmlns="http://www.w3.org/2000/svg">
<path d="M67.9137 174.462C67.9137 204.186 70.4778 218.03 47.6508 227C23.5556 221.874 26.0645 202.904 26.0645 173.181C20.9923 125.769 35.0166 143.708 47.6236 143.708C64.1098 141.146 67.9138 124.488 67.9137 174.462Z" fill="#80FFAF"/>
<path d="M21.845 30.2353C21.845 36.6678 25.7426 38 19.2183 38C12.694 38 2.15603 30.1972 2.15603 23.7647C2.15603 17.3322 -1.74332 16 4.78098 16C11.3053 16 21.845 23.8028 21.845 30.2353Z" fill="#80FFAF"/>
<path d="M71.5073 39.8817C77.8768 40.1834 79.3762 36.4408 79.0745 42.8103C78.7727 49.1798 70.559 59.1018 64.1894 58.8001C57.8199 58.4983 56.3204 62.2427 56.6221 55.8732C56.9239 49.5036 65.1377 39.58 71.5073 39.8817Z" fill="#80FFAF"/>
<path d="M65.6705 105.335V104.835H65.1705H26.9918H26.4918V105.335V205.939C26.4918 211.225 28.6713 216.202 32.3846 219.634C35.8179 223.375 40.7964 225.528 46.0811 225.528C51.3783 225.528 56.3528 223.34 60.0589 219.634C63.4868 216.206 65.6705 211.231 65.6705 205.939V105.335ZM67.9803 103.487V205.913C67.9803 211.81 65.3328 217.156 61.4503 221.319C57.5942 225.146 51.9771 227.53 46.0554 227.53C40.1315 227.53 34.4909 225.17 30.6629 221.321C26.8023 217.13 24.1306 211.809 24.1306 205.913V103.487C24.1306 103.22 24.2609 102.977 24.5034 102.787C24.7506 102.594 25.0961 102.474 25.4524 102.474H66.6842C67.0249 102.474 67.3637 102.592 67.6089 102.786C67.8495 102.976 67.9803 103.219 67.9803 103.487Z" fill="#263238" stroke="white"/>
<path d="M76.5755 93.8143V93.3143H76.0755H16.062H15.562V93.8143V101.999V102.499H16.062H76.0755H76.5755V101.999V93.8143ZM14.2403 90.9531H77.8971C78.1648 90.9531 78.4073 91.0834 78.5971 91.3259C78.7907 91.5731 78.911 91.9185 78.911 92.2748V103.487C78.911 103.829 78.7919 104.175 78.5957 104.428C78.4029 104.677 78.1598 104.809 77.8971 104.809H14.2403C13.9776 104.809 13.7346 104.677 13.5417 104.428C13.3456 104.176 13.2266 103.829 13.2266 103.487V92.2748C13.2266 91.9334 13.3456 91.5865 13.5417 91.3337C13.7346 91.0851 13.9776 90.9531 14.2403 90.9531Z" fill="#263238" stroke="white"/>
<path d="M21.3381 39.0069L21.3305 38.9944L21.3222 38.9823C21.0875 38.64 21.0412 38.3184 21.0937 38.0344C21.1422 37.7715 21.2811 37.5141 21.4855 37.2937C22.1257 37.1186 22.7828 37.3339 23.2316 37.7774L47.4477 78.0351L47.4793 78.0876L47.5203 78.1286L47.5207 78.1289L47.5215 78.1297L47.522 78.1302L47.5239 78.1323C47.528 78.1367 47.5353 78.1447 47.5447 78.1556C47.5638 78.178 47.5893 78.21 47.6141 78.2471C47.6394 78.285 47.6592 78.3214 47.6717 78.3527C47.683 78.3808 47.684 78.394 47.6841 78.394L47.6841 195.982C47.6841 196.27 47.5348 196.605 47.2644 196.878C46.9945 197.151 46.6604 197.304 46.3623 197.304C46.0946 197.304 45.8522 197.174 45.6624 196.931C45.4688 196.684 45.3486 196.339 45.3486 195.982V78.9832V78.8442L45.2768 78.7251L21.3381 39.0069Z" fill="#263238" stroke="white"/>
<path d="M57.6927 58.3097L57.7041 58.291L57.7139 58.2715C57.7736 58.152 57.984 57.9835 58.3461 57.886C58.6777 57.7967 58.9845 57.8095 59.156 57.8733C59.4856 58.1043 59.6252 58.3598 59.6744 58.6261C59.7271 58.9118 59.6834 59.2557 59.5557 59.6565L47.4836 78.9923C47.2469 79.3337 46.9804 79.4778 46.7373 79.5273C46.4943 79.5767 46.2393 79.5379 46.0184 79.4447C45.6565 79.1874 45.4554 78.9044 45.3844 78.6718C45.3183 78.455 45.3556 78.2677 45.5173 78.0989L45.5543 78.0603L45.5823 78.0148L57.6927 58.3097Z" fill="#263238" stroke="white"/>
<path d="M22.4248 39.0485H22.3068L22.2012 39.1013C21.7262 39.3388 21.3019 39.3388 20.8268 39.1013L20.7338 39.0548L20.6299 39.0492C14.9934 38.7486 10.2826 36.3979 6.40874 32.524C2.8523 28.9676 0.5 23.935 0.5 18.3296V18.326V18.3224V18.3188V18.3152V18.3116V18.308V18.3044V18.3008V18.2972V18.2936V18.29V18.2864V18.2828V18.2792V18.2756V18.272V18.2684V18.2648V18.2612V18.2576V18.254V18.2504V18.2468V18.2432V18.2396V18.236V18.2324V18.2288V18.2252V18.2216V18.218V18.2144V18.2109V18.2073V18.2037V18.2001V18.1965V18.1929V18.1893V18.1857V18.1821V18.1786V18.175V18.1714V18.1678V18.1642V18.1606V18.1571V18.1535V18.1499V18.1463V18.1427V18.1392V18.1356V18.132V18.1284V18.1248V18.1213V18.1177V18.1141V18.1105V18.1069V18.1034V18.0998V18.0962V18.0926V18.0891V18.0855V18.0819V18.0784V18.0748V18.0712V18.0676V18.0641V18.0605V18.0569V18.0534V18.0498V18.0462V18.0426V18.0391V18.0355V18.0319V18.0284V18.0248V18.0212V18.0177V18.0141V18.0105V18.007V18.0034V17.9999V17.9963V17.9927V17.9892V17.9856V17.982V17.9785V17.9749V17.9714V17.9678V17.9642V17.9607V17.9571V17.9536V17.95V17.9464V17.9429V17.9393V17.9358V17.9322V17.9287V17.9251V17.9215V17.918V17.9144V17.9109V17.9073V17.9038V17.9002V17.8967V17.8931V17.8895V17.886V17.8824V17.8789V17.8753V17.8718V17.8682V17.8647V17.8611V17.8576V17.854V17.8505V17.8469V17.8434V17.8398V17.8363V17.8327V17.8292V17.8256V17.8221V17.8185V17.815V17.8114V17.8079V17.8044V17.8008V17.7973V17.7937V17.7902V17.7866V17.7831V17.7795V17.776V17.7724V17.7689V17.7654V17.7618V17.7583V17.7547V17.7512V17.7476V17.7441V17.7406V17.737V17.7335V17.7299V17.7264V17.7228V17.7193V17.7158V17.7122V17.7087V17.7051V17.7016V17.6981V17.6945V17.691V17.6874V17.6839V17.6804V17.6768V17.6733V17.6697V17.6662V17.6627V17.6591V17.6556V17.6521V17.6485V17.645V17.6414V17.6379V17.6344V17.6308V17.6273V17.6238V17.6202V17.6167V17.6131V17.6096V17.6061V17.6025V17.599V17.5955V17.5919V17.5884V17.5849V17.5813V17.5778V17.5743V17.5707V17.5672V17.5637V17.5601V17.5566V17.553V17.5495V17.546V17.5424V17.5389V17.5354V17.5318V17.5283V17.5248V17.5212V17.5177V17.5142V17.5106V17.5071V17.5036V17.5V17.4965V17.493V17.4894V17.4859V17.4824V17.4788V17.4753V17.4718V17.4682V17.4647V17.4612V17.4576V17.4541V17.4506V17.447V17.4435V17.44V17.4364V17.4329V17.4294V17.4258V17.4223V17.4188V17.4152V17.4117V17.4082V17.4046V17.4011V17.3976V17.394V17.3905V17.387V17.3834V17.3799V17.3764V17.3728V17.3693V17.3658V17.3622V17.3587V17.3552V17.3516V17.3481V17.3446V17.341V17.3375V17.334V17.3304V17.3269V17.3234V17.3198V17.3163V17.3128V17.3092V17.3057V17.3022V17.2986V17.2951V17.2916V17.288V17.2845V17.281V17.2774V17.2739V17.2704V17.2668V17.2633V17.2598V17.2562V17.2527V17.2492V17.2456V17.2421V17.2385V17.235V17.2315V17.2279V17.2244V17.2209V17.2173V17.2138V17.2103V17.2067V17.2032V17.1996V17.1961V17.1926V17.189V17.1855V17.182V17.1784V17.1749V17.1713V17.1678V17.1643V17.1607V17.1572V17.1536V17.1501V17.1466V17.143V17.1395V17.1359V17.1324V17.1289V17.1253V17.1218V17.1182V17.1147V17.1112V17.1076V17.1041V17.1005V17.097V17.0935V17.0899V17.0864V17.0828V17.0793V17.0757V17.0722V17.0686V17.0651V17.0616V17.058V17.0545V17.0509V17.0474V17.0438V17.0403V17.0367V17.0332V17.0296V17.0261V17.0226V17.019V17.0155V17.0119V17.0084V17.0048V17.0013V16.9977V16.9942V16.9906V16.9871V16.9835V16.98V16.9764V16.9729V16.9693V16.9658V16.9622V16.9587V16.9551V16.9516V16.948V16.9444V16.9409V16.9373V16.9338V16.9302V16.9267V16.9231V16.9196V16.916V16.9125V16.9089V16.9053V16.9018V16.8982V16.8947V16.8911V16.8876V16.884V16.8804V16.8769V16.8733V16.8698V16.8662V16.8626V16.8591V16.8555V16.8519V16.8484V16.8448V16.8413V16.8377V16.8341V16.8306V16.827V16.8234V16.8199V16.8163V16.8127V16.8092V16.8056V16.802V16.7985V16.7949V16.7913V16.7878V16.7842V16.7806V16.7771V16.7735V16.7699V16.7663V16.7628V16.7592V16.7556V16.7521V16.7485V16.7449V16.7413V16.7378V16.7342V16.7306V16.727V16.7234V16.7199V16.7163V16.7127V16.7091V16.7056V16.702V16.6984V16.6948V16.6912V16.6877V16.6841V16.6805V16.6769V16.6733V16.6697V16.6662V16.6626V16.659V16.6554V16.6518V16.6482V16.6446V16.6411V16.6375V16.6339V16.6303V16.6267V16.6231V16.6195V16.6159V16.6123V16.6087V16.6051V16.6016V16.598V16.5944V16.5908V16.5872V16.5836V16.58V16.5764V16.5728V16.5692V16.5656V16.562V16.5584V16.5548V16.5512V16.5476V16.544V16.5404V16.5368V16.5332V16.5296V16.526V16.5224V16.5188V16.5152V16.5115V16.5079C0.5 16.2354 0.635402 15.9847 0.856948 15.7891C1.0873 15.5857 1.35237 15.4941 1.51388 15.4941H1.51913H1.52439H1.52963H1.53487H1.5401H1.54533H1.55055H1.55576H1.56097H1.56617H1.57137H1.57656H1.58174H1.58691H1.59208H1.59725H1.6024H1.60755H1.6127H1.61784H1.62297H1.62809H1.63321H1.63833H1.64344H1.64854H1.65363H1.65872H1.6638H1.66888H1.67395H1.67902H1.68407H1.68913H1.69417H1.69921H1.70425H1.70928H1.7143H1.71932H1.72433H1.72933H1.73433H1.73932H1.74431H1.74929H1.75427H1.75924H1.7642H1.76916H1.77411H1.77905H1.78399H1.78893H1.79386H1.79878H1.8037H1.80861H1.81351H1.81841H1.82331H1.8282H1.83308H1.83796H1.84283H1.84769H1.85255H1.85741H1.86226H1.8671H1.87194H1.87677H1.8816H1.88642H1.89123H1.89604H1.90085H1.90565H1.91044H1.91523H1.92001H1.92479H1.92956H1.93433H1.93909H1.94385H1.9486H1.95334H1.95808H1.96281H1.96754H1.97227H1.97699H1.9817H1.98641H1.99111H1.99581H2.0005H2.00519H2.00987H2.01454H2.01921H2.02388H2.02854H2.0332H2.03785H2.04249H2.04713H2.05177H2.0564H2.06102H2.06564H2.07026H2.07487H2.07947H2.08407H2.08867H2.09326H2.09784H2.10242H2.107H2.11157H2.11614H2.1207H2.12525H2.1298H2.13435H2.13889H2.14342H2.14796H2.15248H2.157H2.16152H2.16603H2.17054H2.17504H2.17954H2.18403H2.18852H2.193H2.19748H2.20196H2.20643H2.21089H2.21535H2.21981H2.22426H2.2287H2.23315H2.23758H2.24202H2.24644H2.25087H2.25529H2.2597H2.26411H2.26852H2.27292H2.27731H2.28171H2.28609H2.29048H2.29486H2.29923H2.3036H2.30797H2.31233H2.31668H2.32104H2.32539H2.32973H2.33407H2.3384H2.34274H2.34706H2.35138H2.3557H2.36002H2.36433H2.36863H2.37293H2.37723H2.38152H2.38581H2.3901H2.39438H2.39866H2.40293H2.4072H2.41146H2.41572H2.41998H2.42423H2.42848H2.43272H2.43696H2.4412H2.44543H2.44966H2.45388H2.4581H2.46232H2.46653H2.47074H2.47495H2.47915H2.48334H2.48754H2.49173H2.49591H2.50009H2.50427H2.50845H2.51262H2.51678H2.52095H2.5251H2.52926H2.53341H2.53756H2.5417H2.54584H2.54998H2.55411H2.55824H2.56237H2.56649H2.57061H2.57473H2.57884H2.58295H2.58705H2.59115H2.59525H2.59934H2.60343H2.60752H2.61161H2.61569H2.61976H2.62384H2.62791H2.63197H2.63603H2.64009H2.64415H2.6482H2.65225H2.6563H2.66034H2.66438H2.66842H2.67245H2.67648H2.68051H2.68453H2.68855H2.69257H2.69658H2.70059H2.7046H2.7086H2.7126H2.7166H2.7206H2.72459H2.72858H2.73256H2.73654H2.74052H2.7445H2.74847H2.75244H2.75641H2.76037H2.76434H2.76829H2.77225H2.7762H2.78015H2.7841H2.78804H2.79198H2.79592H2.79985H2.80378H2.80771H2.81164H2.81556H2.81948H2.8234H2.82732H2.83123H2.83514H2.83904H2.84295H2.84685H2.85075H2.85464H2.85854H2.86243H2.86632H2.8702H2.87408H2.87796H2.88184H2.88571H2.88959H2.89346H2.89732H2.90119H2.90505H2.90891H2.91277H2.91662H2.92047H2.92432H2.92817H2.93201H2.93585H2.93969H2.94353H2.94737H2.9512H2.95503H2.95886H2.96268H2.9665H2.97032H2.97414H2.97796H2.98177H2.98558H2.98939H2.9932H2.99701H3.00081H3.00461H3.00841H3.0122H3.016H3.01979H3.02358H3.02736H3.03115H3.03493H3.03871H3.04249H3.04627H3.05004H3.05382H3.05759H3.06136H3.06512H3.06889H3.07265H3.07641H3.08017H3.08393H3.08768H3.09144H3.09519H3.09894H3.10268H3.10643H3.11017H3.11391H3.11765H3.12139H3.12513H3.12886H3.1326H3.13633H3.14006H3.14378H3.14751H3.15123H3.15496H3.15868H3.1624H3.16611H3.16983H3.17354H3.17725H3.18097H3.18467H3.18838H3.19209H3.19579H3.1995H3.2032H3.2069H3.21059H3.21429H3.21799H3.22168H3.22537H3.22906H3.23275H3.23644H3.24013H3.24381H3.2475H3.25118H3.25486H3.25854H3.26222H3.2659H3.26957H3.27325H3.27692H3.28059H3.28426H3.28793H3.2916H3.29527H3.29893H3.3026H3.30626H3.30992H3.31358H3.31724H3.3209H3.32456H3.32822H3.33187H3.33553H3.33918H3.34283H3.34648H3.35013H3.35378H3.35743H3.36108H3.36472H3.36837H3.37201H3.37565H3.3793H3.38294H3.38658H3.39022H3.39386H3.3975H3.40113H3.40477H3.4084H3.41204H3.41567H3.4193H3.42294H3.42657H3.4302H3.43383H3.43746H3.44109H3.44471H3.44834H3.45197H3.45559H3.45922H3.46284H3.46646H3.47009H3.47371H3.47733H3.48095H3.48457H3.48819H3.49181H3.49543H3.49905H3.50267H3.50629H3.5099H3.51352H3.51714H3.52075H3.52437H3.52798H3.5316H3.53521H3.53882H3.54244H3.54605H3.54966H3.55327H3.55689H3.5605H3.56411H3.56772H3.57133H3.57494H3.57855H3.58216H3.58577H3.58938H3.59299H3.5966H3.60021H3.60382H3.60743H3.61104H3.61464H3.61825H3.62186H3.62547H3.62908H3.62935C8.96147 15.7982 13.965 18.153 17.5159 22.004L17.5291 22.0183L17.5434 22.0316C21.3551 25.5692 23.4418 30.5909 23.7466 36.2265V36.2275V36.2311V36.2347V36.2383V36.2419V36.2455V36.2491V36.2527V36.2564V36.26V36.2636V36.2672V36.2708V36.2744V36.278V36.2816V36.2852V36.2888V36.2925V36.2961V36.2997V36.3033V36.3069V36.3105V36.3141V36.3177V36.3214V36.325V36.3286V36.3322V36.3358V36.3394V36.343V36.3467V36.3503V36.3539V36.3575V36.3611V36.3647V36.3684V36.372V36.3756V36.3792V36.3829V36.3865V36.3901V36.3937V36.3973V36.401V36.4046V36.4082V36.4118V36.4155V36.4191V36.4227V36.4264V36.43V36.4336V36.4373V36.4409V36.4445V36.4482V36.4518V36.4554V36.4591V36.4627V36.4663V36.47V36.4736V36.4773V36.4809V36.4845V36.4882V36.4918V36.4955V36.4991V36.5028V36.5064V36.5101V36.5137V36.5174V36.521V36.5247V36.5283V36.532V36.5357V36.5393V36.543V36.5466V36.5503V36.554V36.5576V36.5613V36.565V36.5686V36.5723V36.576V36.5796V36.5833V36.587V36.5907V36.5943V36.598V36.6017V36.6054V36.6091V36.6127V36.6164V36.6201V36.6238V36.6275V36.6312V36.6349V36.6386V36.6423V36.646V36.6497V36.6534V36.6571V36.6608V36.6645V36.6682V36.6719V36.6756V36.6793V36.683V36.6867V36.6904V36.6942V36.6979V36.7016V36.7053V36.709V36.7128V36.7165V36.7202V36.724V36.7277V36.7314V36.7352V36.7389V36.7426V36.7464V36.7501V36.7539V36.7576V36.7614V36.7651V36.7689V36.7726V36.7764V36.7801V36.7839V36.7877V36.7914V36.7952V36.799V36.8027V36.8065V36.8103V36.8141V36.8178V36.8216V36.8254V36.8292V36.833V36.8368V36.8405V36.8443V36.8481V36.8519V36.8557V36.8595V36.8633V36.8671V36.871V36.8748V36.8786V36.8824V36.8862V36.89V36.8939V36.8977V36.9015V36.9053V36.9092V36.913V36.9168V36.9207V36.9245V36.9284V36.9322V36.9361V36.9399V36.9438V36.9476V36.9515V36.9554V36.9592V36.9631V36.967V36.9708V36.9747V36.9786V36.9825V36.9863V36.9902V36.9941V36.998V37.0019V37.0058V37.0097V37.0136V37.0175V37.0214V37.0253V37.0292V37.0331V37.0371V37.041V37.0449V37.0488V37.0527V37.0567V37.0606V37.0646V37.0685V37.0724V37.0764V37.0803V37.0843V37.0882V37.0922V37.0962V37.1001V37.1041V37.1081V37.112V37.116V37.12V37.124V37.128V37.1319V37.1359V37.1399V37.1439V37.1479V37.1519V37.1559V37.1599V37.164V37.168V37.172V37.176V37.18V37.1841V37.1881V37.1921V37.1962V37.2002V37.2043V37.2083V37.2124V37.2164V37.2205V37.2246V37.2286V37.2327V37.2368V37.2408V37.2449V37.249V37.2531V37.2572V37.2613V37.2654V37.2695V37.2736V37.2777V37.2818V37.2859V37.29V37.2941V37.2983V37.3024V37.3065V37.3107V37.3148V37.319V37.3231V37.3273V37.3314V37.3356V37.3397V37.3439V37.3481V37.3522V37.3564V37.3606V37.3648V37.369V37.3732V37.3774V37.3816V37.3858V37.39V37.3942V37.3984V37.4026V37.4069V37.4111V37.4153V37.4195V37.4238V37.428V37.4323V37.4365V37.4408V37.4451V37.4493V37.4536V37.4579V37.4621V37.4664V37.4707V37.475V37.4793V37.4836V37.4879V37.4922V37.4965V37.5008V37.5051V37.5094V37.5138V37.5181V37.5224V37.5268V37.5311V37.5355V37.5398V37.5442V37.5485V37.5529V37.5573V37.5616V37.566V37.5704V37.5748V37.5792V37.5836V37.588V37.5924V37.5968V37.6012V37.6056V37.6101V37.6145V37.6189V37.6234V37.6278V37.6322V37.6367V37.6412V37.6456V37.6501V37.6545V37.659V37.6635V37.668V37.6725V37.677V37.6815V37.686V37.6905V37.695V37.6995V37.704V37.7085V37.7131V37.7176V37.7222V37.7267V37.7312V37.7358V37.7404V37.7449V37.7495V37.7541V37.7587V37.7632V37.7678V37.7724V37.777V37.7816V37.7862V37.7909V37.7955V37.8001V37.8047V37.8094V37.814V37.8186V37.8233V37.828V37.8326V37.8373V37.842V37.8466V37.8513V37.856V37.8607V37.8654V37.8701V37.8748V37.8795V37.8842V37.889V37.8937V37.8984V37.9032V37.9079V37.9126V37.9174V37.9222V37.9269V37.9317V37.9365V37.9413V37.9461V37.9508V37.9556V37.9604V37.9653V37.9701V37.9749V37.9797V37.9846V37.9894V37.9942V37.9991V38.0039V38.0088V38.0137V38.0185V38.0234V38.0283V38.0332V38.0381V38.043V38.0479V38.0528V38.0577V38.0626V38.0676V38.0725V38.0774V38.0824V38.0873V38.0923V38.0973V38.1022V38.1072V38.1122V38.1172V38.1222V38.1272V38.1322V38.1372V38.1422V38.1472V38.1522V38.1573V38.1623V38.1674V38.1724V38.1775V38.1825V38.1876V38.1927V38.1978V38.2029V38.208V38.2131V38.2182V38.2183C23.4841 38.6833 23.0521 39.0485 22.4248 39.0485ZM20.5694 37.0198L20.5863 37.0209H20.6032H20.9111H21.4111V36.5209V36.2131C21.4111 31.2099 19.2129 26.8616 16.1241 23.4587L16.116 23.4497L16.1074 23.4412C12.694 20.0277 8.34888 17.8647 3.34146 17.5484L3.32572 17.5474H3.30995H3.00207H2.50207V18.0474V18.3553V18.3712L2.50307 18.387C2.81934 23.3681 5.00665 27.7053 8.09679 31.1097L8.09821 31.1112C11.2424 34.5461 15.906 36.7036 20.5694 37.0198Z" fill="#263238" stroke="white"/>
<path d="M59.2046 57.4315V57.9643L59.7363 57.9305C64.7074 57.6149 68.7722 55.7413 72.1929 52.347L72.1942 52.3457C75.3154 49.2245 77.19 44.8383 77.19 40.1639V39.8561V39.321L76.6562 39.3572C72.0595 39.6688 67.7534 41.7671 64.6564 44.7955H64.554H64.3154L64.1653 44.981C61.404 48.3935 59.2046 52.7352 59.2046 57.4315ZM56.8691 59.1668V59.1633V59.1597V59.1561V59.1525V59.1489V59.1453V59.1417V59.1381V59.1345V59.1309V59.1274V59.1238V59.1202V59.1166V59.113V59.1094V59.1058V59.1022V59.0987V59.0951V59.0915V59.0879V59.0843V59.0807V59.0772V59.0736V59.07V59.0664V59.0628V59.0593V59.0557V59.0521V59.0485V59.0449V59.0414V59.0378V59.0342V59.0306V59.0271V59.0235V59.0199V59.0163V59.0128V59.0092V59.0056V59.002V58.9985V58.9949V58.9913V58.9877V58.9842V58.9806V58.977V58.9735V58.9699V58.9663V58.9628V58.9592V58.9556V58.9521V58.9485V58.9449V58.9414V58.9378V58.9342V58.9307V58.9271V58.9235V58.92V58.9164V58.9128V58.9093V58.9057V58.9022V58.8986V58.895V58.8915V58.8879V58.8844V58.8808V58.8772V58.8737V58.8701V58.8666V58.863V58.8594V58.8559V58.8523V58.8488V58.8452V58.8417V58.8381V58.8345V58.831V58.8274V58.8239V58.8203V58.8168V58.8132V58.8097V58.8061V58.8026V58.799V58.7955V58.7919V58.7884V58.7848V58.7813V58.7777V58.7742V58.7706V58.7671V58.7635V58.76V58.7564V58.7529V58.7493V58.7458V58.7422V58.7387V58.7351V58.7316V58.728V58.7245V58.7209V58.7174V58.7138V58.7103V58.7067V58.7032V58.6997V58.6961V58.6926V58.689V58.6855V58.6819V58.6784V58.6749V58.6713V58.6678V58.6642V58.6607V58.6571V58.6536V58.6501V58.6465V58.643V58.6394V58.6359V58.6323V58.6288V58.6253V58.6217V58.6182V58.6146V58.6111V58.6076V58.604V58.6005V58.5969V58.5934V58.5899V58.5863V58.5828V58.5793V58.5757V58.5722V58.5686V58.5651V58.5616V58.558V58.5545V58.551V58.5474V58.5439V58.5403V58.5368V58.5333V58.5297V58.5262V58.5227V58.5191V58.5156V58.5121V58.5085V58.505V58.5014V58.4979V58.4944V58.4908V58.4873V58.4838V58.4802V58.4767V58.4732V58.4696V58.4661V58.4626V58.459V58.4555V58.452V58.4484V58.4449V58.4414V58.4378V58.4343V58.4308V58.4272V58.4237V58.4202V58.4166V58.4131V58.4096V58.406V58.4025V58.399V58.3954V58.3919V58.3884V58.3848V58.3813V58.3778V58.3742V58.3707V58.3672V58.3636V58.3601V58.3566V58.353V58.3495V58.346V58.3424V58.3389V58.3354V58.3318V58.3283V58.3248V58.3212V58.3177V58.3142V58.3106V58.3071V58.3036V58.3V58.2965V58.293V58.2894V58.2859V58.2824V58.2788V58.2753V58.2718V58.2682V58.2647V58.2612V58.2576V58.2541V58.2506V58.247V58.2435V58.24V58.2364V58.2329V58.2293V58.2258V58.2223V58.2187V58.2152V58.2117V58.2081V58.2046V58.2011V58.1975V58.194V58.1905V58.1869V58.1834V58.1799V58.1763V58.1728V58.1693V58.1657V58.1622V58.1586V58.1551V58.1516V58.148V58.1445V58.141V58.1374V58.1339V58.1304V58.1268V58.1233V58.1197V58.1162V58.1127V58.1091V58.1056V58.102V58.0985V58.095V58.0914V58.0879V58.0844V58.0808V58.0773V58.0737V58.0702V58.0667V58.0631V58.0596V58.056V58.0525V58.049V58.0454V58.0419V58.0383V58.0348V58.0312V58.0277V58.0242V58.0206V58.0171V58.0135V58.01V58.0064V58.0029V57.9994V57.9958V57.9923V57.9887V57.9852V57.9816V57.9781V57.9745V57.971V57.9675V57.9639V57.9604V57.9568V57.9533V57.9497V57.9462V57.9426V57.9391V57.9355V57.932V57.9284V57.9249V57.9213V57.9178V57.9142V57.9107V57.9071V57.9036V57.9V57.8965V57.8929V57.8894V57.8858V57.8823V57.8787V57.8752V57.8716V57.8681V57.8645V57.861V57.8574V57.8538V57.8503V57.8467V57.8432V57.8396V57.8361V57.8325V57.829V57.8254V57.8218V57.8183V57.8147V57.8112V57.8076V57.804V57.8005V57.7969V57.7934V57.7898V57.7862V57.7827V57.7791V57.7756V57.772V57.7684V57.7649V57.7613V57.7577V57.7542V57.7506V57.747V57.7435V57.7399V57.7363V57.7328V57.7292V57.7256V57.7221V57.7185V57.7149V57.7114V57.7078V57.7042V57.7007V57.6971V57.6935V57.6899V57.6864V57.6828V57.6792V57.6757V57.6721V57.6685V57.6649V57.6614V57.6578V57.6542V57.6506V57.6471V57.6435V57.6399V57.6363V57.6327V57.6292V57.6256V57.622V57.6184V57.6148V57.6113V57.6077V57.6041V57.6005V57.5969V57.5933V57.5898V57.5862V57.5826V57.579V57.5754V57.5718V57.5682V57.5647V57.5611V57.5575V57.5539V57.5503V57.5467V57.5431V57.5395V57.5359V57.5323V57.5288V57.5252V57.5216V57.518V57.5144V57.5108V57.5072V57.5036V57.5V57.4964V57.4928V57.4892V57.4856V57.482V57.4784V57.4748V57.4712V57.4676V57.464V57.4604V57.4568V57.4532V57.4496V57.446V57.4458C57.1739 52.1174 59.2356 47.0874 62.7779 43.5451C66.3361 39.9869 71.0451 37.6285 76.3847 37.0205H76.3853H76.3889H76.3925H76.3961H76.3997H76.4033H76.4069H76.4105H76.4141H76.4177H76.4213H76.4249H76.4285H76.4321H76.4357H76.4393H76.4429H76.4465H76.4501H76.4537H76.4573H76.4609H76.4644H76.468H76.4716H76.4752H76.4788H76.4824H76.486H76.4896H76.4932H76.4967H76.5003H76.5039H76.5075H76.5111H76.5147H76.5183H76.5218H76.5254H76.529H76.5326H76.5362H76.5398H76.5433H76.5469H76.5505H76.5541H76.5577H76.5612H76.5648H76.5684H76.572H76.5755H76.5791H76.5827H76.5863H76.5899H76.5934H76.597H76.6006H76.6041H76.6077H76.6113H76.6149H76.6184H76.622H76.6256H76.6291H76.6327H76.6363H76.6399H76.6434H76.647H76.6506H76.6541H76.6577H76.6613H76.6648H76.6684H76.672H76.6755H76.6791H76.6827H76.6862H76.6898H76.6933H76.6969H76.7005H76.704H76.7076H76.7112H76.7147H76.7183H76.7218H76.7254H76.729H76.7325H76.7361H76.7396H76.7432H76.7468H76.7503H76.7539H76.7574H76.761H76.7645H76.7681H76.7717H76.7752H76.7788H76.7823H76.7859H76.7894H76.793H76.7965H76.8001H76.8036H76.8072H76.8107H76.8143H76.8178H76.8214H76.8249H76.8285H76.8321H76.8356H76.8392H76.8427H76.8463H76.8498H76.8533H76.8569H76.8604H76.864H76.8675H76.8711H76.8746H76.8782H76.8817H76.8853H76.8888H76.8924H76.8959H76.8995H76.903H76.9066H76.9101H76.9136H76.9172H76.9207H76.9243H76.9278H76.9314H76.9349H76.9384H76.942H76.9455H76.9491H76.9526H76.9562H76.9597H76.9632H76.9668H76.9703H76.9739H76.9774H76.9809H76.9845H76.988H76.9916H76.9951H76.9986H77.0022H77.0057H77.0093H77.0128H77.0163H77.0199H77.0234H77.027H77.0305H77.034H77.0376H77.0411H77.0447H77.0482H77.0517H77.0553H77.0588H77.0623H77.0659H77.0694H77.0729H77.0765H77.08H77.0836H77.0871H77.0906H77.0942H77.0977H77.1012H77.1048H77.1083H77.1118H77.1154H77.1189H77.1224H77.126H77.1295H77.1331H77.1366H77.1401H77.1437H77.1472H77.1507H77.1543H77.1578H77.1613H77.1649H77.1684H77.1719H77.1755H77.179H77.1825H77.1861H77.1896H77.1931H77.1967H77.2002H77.2037H77.2073H77.2108H77.2143H77.2179H77.2214H77.2249H77.2285H77.232H77.2355H77.2391H77.2426H77.2461H77.2497H77.2532H77.2567H77.2603H77.2638H77.2673H77.2709H77.2744H77.2779H77.2815H77.285H77.2885H77.2921H77.2956H77.2991H77.3027H77.3062H77.3097H77.3133H77.3168H77.3203H77.3239H77.3274H77.3309H77.3345H77.338H77.3415H77.3451H77.3486H77.3521H77.3557H77.3592H77.3627H77.3663H77.3698H77.3733H77.3769H77.3804H77.3839H77.3875H77.391H77.3945H77.3981H77.4016H77.4051H77.4087H77.4122H77.4158H77.4193H77.4228H77.4264H77.4299H77.4334H77.437H77.4405H77.444H77.4476H77.4511H77.4546H77.4582H77.4617H77.4653H77.4688H77.4723H77.4759H77.4794H77.4829H77.4865H77.49H77.4936H77.4971H77.5006H77.5042H77.5077H77.5112H77.5148H77.5183H77.5219H77.5254H77.5289H77.5325H77.536H77.5396H77.5431H77.5466H77.5502H77.5537H77.5573H77.5608H77.5643H77.5679H77.5714H77.575H77.5785H77.5821H77.5856H77.5891H77.5927H77.5962H77.5998H77.6033H77.6068H77.6104H77.6139H77.6175H77.621H77.6246H77.6281H77.6317H77.6352H77.6388H77.6423H77.6458H77.6494H77.6529H77.6565H77.66H77.6636H77.6671H77.6707H77.6742H77.6778H77.6813H77.6849H77.6884H77.692H77.6955H77.6991H77.7026H77.7062H77.7097H77.7133H77.7168H77.7204H77.7239H77.7275H77.731H77.7346H77.7381H77.7417H77.7452H77.7488H77.7524H77.7559H77.7595H77.763H77.7666H77.7701H77.7737H77.7772H77.7808H77.7844H77.7879H77.7915H77.795H77.7986H77.8021H77.8057H77.8093H77.8128H77.8164H77.8199H77.8235H77.8271H77.8306H77.8342H77.8378H77.8413H77.8449H77.8484H77.852H77.8556H77.8591H77.8627H77.8663H77.8698H77.8734H77.877H77.8805H77.8841H77.8877H77.8912H77.8948H77.8984H77.9019H77.9055H77.9091H77.9127H77.9162H77.9198H77.9234H77.9269H77.9305H77.9341H77.9377H77.9412H77.9448H77.9484H77.952H77.9555H77.9591H77.9627H77.9663H77.9699H77.9734H77.977H77.9806H77.9842H77.9877H77.9913H77.9949H77.9985H78.0021H78.0057H78.0092H78.0128H78.0164H78.02H78.0236H78.0272H78.0307H78.0343H78.0379H78.0415H78.0451H78.0487H78.0523H78.0559H78.0594H78.063H78.0666H78.0702H78.0738H78.0774H78.081H78.0846H78.0882H78.0918H78.0954H78.099H78.1026H78.1062H78.1098H78.1134H78.117H78.1206H78.1242H78.1278H78.1314H78.135H78.1386H78.1422H78.1458H78.1494H78.153H78.1566H78.1602H78.1638H78.1674H78.171H78.1746H78.1782H78.4861C78.6476 37.0205 78.9126 37.1121 79.1429 37.3154C79.3644 37.511 79.4998 37.7617 79.4998 38.0343V38.0379V38.0415V38.0452V38.0488V38.0524V38.0561V38.0597V38.0634V38.067V38.0707V38.0744V38.0781V38.0817V38.0854V38.0891V38.0928V38.0966V38.1003V38.104V38.1077V38.1115V38.1152V38.1189V38.1227V38.1265V38.1302V38.134V38.1378V38.1416V38.1453V38.1491V38.1529V38.1567V38.1605V38.1644V38.1682V38.172V38.1758V38.1797V38.1835V38.1874V38.1912V38.1951V38.199V38.2028V38.2067V38.2106V38.2145V38.2184V38.2223V38.2262V38.2301V38.234V38.2379V38.2418V38.2458V38.2497V38.2536V38.2576V38.2615V38.2655V38.2694V38.2734V38.2774V38.2813V38.2853V38.2893V38.2933V38.2973V38.3013V38.3053V38.3093V38.3133V38.3173V38.3213V38.3253V38.3294V38.3334V38.3374V38.3415V38.3455V38.3496V38.3536V38.3577V38.3618V38.3658V38.3699V38.374V38.378V38.3821V38.3862V38.3903V38.3944V38.3985V38.4026V38.4067V38.4108V38.415V38.4191V38.4232V38.4273V38.4315V38.4356V38.4398V38.4439V38.4481V38.4522V38.4564V38.4605V38.4647V38.4689V38.473V38.4772V38.4814V38.4856V38.4897V38.4939V38.4981V38.5023V38.5065V38.5107V38.5149V38.5191V38.5234V38.5276V38.5318V38.536V38.5402V38.5445V38.5487V38.5529V38.5572V38.5614V38.5657V38.5699V38.5742V38.5784V38.5827V38.587V38.5912V38.5955V38.5998V38.604V38.6083V38.6126V38.6169V38.6211V38.6254V38.6297V38.634V38.6383V38.6426V38.6469V38.6512V38.6555V38.6598V38.6641V38.6684V38.6728V38.6771V38.6814V38.6857V38.69V38.6944V38.6987V38.703V38.7074V38.7117V38.716V38.7204V38.7247V38.7291V38.7334V38.7378V38.7421V38.7465V38.7508V38.7552V38.7595V38.7639V38.7683V38.7726V38.777V38.7814V38.7857V38.7901V38.7945V38.7989V38.8032V38.8076V38.812V38.8164V38.8208V38.8251V38.8295V38.8339V38.8383V38.8427V38.8471V38.8515V38.8559V38.8603V38.8647V38.8691V38.8735V38.8779V38.8823V38.8867V38.8911V38.8955V38.8999V38.9043V38.9087V38.9132V38.9176V38.922V38.9264V38.9308V38.9352V38.9397V38.9441V38.9485V38.9529V38.9573V38.9618V38.9662V38.9706V38.975V38.9795V38.9839V38.9883V38.9927V38.9972V39.0016V39.006V39.0105V39.0149V39.0193V39.0237V39.0282V39.0326V39.037V39.0415V39.0459V39.0503V39.0548V39.0592V39.0636V39.0681V39.0725V39.0769V39.0814V39.0858V39.0903V39.0947V39.0991V39.1036V39.108V39.1124V39.1169V39.1213V39.1257V39.1302V39.1346V39.139V39.1435V39.1479V39.1523V39.1568V39.1612V39.1656V39.1701V39.1745V39.1789V39.1834V39.1878V39.1922V39.1966V39.2011V39.2055V39.2099V39.2144V39.2188V39.2232V39.2276V39.2321V39.2365V39.2409V39.2453V39.2498V39.2542V39.2586V39.263V39.2674V39.2718V39.2763V39.2807V39.2851V39.2895V39.2939V39.2983V39.3027V39.3071V39.3115V39.3159V39.3204V39.3248V39.3292V39.3336V39.338V39.3424V39.3467V39.3511V39.3555V39.3599V39.3643V39.3687V39.3731V39.3775V39.3819V39.3862V39.3906V39.395V39.3994V39.4038V39.4081V39.4125V39.4169V39.4212V39.4256V39.43V39.4343V39.4387V39.4431V39.4474V39.4518V39.4561V39.4605V39.4648V39.4692V39.4735V39.4779V39.4822V39.4865V39.4909V39.4952V39.4995V39.5039V39.5082V39.5125V39.5169V39.5212V39.5255V39.5298V39.5341V39.5384V39.5427V39.547V39.5513V39.5556V39.5599V39.5642V39.5685V39.5728V39.5771V39.5814V39.5857V39.5899V39.5942V39.5985V39.6028V39.607V39.6113V39.6156V39.6198V39.6241V39.6283V39.6326V39.6368V39.6411V39.6453V39.6495V39.6538V39.658V39.6622V39.6664V39.6707V39.6749V39.6791V39.6833V39.6875V39.6917V39.6959V39.7001V39.7043V39.7085V39.7127V39.7169V39.721V39.7252V39.7294V39.7336V39.7377V39.7419V39.746V39.7502V39.7543V39.7585V39.7626V39.7668V39.7709V39.775V39.7792V39.7833V39.7874V39.7915V39.7956V39.7997V39.8038V39.8079V39.812V39.8161V39.8202V39.8243V39.8284V39.8324V39.8365V39.8406V39.8446V39.8487V39.8527V39.8568V39.8608V39.8648V39.8689V39.8729V39.8769V39.881V39.885V39.889V39.893V39.897V39.901V39.905V39.909V39.9129V39.9169V39.9209V39.9249V39.9288V39.9328V39.9367V39.9407V39.9446V39.9486V39.9525V39.9564V39.9603V39.9643V39.9682V39.9721V39.976V39.9799V39.9838V39.9877V39.9915V39.9954V39.9993V40.0032V40.007V40.0109V40.0147V40.0186V40.0224V40.0262V40.0301V40.0339V40.0377V40.0415V40.0453V40.0491V40.0529V40.0567V40.0605V40.0642V40.068V40.0718V40.0755V40.0793V40.083V40.0868V40.0905V40.0942V40.098V40.1017V40.1054V40.1091V40.1128V40.1165V40.1202V40.1239V40.1275V40.1312V40.1349V40.1385V40.1422V40.1458V40.1495V40.1497L56.8691 59.1668Z" fill="#263238" stroke="white"/>
</svg>
