<svg width="173" height="157" viewBox="0 0 173 157" fill="none" xmlns="http://www.w3.org/2000/svg">
<path d="M76.1891 125.116L84.8876 67.5458L23.1007 73.0861" stroke="#263238" stroke-width="2.3576" stroke-miterlimit="10"/>
<path d="M70.6846 111.577C77.9339 107.642 87.1688 110.262 91.3097 117.434C95.4507 124.607 92.9267 133.61 85.6773 137.545C78.428 141.48 69.1931 138.859 65.0522 131.687C60.9112 124.515 63.4352 115.512 70.6846 111.577Z" fill="#80FFAF" stroke="#263238"/>
<path d="M76.5634 112.67C81.1258 112.656 85.5925 115.032 88.0123 119.224" stroke="#263238" stroke-width="1.4476" stroke-miterlimit="10" stroke-linecap="round" stroke-linejoin="round"/>
<path d="M16.2149 57.1848C24.788 52.5313 35.7086 55.6303 40.6053 64.1116C45.502 72.593 42.5176 83.2397 33.9445 87.8932C25.3714 92.5468 14.4509 89.4478 9.55416 80.9664C4.65745 72.4851 7.64188 61.8383 16.2149 57.1848Z" fill="#FFDB80" stroke="#263238"/>
<path d="M23.4198 58.4201C28.7848 58.4097 34.0346 61.1879 36.8873 66.1289" stroke="#263238" stroke-width="1.4476" stroke-miterlimit="10" stroke-linecap="round" stroke-linejoin="round"/>
<path d="M115.403 14.7408C120.888 11.7638 127.875 13.746 131.008 19.1731C134.142 24.6002 132.232 31.4119 126.747 34.3889C121.263 37.3658 114.276 35.3837 111.142 29.9566C108.009 24.5295 109.919 17.7178 115.403 14.7408Z" fill="#FFDB80" stroke="#263238"/>
<path d="M119.52 15.6484C123.002 15.6406 126.424 17.4408 128.28 20.6545" stroke="#263238" stroke-width="1.4476" stroke-miterlimit="10" stroke-linecap="round" stroke-linejoin="round"/>
<path d="M71.7827 50.851C82.3376 45.1217 95.782 48.9374 101.81 59.3785C107.838 69.8196 104.165 82.9271 93.6097 88.6564C83.0548 94.3856 69.6104 90.57 63.5822 80.1289C57.5541 69.6878 61.2279 56.5803 71.7827 50.851Z" fill="#FFDB80" stroke="#263238"/>
<path d="M80.9819 52.3052C87.5538 52.2905 93.9909 55.708 97.4775 61.747" stroke="#263238" stroke-width="1.4476" stroke-miterlimit="10" stroke-linecap="round" stroke-linejoin="round"/>
</svg>
