<svg width="74" height="68" viewBox="0 0 74 68" fill="none" xmlns="http://www.w3.org/2000/svg">
<ellipse cx="38" cy="52" rx="34.5" ry="11.5" fill="#D5EEFF"/>
<path d="M25 28.2917C26.6576 28.2917 28.2473 27.6332 29.4194 26.4611C30.5915 25.289 31.25 23.6993 31.25 22.0417C31.25 20.3841 30.5915 18.7944 29.4194 17.6223C28.2473 16.4502 26.6576 15.7917 25 15.7917C23.3424 15.7917 21.7527 16.4502 20.5806 17.6223C19.4085 18.7944 18.75 20.3841 18.75 22.0417C18.75 23.6993 19.4085 25.289 20.5806 26.4611C21.7527 27.6332 23.3424 28.2917 25 28.2917ZM30.2083 40.7917H19.7917V51.2084H30.2083V40.7917Z" fill="white" stroke="#D5EEFF" stroke-width="3" stroke-linejoin="round"/>
<path d="M39.2493 22.0417H56.2494V46H38.541" stroke="#D5EEFF" stroke-width="3" stroke-linecap="round" stroke-linejoin="round"/>
<path d="M25 28.2917C26.6576 28.2917 28.2473 27.6332 29.4194 26.4611C30.5915 25.289 31.25 23.6993 31.25 22.0417C31.25 20.3841 30.5915 18.7944 29.4194 17.6223C28.2473 16.4502 26.6576 15.7917 25 15.7917C23.3424 15.7917 21.7527 16.4502 20.5806 17.6223C19.4085 18.7944 18.75 20.3841 18.75 22.0417C18.75 23.6993 19.4085 25.289 20.5806 26.4611C21.7527 27.6332 23.3424 28.2917 25 28.2917ZM30.2083 40.7917H19.7917V51.2084H30.2083V40.7917Z" fill="white" stroke="#0593F5" stroke-width="2" stroke-linejoin="round"/>
<path d="M39.2493 22.0417H56.2494V46H38.541" stroke="#0593F5" stroke-width="2" stroke-linecap="round" stroke-linejoin="round"/>
</svg>
