<svg width="430" height="424" viewBox="0 0 430 424" fill="none" xmlns="http://www.w3.org/2000/svg">
<path d="M290.989 343.882C318.052 328.257 305.901 256.545 263.85 183.707C221.798 110.869 165.77 64.4883 138.707 80.1126C111.644 95.7369 123.795 167.45 165.847 240.287C207.898 313.125 263.927 359.506 290.989 343.882Z" stroke="#263238" stroke-width="1.2835" stroke-miterlimit="10" stroke-linecap="round" stroke-linejoin="round"/>
<path d="M214.882 268.528C298.988 268.527 367.168 243.193 367.168 211.944C367.167 180.695 298.986 155.363 214.881 155.364C130.776 155.365 62.5953 180.699 62.5957 211.948C62.5961 243.197 130.777 268.529 214.882 268.528Z" stroke="#263238" stroke-width="1.2835" stroke-miterlimit="10" stroke-linecap="round" stroke-linejoin="round"/>
<path d="M138.741 343.874C165.804 359.499 221.834 313.118 263.887 240.279C305.941 167.44 318.093 95.726 291.03 80.101C263.967 64.4761 207.936 110.857 165.883 183.696C123.829 256.535 111.677 328.249 138.741 343.874Z" stroke="#263238" stroke-width="1.2835" stroke-miterlimit="10" stroke-linecap="round" stroke-linejoin="round"/>
<path d="M204.543 229.896C214.434 235.607 227.082 232.218 232.793 222.327C238.504 212.436 235.115 199.788 225.223 194.077C215.332 188.366 202.684 191.755 196.973 201.647C191.263 211.538 194.652 224.186 204.543 229.896Z" fill="#FFDB80" stroke="#263238" stroke-width="1.2835" stroke-miterlimit="10" stroke-linecap="round" stroke-linejoin="round"/>
</svg>
