<svg width="27" height="31" viewBox="0 0 27 31" fill="none" xmlns="http://www.w3.org/2000/svg">
<path d="M13.0777 16.2119L4.37526 8.43066L3.67468 7.80371L4.37781 8.43359V23.7031H23.5354V8.43359L14.8279 16.2119C14.5776 16.4355 14.2697 16.5569 13.9528 16.5569C13.6359 16.5569 13.328 16.4355 13.0777 16.2119Z" fill="#D5EEFF"/>
<path d="M24.5544 5.1875H3.3588C2.90788 5.1875 2.54358 5.60645 2.54358 6.125V24.875C2.54358 25.3936 2.90788 25.8125 3.3588 25.8125H24.5544C25.0054 25.8125 25.3697 25.3936 25.3697 24.875V6.125C25.3697 5.60645 25.0054 5.1875 24.5544 5.1875ZM22.147 7.2998L13.9566 14.6211L5.76624 7.2998H22.147ZM23.5354 8.43359V23.7031H4.37782V8.43359L3.67469 7.80371L4.37527 8.43066L13.0777 16.2119C13.328 16.4355 13.6359 16.5569 13.9528 16.5569C14.2697 16.5569 14.5776 16.4355 14.8279 16.2119L23.5354 8.43359ZM23.5354 8.43359L24.2386 7.80371L23.2374 6.32422H23.2399L24.2411 7.80371L23.5354 8.43359Z" fill="#0593F5"/>
</svg>
