<svg width="60" height="60" viewBox="0 0 60 60" fill="none" xmlns="http://www.w3.org/2000/svg">
<rect x="1" y="1" width="58" height="58" fill="#0593F5"/>
<rect x="1" y="1" width="58" height="58" stroke="#00041A" stroke-width="2"/>
<g clip-path="url(#clip0_1502_3945)">
<path d="M23.5702 41.2929L16 48.8631V42V41H15H11V15.5H49V41H24.2773H23.8631L23.5702 41.2929Z" fill="white" stroke="#263238" stroke-width="2"/>
<mask id="path-3-outside-1_1502_3945" maskUnits="userSpaceOnUse" x="20" y="25" width="21" height="7" fill="black">
<rect fill="white" x="20" y="25" width="21" height="7"/>
<path d="M22.816 26.148C23.344 26.148 23.74 26.34 24.004 26.724C24.268 27.084 24.4 27.552 24.4 28.128C24.4 28.68 24.22 29.196 23.86 29.676C23.524 30.132 23.104 30.36 22.6 30.36C22.096 30.36 21.7 30.168 21.412 29.784C21.148 29.4 21.016 28.932 21.016 28.38C21.016 27.804 21.184 27.288 21.52 26.832C21.88 26.376 22.312 26.148 22.816 26.148ZM30.2691 26.148C30.7971 26.148 31.1931 26.34 31.4571 26.724C31.7211 27.084 31.8531 27.552 31.8531 28.128C31.8531 28.68 31.6731 29.196 31.3131 29.676C30.9771 30.132 30.5571 30.36 30.0531 30.36C29.5491 30.36 29.1531 30.168 28.8651 29.784C28.6011 29.4 28.4691 28.932 28.4691 28.38C28.4691 27.804 28.6371 27.288 28.9731 26.832C29.3331 26.376 29.7651 26.148 30.2691 26.148ZM37.7223 26.148C38.2503 26.148 38.6463 26.34 38.9103 26.724C39.1743 27.084 39.3063 27.552 39.3063 28.128C39.3063 28.68 39.1263 29.196 38.7663 29.676C38.4303 30.132 38.0103 30.36 37.5063 30.36C37.0023 30.36 36.6063 30.168 36.3183 29.784C36.0543 29.4 35.9223 28.932 35.9223 28.38C35.9223 27.804 36.0903 27.288 36.4263 26.832C36.7863 26.376 37.2183 26.148 37.7223 26.148Z"/>
</mask>
<path d="M22.816 26.148C23.344 26.148 23.74 26.34 24.004 26.724C24.268 27.084 24.4 27.552 24.4 28.128C24.4 28.68 24.22 29.196 23.86 29.676C23.524 30.132 23.104 30.36 22.6 30.36C22.096 30.36 21.7 30.168 21.412 29.784C21.148 29.4 21.016 28.932 21.016 28.38C21.016 27.804 21.184 27.288 21.52 26.832C21.88 26.376 22.312 26.148 22.816 26.148ZM30.2691 26.148C30.7971 26.148 31.1931 26.34 31.4571 26.724C31.7211 27.084 31.8531 27.552 31.8531 28.128C31.8531 28.68 31.6731 29.196 31.3131 29.676C30.9771 30.132 30.5571 30.36 30.0531 30.36C29.5491 30.36 29.1531 30.168 28.8651 29.784C28.6011 29.4 28.4691 28.932 28.4691 28.38C28.4691 27.804 28.6371 27.288 28.9731 26.832C29.3331 26.376 29.7651 26.148 30.2691 26.148ZM37.7223 26.148C38.2503 26.148 38.6463 26.34 38.9103 26.724C39.1743 27.084 39.3063 27.552 39.3063 28.128C39.3063 28.68 39.1263 29.196 38.7663 29.676C38.4303 30.132 38.0103 30.36 37.5063 30.36C37.0023 30.36 36.6063 30.168 36.3183 29.784C36.0543 29.4 35.9223 28.932 35.9223 28.38C35.9223 27.804 36.0903 27.288 36.4263 26.832C36.7863 26.376 37.2183 26.148 37.7223 26.148Z" fill="#263238"/>
<path d="M24.004 26.724L23.18 27.2905L23.1886 27.3031L23.1976 27.3154L24.004 26.724ZM23.86 29.676L23.06 29.076L23.0549 29.0828L23.86 29.676ZM21.412 29.784L20.588 30.3505L20.5996 30.3675L20.612 30.384L21.412 29.784ZM21.52 26.832L20.7351 26.2124L20.7248 26.2254L20.7149 26.2388L21.52 26.832ZM22.816 27.148C23.0657 27.148 23.1296 27.2173 23.18 27.2905L24.828 26.1575C24.3504 25.4627 23.6223 25.148 22.816 25.148V27.148ZM23.1976 27.3154C23.3036 27.4599 23.4 27.7029 23.4 28.128H25.4C25.4 27.4011 25.2324 26.7081 24.8104 26.1326L23.1976 27.3154ZM23.4 28.128C23.4 28.4445 23.3021 28.7532 23.06 29.076L24.66 30.276C25.1379 29.6388 25.4 28.9155 25.4 28.128H23.4ZM23.0549 29.0828C22.8806 29.3195 22.7435 29.36 22.6 29.36V31.36C23.4645 31.36 24.1674 30.9445 24.6651 30.2692L23.0549 29.0828ZM22.6 29.36C22.3924 29.36 22.3004 29.3018 22.212 29.184L20.612 30.384C21.0996 31.0342 21.7996 31.36 22.6 31.36V29.36ZM22.236 29.2175C22.1065 29.0291 22.016 28.7679 22.016 28.38H20.016C20.016 29.0961 20.1895 29.7709 20.588 30.3505L22.236 29.2175ZM22.016 28.38C22.016 28.0136 22.118 27.7062 22.3251 27.4252L20.7149 26.2388C20.25 26.8698 20.016 27.5944 20.016 28.38H22.016ZM22.3049 27.4516C22.5079 27.1945 22.6672 27.148 22.816 27.148V25.148C21.9568 25.148 21.2521 25.5575 20.7351 26.2124L22.3049 27.4516ZM31.4571 26.724L30.6331 27.2905L30.6417 27.3031L30.6507 27.3154L31.4571 26.724ZM31.3131 29.676L30.5131 29.076L30.5081 29.0828L31.3131 29.676ZM28.8651 29.784L28.0411 30.3505L28.0528 30.3675L28.0651 30.384L28.8651 29.784ZM28.9731 26.832L28.1882 26.2124L28.1779 26.2254L28.1681 26.2388L28.9731 26.832ZM30.2691 27.148C30.5188 27.148 30.5828 27.2173 30.6331 27.2905L32.2812 26.1575C31.8035 25.4627 31.0755 25.148 30.2691 25.148V27.148ZM30.6507 27.3154C30.7567 27.4599 30.8531 27.7029 30.8531 28.128H32.8531C32.8531 27.4011 32.6855 26.7081 32.2635 26.1326L30.6507 27.3154ZM30.8531 28.128C30.8531 28.4445 30.7553 28.7532 30.5131 29.076L32.1131 30.276C32.591 29.6388 32.8531 28.9155 32.8531 28.128H30.8531ZM30.5081 29.0828C30.3337 29.3195 30.1967 29.36 30.0531 29.36V31.36C30.9176 31.36 31.6206 30.9445 32.1182 30.2692L30.5081 29.0828ZM30.0531 29.36C29.8455 29.36 29.7535 29.3018 29.6651 29.184L28.0651 30.384C28.5528 31.0342 29.2528 31.36 30.0531 31.36V29.36ZM29.6892 29.2175C29.5596 29.0291 29.4691 28.7679 29.4691 28.38H27.4691C27.4691 29.0961 27.6426 29.7709 28.0411 30.3505L29.6892 29.2175ZM29.4691 28.38C29.4691 28.0136 29.5711 27.7062 29.7782 27.4252L28.1681 26.2388C27.7032 26.8698 27.4691 27.5944 27.4691 28.38H29.4691ZM29.758 27.4516C29.961 27.1945 30.1203 27.148 30.2691 27.148V25.148C29.41 25.148 28.7052 25.5575 28.1882 26.2124L29.758 27.4516ZM38.9102 26.724L38.0862 27.2905L38.0948 27.3031L38.1038 27.3154L38.9102 26.724ZM38.7663 29.676L37.9662 29.076L37.9612 29.0828L38.7663 29.676ZM36.3183 29.784L35.4942 30.3505L35.5059 30.3675L35.5182 30.384L36.3183 29.784ZM36.4263 26.832L35.6414 26.2124L35.6311 26.2254L35.6212 26.2388L36.4263 26.832ZM37.7222 27.148C37.9719 27.148 38.0359 27.2173 38.0862 27.2905L39.7343 26.1575C39.2566 25.4627 38.5286 25.148 37.7222 25.148V27.148ZM38.1038 27.3154C38.2099 27.4599 38.3062 27.7029 38.3062 28.128H40.3062C40.3062 27.4011 40.1386 26.7081 39.7167 26.1326L38.1038 27.3154ZM38.3062 28.128C38.3062 28.4445 38.2084 28.7532 37.9662 29.076L39.5662 30.276C40.0441 29.6388 40.3062 28.9155 40.3062 28.128H38.3062ZM37.9612 29.0828C37.7868 29.3195 37.6498 29.36 37.5063 29.36V31.36C38.3707 31.36 39.0737 30.9445 39.5713 30.2692L37.9612 29.0828ZM37.5063 29.36C37.2986 29.36 37.2066 29.3018 37.1182 29.184L35.5182 30.384C36.0059 31.0342 36.7059 31.36 37.5063 31.36V29.36ZM37.1423 29.2175C37.0128 29.0291 36.9223 28.7679 36.9223 28.38H34.9222C34.9222 29.0961 35.0957 29.7709 35.4942 30.3505L37.1423 29.2175ZM36.9223 28.38C36.9223 28.0136 37.0242 27.7062 37.2313 27.4252L35.6212 26.2388C35.1563 26.8698 34.9222 27.5944 34.9222 28.38H36.9223ZM37.2111 27.4516C37.4142 27.1945 37.5734 27.148 37.7222 27.148V25.148C36.8631 25.148 36.1583 25.5575 35.6414 26.2124L37.2111 27.4516Z" fill="#263238" mask="url(#path-3-outside-1_1502_3945)"/>
</g>
<defs>
<clipPath id="clip0_1502_3945">
<rect width="40" height="40" fill="white" transform="translate(10 10)"/>
</clipPath>
</defs>
</svg>
