<svg width="60" height="60" viewBox="0 0 60 60" fill="none" xmlns="http://www.w3.org/2000/svg">
<rect x="1" y="1" width="58" height="58" fill="#0593F5"/>
<rect x="1" y="1" width="58" height="58" stroke="#00041A" stroke-width="2"/>
<path fill-rule="evenodd" clip-rule="evenodd" d="M44.271 15.2104C44.7136 15.0241 45.1981 14.9598 45.674 15.0243C46.1499 15.0888 46.5998 15.2797 46.9769 15.577C47.354 15.8744 47.6445 16.2674 47.8182 16.7151C47.9918 17.1628 48.0423 17.6489 47.9644 18.1228L43.902 42.7637C43.508 45.1406 40.9001 46.5036 38.7202 45.3197C36.8968 44.3292 34.1886 42.8031 31.7526 41.2108C30.5347 40.4137 26.8037 37.8613 27.2622 36.0451C27.6563 34.4922 33.9253 28.6566 37.5076 25.1871C38.9137 23.8241 38.2724 23.0377 36.612 24.2915C32.4888 27.4046 25.8687 32.1386 23.6799 33.4712C21.749 34.6462 20.7424 34.8468 19.5388 34.6462C17.3428 34.2808 15.3063 33.7148 13.6441 33.0252C11.398 32.0938 11.5072 29.0059 13.6423 28.1067L44.271 15.2104Z" fill="white"/>
</svg>
