<svg width="60" height="60" viewBox="0 0 60 60" fill="none" xmlns="http://www.w3.org/2000/svg">
<rect x="1" y="1" width="58" height="58" fill="#0593F5"/>
<rect x="1" y="1" width="58" height="58" stroke="#00041A" stroke-width="2"/>
<path d="M30 12C39.9414 12 48 20.0586 48 30C48 39.9414 39.9414 48 30 48C26.819 48.0051 23.694 47.1633 20.946 45.561L12.0072 48L14.4408 39.0576C12.8372 36.3088 11.9947 33.1824 12 30C12 20.0586 20.0586 12 30 12ZM23.8656 21.54L23.5056 21.5544C23.2726 21.5686 23.0448 21.6298 22.836 21.7344C22.6408 21.845 22.4625 21.9832 22.3068 22.1448C22.0908 22.3482 21.9684 22.5246 21.837 22.6956C21.1712 23.5612 20.8128 24.624 20.8182 25.716C20.8218 26.598 21.0522 27.4566 21.4122 28.2594C22.1484 29.883 23.3598 31.602 24.9582 33.195C25.3434 33.5784 25.7214 33.9636 26.1282 34.3218C28.1143 36.0704 30.4811 37.3315 33.0402 38.0046L34.0626 38.1612C34.3956 38.1792 34.7286 38.154 35.0634 38.1378C35.5876 38.1107 36.0995 37.9688 36.5628 37.722C36.7985 37.6006 37.0286 37.4684 37.2522 37.326C37.2522 37.326 37.3296 37.2756 37.4772 37.164C37.7202 36.984 37.8696 36.8562 38.0712 36.6456C38.2206 36.4908 38.3502 36.309 38.4492 36.102C38.5896 35.8086 38.73 35.2488 38.7876 34.7826C38.8308 34.4262 38.8182 34.2318 38.8128 34.1112C38.8056 33.9186 38.6454 33.7188 38.4708 33.6342L37.4232 33.1644C37.4232 33.1644 35.8572 32.4822 34.8996 32.0466C34.7994 32.0028 34.692 31.9778 34.5828 31.9728C34.4597 31.9601 34.3352 31.974 34.2179 32.0134C34.1005 32.0529 33.9929 32.1169 33.9024 32.2014C33.8934 32.1978 33.7728 32.3004 32.4714 33.8772C32.3967 33.9776 32.2938 34.0534 32.1759 34.0951C32.0579 34.1368 31.9302 34.1424 31.809 34.1112C31.6918 34.0797 31.5769 34.04 31.4652 33.9924C31.242 33.8988 31.1646 33.8628 31.0116 33.798C29.9785 33.3472 29.0221 32.7381 28.1766 31.9926C27.9498 31.7946 27.7392 31.5786 27.5232 31.3698C26.8151 30.6916 26.1979 29.9244 25.6872 29.0874L25.581 28.9164C25.5047 28.8015 25.4431 28.6775 25.3974 28.5474C25.329 28.2828 25.5072 28.0704 25.5072 28.0704C25.5072 28.0704 25.9446 27.5916 26.148 27.3324C26.346 27.0804 26.5134 26.8356 26.6214 26.661C26.8338 26.319 26.9004 25.968 26.7888 25.6962C26.2848 24.465 25.7628 23.2392 25.2264 22.0224C25.1202 21.7812 24.8052 21.6084 24.519 21.5742C24.4218 21.5634 24.3246 21.5526 24.2274 21.5454C23.9857 21.5334 23.7435 21.5358 23.502 21.5526L23.8656 21.54Z" fill="white"/>
</svg>
