<svg width="74" height="68" viewBox="0 0 74 68" fill="none" xmlns="http://www.w3.org/2000/svg">
<ellipse cx="38" cy="52" rx="34.5" ry="11.5" fill="#D5EEFF"/>
<g clip-path="url(#clip0_542_215)">
<rect x="13.5" y="37.5" width="48" height="15" fill="white"/>
<path d="M62.75 23.5V13.5C62.75 13.1685 62.6183 12.8505 62.3839 12.6161C62.1495 12.3817 61.8315 12.25 61.5 12.25H51.5C51.1685 12.25 50.8505 12.3817 50.6161 12.6161C50.3817 12.8505 50.25 13.1685 50.25 13.5C50.25 13.8315 50.3817 14.1495 50.6161 14.3839C50.8505 14.6183 51.1685 14.75 51.5 14.75H60.25V23.5C60.25 23.8315 60.3817 24.1495 60.6161 24.3839C60.8505 24.6183 61.1685 24.75 61.5 24.75C61.8315 24.75 62.1495 24.6183 62.3839 24.3839C62.6183 24.1495 62.75 23.8315 62.75 23.5ZM23.5 52.25H14.75V43.5C14.75 43.1685 14.6183 42.8505 14.3839 42.6161C14.1495 42.3817 13.8315 42.25 13.5 42.25C13.1685 42.25 12.8505 42.3817 12.6161 42.6161C12.3817 42.8505 12.25 43.1685 12.25 43.5V53.5C12.25 53.8315 12.3817 54.1495 12.6161 54.3839C12.8505 54.6183 13.1685 54.75 13.5 54.75H23.5C23.8315 54.75 24.1495 54.6183 24.3839 54.3839C24.6183 54.1495 24.75 53.8315 24.75 53.5C24.75 53.1685 24.6183 52.8505 24.3839 52.6161C24.1495 52.3817 23.8315 52.25 23.5 52.25ZM61.5 42.25C61.1685 42.25 60.8505 42.3817 60.6161 42.6161C60.3817 42.8505 60.25 43.1685 60.25 43.5V52.25H51.5C51.1685 52.25 50.8505 52.3817 50.6161 52.6161C50.3817 52.8505 50.25 53.1685 50.25 53.5C50.25 53.8315 50.3817 54.1495 50.6161 54.3839C50.8505 54.6183 51.1685 54.75 51.5 54.75H61.5C61.8315 54.75 62.1495 54.6183 62.3839 54.3839C62.6183 54.1495 62.75 53.8315 62.75 53.5V43.5C62.75 43.1685 62.6183 42.8505 62.3839 42.6161C62.1495 42.3817 61.8315 42.25 61.5 42.25ZM13.5 24.75C13.8315 24.75 14.1495 24.6183 14.3839 24.3839C14.6183 24.1495 14.75 23.8315 14.75 23.5V14.75H23.5C23.8315 14.75 24.1495 14.6183 24.3839 14.3839C24.6183 14.1495 24.75 13.8315 24.75 13.5C24.75 13.1685 24.6183 12.8505 24.3839 12.6161C24.1495 12.3817 23.8315 12.25 23.5 12.25H13.5C13.1685 12.25 12.8505 12.3817 12.6161 12.6161C12.3817 12.8505 12.25 13.1685 12.25 13.5V23.5C12.25 23.8315 12.3817 24.1495 12.6161 24.3839C12.8505 24.6183 13.1685 24.75 13.5 24.75ZM25.5 22.25C25.1685 22.25 24.8505 22.3817 24.6161 22.6161C24.3817 22.8505 24.25 23.1685 24.25 23.5V43.5C24.25 43.8315 24.3817 44.1495 24.6161 44.3839C24.8505 44.6183 25.1685 44.75 25.5 44.75C25.8315 44.75 26.1495 44.6183 26.3839 44.3839C26.6183 44.1495 26.75 43.8315 26.75 43.5V23.5C26.75 23.1685 26.6183 22.8505 26.3839 22.6161C26.1495 22.3817 25.8315 22.25 25.5 22.25ZM50.75 23.5C50.75 23.1685 50.6183 22.8505 50.3839 22.6161C50.1495 22.3817 49.8315 22.25 49.5 22.25C49.1685 22.25 48.8505 22.3817 48.6161 22.6161C48.3817 22.8505 48.25 23.1685 48.25 23.5V43.5C48.25 43.8315 48.3817 44.1495 48.6161 44.3839C48.8505 44.6183 49.1685 44.75 49.5 44.75C49.8315 44.75 50.1495 44.6183 50.3839 44.3839C50.6183 44.1495 50.75 43.8315 50.75 43.5V23.5ZM41.5 22.25C41.1685 22.25 40.8505 22.3817 40.6161 22.6161C40.3817 22.8505 40.25 23.1685 40.25 23.5V43.5C40.25 43.8315 40.3817 44.1495 40.6161 44.3839C40.8505 44.6183 41.1685 44.75 41.5 44.75C41.8315 44.75 42.1495 44.6183 42.3839 44.3839C42.6183 44.1495 42.75 43.8315 42.75 43.5V23.5C42.75 23.1685 42.6183 22.8505 42.3839 22.6161C42.1495 22.3817 41.8315 22.25 41.5 22.25ZM33.5 22.25C33.1685 22.25 32.8505 22.3817 32.6161 22.6161C32.3817 22.8505 32.25 23.1685 32.25 23.5V43.5C32.25 43.8315 32.3817 44.1495 32.6161 44.3839C32.8505 44.6183 33.1685 44.75 33.5 44.75C33.8315 44.75 34.1495 44.6183 34.3839 44.3839C34.6183 44.1495 34.75 43.8315 34.75 43.5V23.5C34.75 23.1685 34.6183 22.8505 34.3839 22.6161C34.1495 22.3817 33.8315 22.25 33.5 22.25Z" fill="#0593F5" stroke="#D5EEFF" stroke-width="0.5"/>
</g>
<defs>
<clipPath id="clip0_542_215">
<rect width="50" height="50" fill="white" transform="translate(12.5 8.5)"/>
</clipPath>
</defs>
</svg>
