<svg width="327" height="336" viewBox="0 0 327 336" fill="none" xmlns="http://www.w3.org/2000/svg">
<path d="M154.308 154.284C148.024 160.421 147.882 170.484 154.011 176.762C160.131 183.032 170.193 183.148 176.486 177.001C182.771 170.864 182.913 160.801 176.784 154.523C170.645 148.253 160.593 148.147 154.308 154.284Z" fill="#80FFAF" stroke="#263238" stroke-width="0.5" stroke-miterlimit="10" stroke-linecap="round" stroke-linejoin="round"/>
<mask id="path-2-inside-1_285_4226" fill="white">
<path d="M245.599 119.813C242.444 116.58 237.261 116.525 234.021 119.689C233.36 120.335 232.854 121.083 232.458 121.869C227.247 119.81 221.674 117.996 215.795 116.426C207.073 80.3492 188.573 55.4004 166.851 55.1694C153.444 55.036 141.007 64.334 131.179 79.9189C113.336 75.446 97.9364 77.3135 88.3283 86.6967C84.0177 90.9064 81.2073 96.3361 79.7635 102.663C77.5231 102.51 75.2341 103.258 73.4931 104.958C70.2532 108.122 70.1846 113.305 73.34 116.538C74.8633 118.098 76.8562 118.891 78.8676 118.977C79.1633 122.335 79.7147 125.806 80.522 129.39C64.7004 138.854 55.11 151.068 54.9327 164.467C54.6459 186.155 79.1051 205.248 114.929 214.839C117.403 225.123 120.687 234.652 124.757 243.069C128.371 250.534 132.451 256.8 136.86 261.819C134.098 265.006 134.154 269.814 137.146 272.879C140.301 276.111 145.484 276.166 148.724 273.002C148.994 272.738 149.2 272.447 149.424 272.173C154.077 274.704 158.93 276.061 163.928 276.114C172.823 276.209 181.45 272.229 189.233 264.628C192.929 261.018 196.434 256.579 199.692 251.384C217.498 255.838 232.87 253.961 242.46 244.596C252.068 235.213 254.302 219.842 250.248 201.885C255.445 198.769 260.002 195.389 263.744 191.734C271.37 184.287 275.727 175.823 275.846 166.835C276.038 152.315 265.159 138.973 247.207 128.855C248.515 125.855 248.002 122.274 245.599 119.813ZM142.923 68.1411C150.185 61.0492 158.306 57.1098 166.833 57.2005C187.452 57.4198 205.085 81.2196 213.615 115.851C205.784 113.865 197.441 112.343 188.715 111.321C170.035 95.8378 150.499 85.2163 133.12 80.4543C136.142 75.6886 139.432 71.5507 142.923 68.1411ZM219.097 166.213C218.873 183.196 216.708 199.533 212.874 214.272C198.318 217.693 181.954 219.541 164.679 219.357C157.218 219.278 149.936 218.823 142.898 218.041C137.472 213.507 132.115 208.56 126.91 203.229C121.706 197.898 116.889 192.424 112.478 186.881C111.855 179.778 111.584 172.478 111.682 165.071C111.91 147.794 114.166 131.494 117.932 117.021C132.489 113.6 148.835 111.734 166.109 111.917C173.57 111.997 180.852 112.451 187.89 113.234C193.317 117.768 198.674 122.714 203.878 128.045C209.083 133.377 213.899 138.851 218.302 144.385C218.916 151.459 219.196 158.751 219.097 166.213ZM220.542 147.294C234.572 165.596 244.046 184.392 248.073 200.961C238.933 206.222 227.746 210.579 215.124 213.726C218.837 199.106 220.916 182.96 221.137 166.235C221.213 159.774 220.994 153.457 220.542 147.294ZM212.313 216.417C209.657 226.104 206.258 235.066 202.165 242.982C201.043 245.148 199.885 247.186 198.702 249.14C182.255 244.719 163.694 234.797 145.744 220.341C151.893 220.94 158.202 221.31 164.652 221.379C181.688 221.56 197.84 219.756 212.313 216.417ZM139.265 217.579C131.339 216.539 123.758 215.089 116.632 213.249C114.945 206.006 113.677 198.392 112.843 190.515C116.75 195.299 120.961 200.023 125.467 204.639C129.965 209.245 134.576 213.559 139.265 217.579ZM110.228 183.962C96.2163 165.678 86.751 146.892 82.7242 130.341C91.8735 125.071 103.06 120.696 115.729 117.54C112.056 131.922 109.895 148.02 109.67 165.04C109.566 171.454 109.768 177.771 110.228 183.962ZM118.504 114.83C121.96 102.238 126.591 91.1662 132.087 82.1345C148.534 86.5557 167.095 96.4775 185.044 110.933C178.895 110.335 172.586 109.964 166.136 109.896C149.109 109.724 132.967 111.501 118.504 114.83ZM191.514 113.704C199.432 114.735 207.012 116.204 214.129 118.035C215.798 125.203 217.076 132.809 217.908 140.759C213.992 135.984 209.8 131.261 205.293 126.645C200.824 122.029 196.203 117.725 191.514 113.704ZM80.7627 118.832C82.2738 118.535 83.7353 117.815 84.9177 116.661C88.1576 113.497 88.2262 108.313 85.0708 105.081C84.0916 104.078 82.9056 103.422 81.6701 103.032C83.0529 97.1462 85.7114 92.0825 89.7335 88.1547C98.7737 79.3261 113.262 77.5317 130.127 81.6541C124.507 91.0061 119.788 102.454 116.309 115.377C103.309 118.547 91.754 122.993 82.2721 128.388C81.5528 125.099 81.0345 121.904 80.7627 118.832ZM56.9542 164.489C57.067 155.96 61.1984 147.934 68.4603 140.842C71.9423 137.442 76.1658 134.261 80.9926 131.325C85.3379 148.816 95.4794 168.593 110.51 187.641C111.296 196.308 112.601 204.704 114.398 212.655C80.0316 203.291 56.6908 185.102 56.9542 164.489ZM163.955 274.092C159.343 274.043 154.828 272.791 150.494 270.457C151.811 267.483 151.289 263.893 148.886 261.432C146.048 258.525 141.595 258.211 138.358 260.465C134.075 255.594 130.112 249.486 126.579 242.197C122.705 234.205 119.544 225.173 117.145 215.451C124.976 217.437 133.328 218.969 142.064 219.981C160.744 235.464 180.261 246.086 197.641 250.848C187.956 266.02 176.204 274.214 163.955 274.092ZM241.055 243.138C232.033 251.949 217.59 253.753 200.772 249.658C201.862 247.832 202.935 245.913 203.963 243.911C208.264 235.574 211.808 226.108 214.553 215.88C227.525 212.7 239.044 208.273 248.507 202.877C252.225 219.856 250.095 234.31 241.055 243.138ZM273.825 166.795C273.658 179.404 264.656 190.917 249.777 199.95C245.432 182.458 235.282 162.672 220.251 143.624C219.448 134.865 218.115 126.496 216.317 118.619C221.766 120.101 226.935 121.802 231.772 123.7C231.158 126.332 231.837 129.207 233.859 131.278C237.014 134.51 242.197 134.565 245.437 131.401C245.734 131.11 245.968 130.791 246.211 130.481C263.526 140.187 273.999 152.946 273.825 166.795Z"/>
</mask>
<path d="M245.599 119.813C242.444 116.58 237.261 116.525 234.021 119.689C233.36 120.335 232.854 121.083 232.458 121.869C227.247 119.81 221.674 117.996 215.795 116.426C207.073 80.3492 188.573 55.4004 166.851 55.1694C153.444 55.036 141.007 64.334 131.179 79.9189C113.336 75.446 97.9364 77.3135 88.3283 86.6967C84.0177 90.9064 81.2073 96.3361 79.7635 102.663C77.5231 102.51 75.2341 103.258 73.4931 104.958C70.2532 108.122 70.1846 113.305 73.34 116.538C74.8633 118.098 76.8562 118.891 78.8676 118.977C79.1633 122.335 79.7147 125.806 80.522 129.39C64.7004 138.854 55.11 151.068 54.9327 164.467C54.6459 186.155 79.1051 205.248 114.929 214.839C117.403 225.123 120.687 234.652 124.757 243.069C128.371 250.534 132.451 256.8 136.86 261.819C134.098 265.006 134.154 269.814 137.146 272.879C140.301 276.111 145.484 276.166 148.724 273.002C148.994 272.738 149.2 272.447 149.424 272.173C154.077 274.704 158.93 276.061 163.928 276.114C172.823 276.209 181.45 272.229 189.233 264.628C192.929 261.018 196.434 256.579 199.692 251.384C217.498 255.838 232.87 253.961 242.46 244.596C252.068 235.213 254.302 219.842 250.248 201.885C255.445 198.769 260.002 195.389 263.744 191.734C271.37 184.287 275.727 175.823 275.846 166.835C276.038 152.315 265.159 138.973 247.207 128.855C248.515 125.855 248.002 122.274 245.599 119.813ZM142.923 68.1411C150.185 61.0492 158.306 57.1098 166.833 57.2005C187.452 57.4198 205.085 81.2196 213.615 115.851C205.784 113.865 197.441 112.343 188.715 111.321C170.035 95.8378 150.499 85.2163 133.12 80.4543C136.142 75.6886 139.432 71.5507 142.923 68.1411ZM219.097 166.213C218.873 183.196 216.708 199.533 212.874 214.272C198.318 217.693 181.954 219.541 164.679 219.357C157.218 219.278 149.936 218.823 142.898 218.041C137.472 213.507 132.115 208.56 126.91 203.229C121.706 197.898 116.889 192.424 112.478 186.881C111.855 179.778 111.584 172.478 111.682 165.071C111.91 147.794 114.166 131.494 117.932 117.021C132.489 113.6 148.835 111.734 166.109 111.917C173.57 111.997 180.852 112.451 187.89 113.234C193.317 117.768 198.674 122.714 203.878 128.045C209.083 133.377 213.899 138.851 218.302 144.385C218.916 151.459 219.196 158.751 219.097 166.213ZM220.542 147.294C234.572 165.596 244.046 184.392 248.073 200.961C238.933 206.222 227.746 210.579 215.124 213.726C218.837 199.106 220.916 182.96 221.137 166.235C221.213 159.774 220.994 153.457 220.542 147.294ZM212.313 216.417C209.657 226.104 206.258 235.066 202.165 242.982C201.043 245.148 199.885 247.186 198.702 249.14C182.255 244.719 163.694 234.797 145.744 220.341C151.893 220.94 158.202 221.31 164.652 221.379C181.688 221.56 197.84 219.756 212.313 216.417ZM139.265 217.579C131.339 216.539 123.758 215.089 116.632 213.249C114.945 206.006 113.677 198.392 112.843 190.515C116.75 195.299 120.961 200.023 125.467 204.639C129.965 209.245 134.576 213.559 139.265 217.579ZM110.228 183.962C96.2163 165.678 86.751 146.892 82.7242 130.341C91.8735 125.071 103.06 120.696 115.729 117.54C112.056 131.922 109.895 148.02 109.67 165.04C109.566 171.454 109.768 177.771 110.228 183.962ZM118.504 114.83C121.96 102.238 126.591 91.1662 132.087 82.1345C148.534 86.5557 167.095 96.4775 185.044 110.933C178.895 110.335 172.586 109.964 166.136 109.896C149.109 109.724 132.967 111.501 118.504 114.83ZM191.514 113.704C199.432 114.735 207.012 116.204 214.129 118.035C215.798 125.203 217.076 132.809 217.908 140.759C213.992 135.984 209.8 131.261 205.293 126.645C200.824 122.029 196.203 117.725 191.514 113.704ZM80.7627 118.832C82.2738 118.535 83.7353 117.815 84.9177 116.661C88.1576 113.497 88.2262 108.313 85.0708 105.081C84.0916 104.078 82.9056 103.422 81.6701 103.032C83.0529 97.1462 85.7114 92.0825 89.7335 88.1547C98.7737 79.3261 113.262 77.5317 130.127 81.6541C124.507 91.0061 119.788 102.454 116.309 115.377C103.309 118.547 91.754 122.993 82.2721 128.388C81.5528 125.099 81.0345 121.904 80.7627 118.832ZM56.9542 164.489C57.067 155.96 61.1984 147.934 68.4603 140.842C71.9423 137.442 76.1658 134.261 80.9926 131.325C85.3379 148.816 95.4794 168.593 110.51 187.641C111.296 196.308 112.601 204.704 114.398 212.655C80.0316 203.291 56.6908 185.102 56.9542 164.489ZM163.955 274.092C159.343 274.043 154.828 272.791 150.494 270.457C151.811 267.483 151.289 263.893 148.886 261.432C146.048 258.525 141.595 258.211 138.358 260.465C134.075 255.594 130.112 249.486 126.579 242.197C122.705 234.205 119.544 225.173 117.145 215.451C124.976 217.437 133.328 218.969 142.064 219.981C160.744 235.464 180.261 246.086 197.641 250.848C187.956 266.02 176.204 274.214 163.955 274.092ZM241.055 243.138C232.033 251.949 217.59 253.753 200.772 249.658C201.862 247.832 202.935 245.913 203.963 243.911C208.264 235.574 211.808 226.108 214.553 215.88C227.525 212.7 239.044 208.273 248.507 202.877C252.225 219.856 250.095 234.31 241.055 243.138ZM273.825 166.795C273.658 179.404 264.656 190.917 249.777 199.95C245.432 182.458 235.282 162.672 220.251 143.624C219.448 134.865 218.115 126.496 216.317 118.619C221.766 120.101 226.935 121.802 231.772 123.7C231.158 126.332 231.837 129.207 233.859 131.278C237.014 134.51 242.197 134.565 245.437 131.401C245.734 131.11 245.968 130.791 246.211 130.481C263.526 140.187 273.999 152.946 273.825 166.795Z" fill="#263238" stroke="white" mask="url(#path-2-inside-1_285_4226)"/>
<path d="M77.6076 102.258C81.9416 101.353 86.1882 104.134 87.0927 108.469C87.9972 112.804 85.2169 117.051 80.8829 117.955C76.5489 118.86 72.3023 116.079 71.3978 111.744C70.4933 107.409 73.2736 103.162 77.6076 102.258Z" fill="#FFDB80" stroke="#263238" stroke-width="0.5"/>
<path d="M238.634 118.531C242.968 117.626 247.215 120.407 248.119 124.742C249.024 129.077 246.243 133.324 241.909 134.228C237.575 135.133 233.329 132.352 232.424 128.017C231.52 123.682 234.3 119.435 238.634 118.531Z" fill="#FFDB80" stroke="#263238" stroke-width="0.5"/>
<path d="M140.99 259.561C145.324 258.656 149.571 261.437 150.476 265.772C151.38 270.107 148.6 274.354 144.266 275.258C139.932 276.163 135.685 273.382 134.781 269.047C133.876 264.712 136.656 260.465 140.99 259.561Z" fill="#FFDB80" stroke="#263238" stroke-width="0.5"/>
</svg>
