<svg width="60" height="55" viewBox="0 0 60 55" fill="none" xmlns="http://www.w3.org/2000/svg">
<ellipse cx="30" cy="43.8975" rx="25" ry="8.5" fill="#D5EEFF"/>
<g clip-path="url(#clip0_620_1282)">
<rect x="11.74" y="33.6973" width="35.52" height="10.5" fill="white"/>
<path d="M46.5649 24.5739L46.7367 24.3922L46.5649 24.5739C46.7515 24.7504 47.0018 24.8473 47.26 24.8473C47.5182 24.8473 47.7685 24.7504 47.9551 24.5739L47.7833 24.3922L47.9551 24.5739C48.1421 24.3969 48.25 24.1538 48.25 23.8973V16.8973C48.25 16.6407 48.1421 16.3976 47.9551 16.2207L47.9551 16.2207C47.7685 16.0442 47.5182 15.9473 47.26 15.9473H39.86C39.6018 15.9473 39.3515 16.0442 39.1649 16.2207C38.9779 16.3976 38.87 16.6407 38.87 16.8973C38.87 17.1538 38.9779 17.3969 39.1649 17.5739C39.3515 17.7504 39.6018 17.8473 39.86 17.8473H46.27V23.8973C46.27 24.1538 46.3779 24.3969 46.5649 24.5739ZM19.14 43.9473H12.73V37.8973C12.73 37.6407 12.6221 37.3976 12.4351 37.2207C12.2485 37.0442 11.9982 36.9473 11.74 36.9473C11.4818 36.9473 11.2315 37.0442 11.0449 37.2207C10.8579 37.3976 10.75 37.6407 10.75 37.8973V44.8973C10.75 45.1538 10.8579 45.3969 11.0449 45.5739C11.2315 45.7504 11.4818 45.8473 11.74 45.8473H19.14C19.3982 45.8473 19.6485 45.7504 19.8351 45.5739C20.0221 45.3969 20.13 45.1538 20.13 44.8973C20.13 44.6407 20.0221 44.3976 19.8351 44.2207C19.6485 44.0442 19.3982 43.9473 19.14 43.9473ZM47.26 36.9473C47.0018 36.9473 46.7515 37.0442 46.5649 37.2207C46.3779 37.3976 46.27 37.6407 46.27 37.8973V43.9473H39.86C39.6018 43.9473 39.3515 44.0442 39.1649 44.2207C38.9779 44.3976 38.87 44.6407 38.87 44.8973C38.87 45.1538 38.9779 45.3969 39.1649 45.5739C39.3515 45.7504 39.6018 45.8473 39.86 45.8473H47.26C47.5182 45.8473 47.7685 45.7504 47.9551 45.5739C48.1421 45.3969 48.25 45.1538 48.25 44.8973V37.8973C48.25 37.6407 48.1421 37.3976 47.9551 37.2207C47.7685 37.0442 47.5182 36.9473 47.26 36.9473ZM11.74 24.8473C11.9982 24.8473 12.2485 24.7504 12.4351 24.5739C12.6221 24.3969 12.73 24.1538 12.73 23.8973V17.8473H19.14C19.3982 17.8473 19.6485 17.7504 19.8351 17.5739C20.0221 17.3969 20.13 17.1538 20.13 16.8973C20.13 16.6407 20.0221 16.3976 19.8351 16.2207C19.6485 16.0442 19.3982 15.9473 19.14 15.9473H11.74C11.4818 15.9473 11.2315 16.0442 11.0449 16.2207C10.8579 16.3976 10.75 16.6407 10.75 16.8973V23.8973C10.75 24.1538 10.8579 24.3969 11.0449 24.5739C11.2315 24.7504 11.4818 24.8473 11.74 24.8473ZM20.62 22.9473C20.3618 22.9473 20.1115 23.0442 19.9249 23.2207C19.7379 23.3976 19.63 23.6407 19.63 23.8973V37.8973C19.63 38.1538 19.7379 38.3969 19.9249 38.5739C20.1115 38.7504 20.3618 38.8473 20.62 38.8473C20.8782 38.8473 21.1285 38.7504 21.3151 38.5739C21.5021 38.3969 21.61 38.1538 21.61 37.8973V23.8973C21.61 23.6407 21.5021 23.3976 21.3151 23.2207C21.1285 23.0442 20.8782 22.9473 20.62 22.9473ZM39.37 23.8973C39.37 23.6407 39.2621 23.3976 39.0751 23.2207C38.8885 23.0442 38.6382 22.9473 38.38 22.9473C38.1218 22.9473 37.8715 23.0442 37.6849 23.2207C37.4979 23.3976 37.39 23.6407 37.39 23.8973V37.8973C37.39 38.1538 37.4979 38.3969 37.6849 38.5739C37.8715 38.7504 38.1218 38.8473 38.38 38.8473C38.6382 38.8473 38.8885 38.7504 39.0751 38.5739C39.2621 38.3969 39.37 38.1538 39.37 37.8973V23.8973ZM32.46 22.9473C32.2018 22.9473 31.9515 23.0442 31.7649 23.2207C31.5779 23.3976 31.47 23.6407 31.47 23.8973V37.8973C31.47 38.1538 31.5779 38.3969 31.7649 38.5739C31.9515 38.7504 32.2018 38.8473 32.46 38.8473C32.7182 38.8473 32.9685 38.7504 33.1551 38.5739C33.3421 38.3969 33.45 38.1538 33.45 37.8973V23.8973C33.45 23.6407 33.3421 23.3976 33.1551 23.2207C32.9685 23.0442 32.7182 22.9473 32.46 22.9473ZM26.54 22.9473C26.2818 22.9473 26.0315 23.0442 25.8449 23.2207C25.6579 23.3976 25.55 23.6407 25.55 23.8973V37.8973C25.55 38.1538 25.6579 38.3969 25.8449 38.5739C26.0315 38.7504 26.2818 38.8473 26.54 38.8473C26.7982 38.8473 27.0485 38.7504 27.2351 38.5739C27.4221 38.3969 27.53 38.1538 27.53 37.8973V23.8973C27.53 23.6407 27.4221 23.3976 27.2351 23.2207C27.0485 23.0442 26.7982 22.9473 26.54 22.9473Z" fill="#0593F5" stroke="#D5EEFF" stroke-width="0.5"/>
</g>
<defs>
<clipPath id="clip0_620_1282">
<rect width="37" height="35" fill="white" transform="translate(11 13.3975)"/>
</clipPath>
</defs>
</svg>
