<svg width="60" height="56" viewBox="0 0 60 56" fill="none" xmlns="http://www.w3.org/2000/svg">
<ellipse cx="29.5" cy="38" rx="21.5" ry="7" fill="#D5EEFF"/>
<path d="M29.8839 9.11612C29.3957 8.62796 28.6043 8.62796 28.1161 9.11612L20.1612 17.0711C19.673 17.5592 19.673 18.3507 20.1612 18.8388C20.6493 19.327 21.4408 19.327 21.9289 18.8388L29 11.7678L36.0711 18.8388C36.5592 19.327 37.3507 19.327 37.8388 18.8388C38.327 18.3507 38.327 17.5592 37.8388 17.0711L29.8839 9.11612ZM30.25 42L30.25 10H27.75L27.75 42H30.25Z" fill="#D5EEFF"/>
<path d="M29.7071 9.29289C29.3166 8.90237 28.6834 8.90237 28.2929 9.29289L21.9289 15.6569C21.5384 16.0474 21.5384 16.6805 21.9289 17.0711C22.3195 17.4616 22.9526 17.4616 23.3431 17.0711L29 11.4142L34.6569 17.0711C35.0474 17.4616 35.6805 17.4616 36.0711 17.0711C36.4616 16.6805 36.4616 16.0474 36.0711 15.6569L29.7071 9.29289ZM30 42L30 10H28L28 42H30Z" fill="#0593F5"/>
</svg>
