<svg width="60" height="56" viewBox="0 0 60 56" fill="none" xmlns="http://www.w3.org/2000/svg">
<ellipse cx="29.5" cy="39.4658" rx="23.5" ry="8" fill="#D5EEFF"/>
<g clip-path="url(#clip0_620_604)">
<path d="M42.3577 10.6797H15.6434C14.9993 10.6797 14.3816 10.9356 13.9262 11.391C13.4707 11.8464 13.2148 12.4642 13.2148 13.1083V39.8225C13.2148 40.4666 13.4707 41.0844 13.9262 41.5398C14.3816 41.9952 14.9993 42.2511 15.6434 42.2511H42.3577C43.0018 42.2511 43.6195 41.9952 44.075 41.5398C44.5304 41.0844 44.7863 40.4666 44.7863 39.8225V13.1083C44.7863 12.4642 44.5304 11.8464 44.075 11.391C43.6195 10.9356 43.0018 10.6797 42.3577 10.6797Z" fill="white" stroke="#D5EEFF" stroke-width="3" stroke-linecap="round" stroke-linejoin="round"/>
<path d="M29.0012 10.6797V15.8574C28.4771 15.3886 27.8284 15.0814 27.1336 14.9731C26.4387 14.8648 25.7274 14.96 25.0854 15.2471C24.4434 15.5341 23.8983 16.0009 23.5158 16.591C23.1332 17.1811 22.9297 17.8693 22.9297 18.5725C22.9297 19.2758 23.1332 19.964 23.5158 20.5541C23.8983 21.1442 24.4434 21.6109 25.0854 21.898C25.7274 22.1851 26.4387 22.2802 27.1336 22.1719C27.8284 22.0636 28.4771 21.7565 29.0012 21.2877V31.6431C29.5254 31.1743 30.174 30.8672 30.8688 30.7589C31.5637 30.6506 32.275 30.7457 32.917 31.0328C33.559 31.3199 34.1041 31.7866 34.4867 32.3767C34.8692 32.9668 35.0727 33.655 35.0727 34.3583C35.0727 35.0615 34.8692 35.7497 34.4867 36.3398C34.1041 36.9299 33.559 37.3967 32.917 37.6837C32.275 37.9708 31.5637 38.066 30.8688 37.9577C30.174 37.8493 29.5254 37.5422 29.0012 37.0734V42.2511" fill="white"/>
<path d="M29.0012 10.6797V15.8574C28.4771 15.3886 27.8284 15.0815 27.1336 14.9731C26.4387 14.8648 25.7274 14.96 25.0854 15.2471C24.4434 15.5341 23.8983 16.0009 23.5158 16.591C23.1332 17.1811 22.9297 17.8693 22.9297 18.5725C22.9297 19.2758 23.1332 19.964 23.5158 20.5541C23.8983 21.1442 24.4434 21.6109 25.0854 21.898C25.7274 22.1851 26.4387 22.2802 27.1336 22.1719C27.8284 22.0636 28.4771 21.7565 29.0012 21.2877V31.6431C29.5254 31.1743 30.174 30.8672 30.8688 30.7589C31.5637 30.6506 32.275 30.7457 32.917 31.0328C33.559 31.3199 34.1041 31.7866 34.4867 32.3767C34.8692 32.9668 35.0727 33.655 35.0727 34.3583C35.0727 35.0615 34.8692 35.7497 34.4867 36.3398C34.1041 36.9299 33.559 37.3967 32.917 37.6837C32.275 37.9708 31.5637 38.066 30.8688 37.9577C30.174 37.8493 29.5254 37.5422 29.0012 37.0734V42.2511" stroke="#D5EEFF" stroke-width="3" stroke-linecap="round" stroke-linejoin="round"/>
<path d="M13.2148 26.4651H18.3926C17.9237 26.9892 17.6166 27.6379 17.5083 28.3327C17.4 29.0276 17.4951 29.7389 17.7822 30.3809C18.0693 31.0228 18.5361 31.568 19.1262 31.9505C19.7163 32.333 20.4045 32.5366 21.1077 32.5366C21.8109 32.5366 22.4991 32.333 23.0892 31.9505C23.6793 31.568 24.1461 31.0228 24.4332 30.3809C24.7203 29.7389 24.8154 29.0276 24.7071 28.3327C24.5988 27.6379 24.2917 26.9892 23.8228 26.4651H34.1783C33.7094 25.9409 33.4023 25.2923 33.294 24.5974C33.1857 23.9026 33.2808 23.1912 33.5679 22.5493C33.855 21.9073 34.3218 21.3622 34.9119 20.9796C35.502 20.5971 36.1902 20.3936 36.8934 20.3936C37.5966 20.3936 38.2849 20.5971 38.875 20.9796C39.465 21.3622 39.9318 21.9073 40.2189 22.5493C40.506 23.1912 40.6011 23.9026 40.4928 24.5974C40.3845 25.2923 40.0774 25.9409 39.6086 26.4651H44.7863" fill="white"/>
<path d="M13.2148 26.4651H18.3926C17.9237 26.9892 17.6166 27.6379 17.5083 28.3327C17.4 29.0276 17.4951 29.7389 17.7822 30.3809C18.0693 31.0228 18.5361 31.568 19.1262 31.9505C19.7163 32.333 20.4045 32.5366 21.1077 32.5366C21.8109 32.5366 22.4991 32.333 23.0892 31.9505C23.6793 31.568 24.1461 31.0228 24.4332 30.3809C24.7203 29.7389 24.8154 29.0276 24.7071 28.3327C24.5988 27.6379 24.2917 26.9892 23.8228 26.4651H34.1783C33.7094 25.9409 33.4023 25.2923 33.294 24.5974C33.1857 23.9026 33.2808 23.1912 33.5679 22.5493C33.855 21.9073 34.3218 21.3622 34.9119 20.9796C35.502 20.5971 36.1902 20.3936 36.8934 20.3936C37.5966 20.3936 38.2849 20.5971 38.875 20.9796C39.465 21.3622 39.9318 21.9073 40.2189 22.5493C40.506 23.1912 40.6011 23.9026 40.4928 24.5974C40.3845 25.2923 40.0774 25.9409 39.6086 26.4651H44.7863" stroke="#D5EEFF" stroke-width="3" stroke-linecap="round" stroke-linejoin="round"/>
<path d="M42.3577 10.6797H15.6434C14.9993 10.6797 14.3816 10.9356 13.9262 11.391C13.4707 11.8464 13.2148 12.4642 13.2148 13.1083V39.8225C13.2148 40.4666 13.4707 41.0844 13.9262 41.5398C14.3816 41.9952 14.9993 42.2511 15.6434 42.2511H42.3577C43.0018 42.2511 43.6195 41.9952 44.075 41.5398C44.5304 41.0844 44.7863 40.4666 44.7863 39.8225V13.1083C44.7863 12.4642 44.5304 11.8464 44.075 11.391C43.6195 10.9356 43.0018 10.6797 42.3577 10.6797Z" fill="white" stroke="#0593F5" stroke-width="2" stroke-linecap="round" stroke-linejoin="round"/>
<path d="M29.0012 10.6797V15.8574C28.4771 15.3886 27.8284 15.0814 27.1336 14.9731C26.4387 14.8648 25.7274 14.96 25.0854 15.2471C24.4434 15.5341 23.8983 16.0009 23.5158 16.591C23.1332 17.1811 22.9297 17.8693 22.9297 18.5725C22.9297 19.2758 23.1332 19.964 23.5158 20.5541C23.8983 21.1442 24.4434 21.6109 25.0854 21.898C25.7274 22.1851 26.4387 22.2802 27.1336 22.1719C27.8284 22.0636 28.4771 21.7565 29.0012 21.2877V31.6431C29.5254 31.1743 30.174 30.8672 30.8688 30.7589C31.5637 30.6506 32.275 30.7457 32.917 31.0328C33.559 31.3199 34.1041 31.7866 34.4867 32.3767C34.8692 32.9668 35.0727 33.655 35.0727 34.3583C35.0727 35.0615 34.8692 35.7497 34.4867 36.3398C34.1041 36.9299 33.559 37.3967 32.917 37.6837C32.275 37.9708 31.5637 38.066 30.8688 37.9577C30.174 37.8493 29.5254 37.5422 29.0012 37.0734V42.2511" fill="white"/>
<path d="M29.0012 10.6797V15.8574C28.4771 15.3886 27.8284 15.0815 27.1336 14.9731C26.4387 14.8648 25.7274 14.96 25.0854 15.2471C24.4434 15.5341 23.8983 16.0009 23.5158 16.591C23.1332 17.1811 22.9297 17.8693 22.9297 18.5725C22.9297 19.2758 23.1332 19.964 23.5158 20.5541C23.8983 21.1442 24.4434 21.6109 25.0854 21.898C25.7274 22.1851 26.4387 22.2802 27.1336 22.1719C27.8284 22.0636 28.4771 21.7565 29.0012 21.2877V31.6431C29.5254 31.1743 30.174 30.8672 30.8688 30.7589C31.5637 30.6506 32.275 30.7457 32.917 31.0328C33.559 31.3199 34.1041 31.7866 34.4867 32.3767C34.8692 32.9668 35.0727 33.655 35.0727 34.3583C35.0727 35.0615 34.8692 35.7497 34.4867 36.3398C34.1041 36.9299 33.559 37.3967 32.917 37.6837C32.275 37.9708 31.5637 38.066 30.8688 37.9577C30.174 37.8493 29.5254 37.5422 29.0012 37.0734V42.2511" stroke="#0593F5" stroke-width="2" stroke-linecap="round" stroke-linejoin="round"/>
<path d="M13.2148 26.4651H18.3926C17.9237 26.9892 17.6166 27.6379 17.5083 28.3327C17.4 29.0276 17.4951 29.7389 17.7822 30.3809C18.0693 31.0228 18.5361 31.568 19.1262 31.9505C19.7163 32.333 20.4045 32.5366 21.1077 32.5366C21.8109 32.5366 22.4991 32.333 23.0892 31.9505C23.6793 31.568 24.1461 31.0228 24.4332 30.3809C24.7203 29.7389 24.8154 29.0276 24.7071 28.3327C24.5988 27.6379 24.2917 26.9892 23.8228 26.4651H34.1783C33.7094 25.9409 33.4023 25.2923 33.294 24.5974C33.1857 23.9026 33.2808 23.1912 33.5679 22.5493C33.855 21.9073 34.3218 21.3622 34.9119 20.9796C35.502 20.5971 36.1902 20.3936 36.8934 20.3936C37.5966 20.3936 38.2849 20.5971 38.875 20.9796C39.465 21.3622 39.9318 21.9073 40.2189 22.5493C40.506 23.1912 40.6011 23.9026 40.4928 24.5974C40.3845 25.2923 40.0774 25.9409 39.6086 26.4651H44.7863" fill="white"/>
<path d="M13.2148 26.4651H18.3926C17.9237 26.9892 17.6166 27.6379 17.5083 28.3327C17.4 29.0276 17.4951 29.7389 17.7822 30.3809C18.0693 31.0228 18.5361 31.568 19.1262 31.9505C19.7163 32.333 20.4045 32.5366 21.1077 32.5366C21.8109 32.5366 22.4991 32.333 23.0892 31.9505C23.6793 31.568 24.1461 31.0228 24.4332 30.3809C24.7203 29.7389 24.8154 29.0276 24.7071 28.3327C24.5988 27.6379 24.2917 26.9892 23.8228 26.4651H34.1783C33.7094 25.9409 33.4023 25.2923 33.294 24.5974C33.1857 23.9026 33.2808 23.1912 33.5679 22.5493C33.855 21.9073 34.3218 21.3622 34.9119 20.9796C35.502 20.5971 36.1902 20.3936 36.8934 20.3936C37.5966 20.3936 38.2849 20.5971 38.875 20.9796C39.465 21.3622 39.9318 21.9073 40.2189 22.5493C40.506 23.1912 40.6011 23.9026 40.4928 24.5974C40.3845 25.2923 40.0774 25.9409 39.6086 26.4651H44.7863" stroke="#0593F5" stroke-width="2" stroke-linecap="round" stroke-linejoin="round"/>
</g>
<defs>
<clipPath id="clip0_620_604">
<rect width="34" height="34" fill="white" transform="translate(12 9.46582)"/>
</clipPath>
</defs>
</svg>
