<svg width="50" height="50" viewBox="0 0 50 50" fill="none" xmlns="http://www.w3.org/2000/svg">
<rect x="6" y="32" width="37" height="16" fill="white"/>
<path d="M35.7612 44.8306L35.9378 45.0062L36.1141 44.8303L47.3387 33.6297L49.1827 35.4738L35.9377 48.7426L29.7233 42.5052L31.5679 40.6607L35.7612 44.8306ZM43.5 31.1464L40.875 33.7714V15.625V15.375H40.625H28.375V3.125V2.875H28.125H6.25H6V3.125V46.875V47.125H6.25H27.875V49.75H3.375V0.25H30.2431L43.5 13.5069V31.1464ZM31 12.5V12.75H31.25H38.4033H39.0069L38.5801 12.3232L31.4268 5.1699L31 4.74313V5.34668V12.5Z" fill="#0593F5" stroke="#D5EEFF" stroke-width="0.5"/>
</svg>
