<svg width="50" height="50" viewBox="0 0 50 50" fill="none" xmlns="http://www.w3.org/2000/svg">
<path d="M12.5 19.7916C14.1576 19.7916 15.7473 19.1331 16.9194 17.961C18.0915 16.7889 18.75 15.1992 18.75 13.5416C18.75 11.884 18.0915 10.2943 16.9194 9.12221C15.7473 7.95011 14.1576 7.29163 12.5 7.29163C10.8424 7.29163 9.25269 7.95011 8.08058 9.12221C6.90848 10.2943 6.25 11.884 6.25 13.5416C6.25 15.1992 6.90848 16.7889 8.08058 17.961C9.25269 19.1331 10.8424 19.7916 12.5 19.7916ZM17.7083 32.2916H7.29167V42.7083H17.7083V32.2916Z" fill="white" stroke="#D5EEFF" stroke-width="3" stroke-linejoin="round"/>
<path d="M26.7493 13.5416H43.7494V37.5H26.041" stroke="#D5EEFF" stroke-width="3" stroke-linecap="round" stroke-linejoin="round"/>
<path d="M12.5 19.7916C14.1576 19.7916 15.7473 19.1331 16.9194 17.961C18.0915 16.7889 18.75 15.1992 18.75 13.5416C18.75 11.884 18.0915 10.2943 16.9194 9.12221C15.7473 7.95011 14.1576 7.29163 12.5 7.29163C10.8424 7.29163 9.25269 7.95011 8.08058 9.12221C6.90848 10.2943 6.25 11.884 6.25 13.5416C6.25 15.1992 6.90848 16.7889 8.08058 17.961C9.25269 19.1331 10.8424 19.7916 12.5 19.7916ZM17.7083 32.2916H7.29167V42.7083H17.7083V32.2916Z" fill="white" stroke="#0593F5" stroke-width="2" stroke-linejoin="round"/>
<path d="M26.7493 13.5416H43.7494V37.5H26.041" stroke="#0593F5" stroke-width="2" stroke-linecap="round" stroke-linejoin="round"/>
</svg>
