<svg width="51" height="51" viewBox="0 0 51 51" fill="none" xmlns="http://www.w3.org/2000/svg">
<g clip-path="url(#clip0_445_4700)">
<rect x="7" y="23" width="37" height="14" fill="white"/>
<rect x="21" y="30" width="9" height="18" fill="white"/>
<rect x="11" y="32.2401" width="9" height="18" transform="rotate(-53.5576 11 32.2401)" fill="white"/>
<rect x="23.0322" y="42.1107" width="9" height="18" transform="rotate(-116.618 23.0322 42.1107)" fill="white"/>
<path d="M18.8679 42.8992L18.8075 42.4668L18.4017 42.3058C16.8658 41.6963 15.5389 40.8639 14.2398 39.8646L13.899 39.6024L13.5006 39.764L7.11769 42.3531C6.86221 42.4404 6.58427 42.3298 6.47523 42.1298L6.47079 42.1217L6.46614 42.1137L1.32699 33.2229L1.32703 33.2229L1.32248 33.2152C1.25832 33.1072 1.2357 32.9795 1.25885 32.8561C1.28201 32.7326 1.34934 32.6218 1.44828 32.5443L1.44975 32.5432L6.87155 28.2777L7.18453 28.0315L7.15587 27.6343L6.97984 25.1949L7.15598 22.6785L7.18402 22.2781L6.86632 22.0326L1.44827 17.8472C1.44779 17.8468 1.44731 17.8464 1.44683 17.846C1.34869 17.7686 1.28189 17.6583 1.25885 17.5354C1.2357 17.412 1.25832 17.2843 1.32248 17.1763L1.32253 17.1763L1.32699 17.1686L6.46614 8.27784L6.47079 8.2698L6.47523 8.26165C6.59879 8.03512 6.88501 7.9433 7.10027 8.03138L7.10474 8.03317L13.503 10.6027L13.8948 10.7601L14.2325 10.5068C15.5364 9.52885 16.8651 8.69549 18.4017 8.08571L18.8075 7.92469L18.8679 7.49231L19.8169 0.694919C19.8624 0.445044 20.086 0.25 20.3606 0.25H30.6389C30.9135 0.25 31.1371 0.445045 31.1826 0.694919L32.1316 7.49231L32.192 7.92469L32.5978 8.08571C34.1344 8.69549 35.4631 9.52885 36.767 10.5068L37.1048 10.7601L37.4965 10.6027L43.8948 8.03319L43.8992 8.03136C44.1145 7.9433 44.4007 8.03512 44.5243 8.26165L44.5287 8.2698L44.5334 8.27784L49.6725 17.1686L49.6725 17.1686L49.6762 17.1748C49.8114 17.4037 49.7543 17.685 49.5512 17.8472C49.5504 17.8478 49.5496 17.8485 49.5488 17.8491L44.1332 22.0326L43.8155 22.2781L43.8435 22.6785L44.0197 25.1957L43.8435 27.713L43.8155 28.1134L44.1332 28.3588L49.5488 32.5424C49.5496 32.5431 49.5504 32.5437 49.5513 32.5444C49.7543 32.7066 49.8114 32.9878 49.6761 33.2167L49.6761 33.2167L49.6725 33.2229L44.5334 42.1137L44.5287 42.1217L44.5243 42.1298C44.4007 42.3564 44.1145 42.4482 43.8992 42.3601L43.8948 42.3583L37.4965 39.7887L37.1048 39.6314L36.767 39.8847C35.4631 40.8626 34.1344 41.696 32.5978 42.3058L32.192 42.4668L32.1316 42.8992L31.1826 49.6966C31.1371 49.9464 30.9135 50.1415 30.6389 50.1415H20.3606C20.086 50.1415 19.8624 49.9465 19.8169 49.6966L18.8679 42.8992ZM23.5726 3.88915H22.9214L22.83 4.53388L21.9518 10.7289C19.1028 11.4294 16.5702 12.9473 14.6385 15.0175L8.94051 12.5586L8.3274 12.294L7.9937 12.8724L6.06652 16.2129L5.73095 16.7945L6.27214 17.1921L11.2584 20.855C10.4033 23.6856 10.4033 26.7063 11.2585 29.5369L6.24596 33.2254L5.70552 33.6231L6.04083 34.2043L7.96801 37.5448L8.3007 38.1214L8.91274 37.8595L14.6657 35.3973C16.5906 37.4419 19.0982 38.9586 21.9262 39.6399L22.8042 45.8572L22.8953 46.5023H23.5469H27.4526H28.1038L28.1952 45.8576L29.0736 39.6615C31.8999 38.9602 34.4078 37.4432 36.3339 35.3973L42.0868 37.8595L42.6988 38.1214L43.0315 37.5448L44.9587 34.2043L45.295 33.6213L44.7517 33.2241L39.7411 29.5607C40.5963 26.7222 40.5962 23.6937 39.7408 20.8553L44.7274 17.1921L45.2686 16.7945L44.933 16.2129L43.0058 12.8724L42.6721 12.294L42.059 12.5586L36.3614 15.0173C34.3957 12.9079 31.8516 11.4239 29.0475 10.7514L28.1696 4.53427L28.0785 3.88915H27.4269H23.5726ZM25.4998 15.6674C28.0268 15.6674 30.4504 16.6713 32.2373 18.4582C34.0242 20.2451 35.028 22.6687 35.028 25.1957C35.028 27.7228 34.0242 30.1464 32.2373 31.9333C30.4504 33.7202 28.0268 34.724 25.4998 34.724C22.9727 34.724 20.5491 33.7202 18.7622 31.9333C16.9753 30.1464 15.9715 27.7228 15.9715 25.1957C15.9715 22.6687 16.9753 20.2451 18.7622 18.4582C20.5491 16.6713 22.9727 15.6674 25.4998 15.6674ZM25.4998 19.3066C23.9379 19.3066 22.4399 19.9271 21.3355 21.0315C20.2311 22.1359 19.6106 23.6339 19.6106 25.1957C19.6106 26.7576 20.2311 28.2556 21.3355 29.36C22.4399 30.4644 23.9379 31.0849 25.4998 31.0849C27.0617 31.0849 28.5596 30.4644 29.664 29.36C30.7684 28.2556 31.3889 26.7576 31.3889 25.1957C31.3889 23.6339 30.7684 22.1359 29.664 21.0315C28.5596 19.9271 27.0617 19.3066 25.4998 19.3066Z" fill="#0593F5" stroke="#D5EEFF" stroke-width="1.5"/>
</g>
<defs>
<clipPath id="clip0_445_4700">
<rect width="50" height="50" fill="white" transform="translate(0.5 0.5)"/>
</clipPath>
</defs>
</svg>
