<svg width="50" height="50" viewBox="0 0 50 50" fill="none" xmlns="http://www.w3.org/2000/svg">
<g clip-path="url(#clip0_445_4708)">
<path d="M44.6423 1.78564H5.35658C4.40938 1.78564 3.50098 2.16192 2.8312 2.83169C2.16143 3.50146 1.78516 4.40987 1.78516 5.35707V44.6428C1.78516 45.59 2.16143 46.4984 2.8312 47.1682C3.50098 47.8379 4.40938 48.2142 5.35658 48.2142H44.6423C45.5895 48.2142 46.4979 47.8379 47.1677 47.1682C47.8375 46.4984 48.2137 45.59 48.2137 44.6428V5.35707C48.2137 4.40987 47.8375 3.50146 47.1677 2.83169C46.4979 2.16192 45.5895 1.78564 44.6423 1.78564Z" fill="white" stroke="#D5EEFF" stroke-width="3" stroke-linecap="round" stroke-linejoin="round"/>
<path d="M24.999 1.78564V9.39993C24.2282 8.71046 23.2743 8.25883 22.2525 8.09956C21.2307 7.94029 20.1846 8.08019 19.2405 8.50237C18.2964 8.92455 17.4947 9.61097 16.9322 10.4788C16.3696 11.3465 16.0703 12.3586 16.0703 13.3928C16.0703 14.427 16.3696 15.439 16.9322 16.3068C17.4947 17.1746 18.2964 17.861 19.2405 18.2832C20.1846 18.7054 21.2307 18.8453 22.2525 18.686C23.2743 18.5267 24.2282 18.0751 24.999 17.3856V32.6142C25.7698 31.9247 26.7237 31.4731 27.7455 31.3138C28.7674 31.1546 29.8135 31.2945 30.7575 31.7167C31.7016 32.1388 32.5033 32.8253 33.0659 33.693C33.6284 34.5608 33.9277 35.5729 33.9277 36.6071C33.9277 37.6412 33.6284 38.6533 33.0659 39.5211C32.5033 40.3889 31.7016 41.0753 30.7575 41.4975C29.8135 41.9197 28.7674 42.0596 27.7455 41.9003C26.7237 41.741 25.7698 41.2894 24.999 40.5999V48.2142" fill="white"/>
<path d="M24.999 1.78564V9.39993C24.2282 8.71046 23.2743 8.25883 22.2525 8.09956C21.2307 7.94029 20.1846 8.08019 19.2405 8.50237C18.2964 8.92455 17.4947 9.61097 16.9322 10.4788C16.3696 11.3465 16.0703 12.3586 16.0703 13.3928C16.0703 14.427 16.3696 15.439 16.9322 16.3068C17.4947 17.1746 18.2964 17.861 19.2405 18.2832C20.1846 18.7054 21.2307 18.8453 22.2525 18.686C23.2743 18.5267 24.2282 18.0751 24.999 17.3856V32.6142C25.7698 31.9247 26.7237 31.4731 27.7455 31.3138C28.7674 31.1546 29.8135 31.2945 30.7575 31.7167C31.7016 32.1388 32.5033 32.8253 33.0659 33.693C33.6284 34.5608 33.9277 35.5729 33.9277 36.6071C33.9277 37.6412 33.6284 38.6533 33.0659 39.5211C32.5033 40.3889 31.7016 41.0753 30.7575 41.4975C29.8135 41.9197 28.7674 42.0596 27.7455 41.9003C26.7237 41.741 25.7698 41.2894 24.999 40.5999V48.2142" stroke="#D5EEFF" stroke-width="3" stroke-linecap="round" stroke-linejoin="round"/>
<path d="M1.78516 25H9.39944C8.70997 25.7708 8.25834 26.7247 8.09907 27.7465C7.9398 28.7684 8.0797 29.8144 8.50188 30.7585C8.92406 31.7026 9.61048 32.5043 10.4783 33.0668C11.3461 33.6294 12.3581 33.9287 13.3923 33.9287C14.4265 33.9287 15.4385 33.6294 16.3063 33.0668C17.1741 32.5043 17.8605 31.7026 18.2827 30.7585C18.7049 29.8144 18.8448 28.7684 18.6855 27.7465C18.5263 26.7247 18.0746 25.7708 17.3852 25H32.6137C31.9243 24.2292 31.4726 23.2753 31.3134 22.2535C31.1541 21.2316 31.294 20.1855 31.7162 19.2415C32.1383 18.2974 32.8248 17.4957 33.6926 16.9332C34.5603 16.3706 35.5724 16.0713 36.6066 16.0713C37.6408 16.0713 38.6528 16.3706 39.5206 16.9332C40.3884 17.4957 41.0748 18.2974 41.497 19.2415C41.9192 20.1855 42.0591 21.2316 41.8998 22.2535C41.7405 23.2753 41.2889 24.2292 40.5994 25H48.2137" fill="white"/>
<path d="M1.78516 25H9.39944C8.70997 25.7708 8.25834 26.7247 8.09907 27.7465C7.9398 28.7684 8.0797 29.8144 8.50188 30.7585C8.92406 31.7026 9.61048 32.5043 10.4783 33.0668C11.3461 33.6294 12.3581 33.9287 13.3923 33.9287C14.4265 33.9287 15.4385 33.6294 16.3063 33.0668C17.1741 32.5043 17.8605 31.7026 18.2827 30.7585C18.7049 29.8144 18.8448 28.7684 18.6855 27.7465C18.5263 26.7247 18.0746 25.7708 17.3852 25H32.6137C31.9243 24.2292 31.4726 23.2753 31.3134 22.2535C31.1541 21.2316 31.294 20.1855 31.7162 19.2415C32.1383 18.2974 32.8248 17.4957 33.6926 16.9332C34.5603 16.3706 35.5724 16.0713 36.6066 16.0713C37.6408 16.0713 38.6528 16.3706 39.5206 16.9332C40.3884 17.4957 41.0748 18.2974 41.497 19.2415C41.9192 20.1855 42.0591 21.2316 41.8998 22.2535C41.7405 23.2753 41.2889 24.2292 40.5994 25H48.2137" stroke="#D5EEFF" stroke-width="3" stroke-linecap="round" stroke-linejoin="round"/>
<path d="M44.6423 1.78564H5.35658C4.40938 1.78564 3.50098 2.16192 2.8312 2.83169C2.16143 3.50146 1.78516 4.40987 1.78516 5.35707V44.6428C1.78516 45.59 2.16143 46.4984 2.8312 47.1682C3.50098 47.8379 4.40938 48.2142 5.35658 48.2142H44.6423C45.5895 48.2142 46.4979 47.8379 47.1677 47.1682C47.8375 46.4984 48.2137 45.59 48.2137 44.6428V5.35707C48.2137 4.40987 47.8375 3.50146 47.1677 2.83169C46.4979 2.16192 45.5895 1.78564 44.6423 1.78564Z" fill="white" stroke="#0593F5" stroke-width="2" stroke-linecap="round" stroke-linejoin="round"/>
<path d="M24.999 1.78564V9.39993C24.2282 8.71046 23.2743 8.25883 22.2525 8.09956C21.2307 7.94029 20.1846 8.08019 19.2405 8.50237C18.2964 8.92455 17.4947 9.61097 16.9322 10.4788C16.3696 11.3465 16.0703 12.3586 16.0703 13.3928C16.0703 14.427 16.3696 15.439 16.9322 16.3068C17.4947 17.1746 18.2964 17.861 19.2405 18.2832C20.1846 18.7054 21.2307 18.8453 22.2525 18.686C23.2743 18.5267 24.2282 18.0751 24.999 17.3856V32.6142C25.7698 31.9247 26.7237 31.4731 27.7455 31.3138C28.7674 31.1546 29.8135 31.2945 30.7575 31.7167C31.7016 32.1388 32.5033 32.8253 33.0659 33.693C33.6284 34.5608 33.9277 35.5729 33.9277 36.6071C33.9277 37.6412 33.6284 38.6533 33.0659 39.5211C32.5033 40.3889 31.7016 41.0753 30.7575 41.4975C29.8135 41.9197 28.7674 42.0596 27.7455 41.9003C26.7237 41.741 25.7698 41.2894 24.999 40.5999V48.2142" fill="white"/>
<path d="M24.999 1.78564V9.39993C24.2282 8.71046 23.2743 8.25883 22.2525 8.09956C21.2307 7.94029 20.1846 8.08019 19.2405 8.50237C18.2964 8.92455 17.4947 9.61097 16.9322 10.4788C16.3696 11.3465 16.0703 12.3586 16.0703 13.3928C16.0703 14.427 16.3696 15.439 16.9322 16.3068C17.4947 17.1746 18.2964 17.861 19.2405 18.2832C20.1846 18.7054 21.2307 18.8453 22.2525 18.686C23.2743 18.5267 24.2282 18.0751 24.999 17.3856V32.6142C25.7698 31.9247 26.7237 31.4731 27.7455 31.3138C28.7674 31.1546 29.8135 31.2945 30.7575 31.7167C31.7016 32.1388 32.5033 32.8253 33.0659 33.693C33.6284 34.5608 33.9277 35.5729 33.9277 36.6071C33.9277 37.6412 33.6284 38.6533 33.0659 39.5211C32.5033 40.3889 31.7016 41.0753 30.7575 41.4975C29.8135 41.9197 28.7674 42.0596 27.7455 41.9003C26.7237 41.741 25.7698 41.2894 24.999 40.5999V48.2142" stroke="#0593F5" stroke-width="2" stroke-linecap="round" stroke-linejoin="round"/>
<path d="M1.78516 25H9.39944C8.70997 25.7708 8.25834 26.7247 8.09907 27.7465C7.9398 28.7684 8.0797 29.8144 8.50188 30.7585C8.92406 31.7026 9.61048 32.5043 10.4783 33.0668C11.3461 33.6294 12.3581 33.9287 13.3923 33.9287C14.4265 33.9287 15.4385 33.6294 16.3063 33.0668C17.1741 32.5043 17.8605 31.7026 18.2827 30.7585C18.7049 29.8144 18.8448 28.7684 18.6855 27.7465C18.5263 26.7247 18.0746 25.7708 17.3852 25H32.6137C31.9243 24.2292 31.4726 23.2753 31.3134 22.2535C31.1541 21.2316 31.294 20.1855 31.7162 19.2415C32.1383 18.2974 32.8248 17.4957 33.6926 16.9332C34.5603 16.3706 35.5724 16.0713 36.6066 16.0713C37.6408 16.0713 38.6528 16.3706 39.5206 16.9332C40.3884 17.4957 41.0748 18.2974 41.497 19.2415C41.9192 20.1855 42.0591 21.2316 41.8998 22.2535C41.7405 23.2753 41.2889 24.2292 40.5994 25H48.2137" fill="white"/>
<path d="M1.78516 25H9.39944C8.70997 25.7708 8.25834 26.7247 8.09907 27.7465C7.9398 28.7684 8.0797 29.8144 8.50188 30.7585C8.92406 31.7026 9.61048 32.5043 10.4783 33.0668C11.3461 33.6294 12.3581 33.9287 13.3923 33.9287C14.4265 33.9287 15.4385 33.6294 16.3063 33.0668C17.1741 32.5043 17.8605 31.7026 18.2827 30.7585C18.7049 29.8144 18.8448 28.7684 18.6855 27.7465C18.5263 26.7247 18.0746 25.7708 17.3852 25H32.6137C31.9243 24.2292 31.4726 23.2753 31.3134 22.2535C31.1541 21.2316 31.294 20.1855 31.7162 19.2415C32.1383 18.2974 32.8248 17.4957 33.6926 16.9332C34.5603 16.3706 35.5724 16.0713 36.6066 16.0713C37.6408 16.0713 38.6528 16.3706 39.5206 16.9332C40.3884 17.4957 41.0748 18.2974 41.497 19.2415C41.9192 20.1855 42.0591 21.2316 41.8998 22.2535C41.7405 23.2753 41.2889 24.2292 40.5994 25H48.2137" stroke="#0593F5" stroke-width="2" stroke-linecap="round" stroke-linejoin="round"/>
</g>
<defs>
<clipPath id="clip0_445_4708">
<rect width="50" height="50" fill="white"/>
</clipPath>
</defs>
</svg>
