<svg width="338" height="342" viewBox="0 0 338 342" fill="none" xmlns="http://www.w3.org/2000/svg">
<circle cx="208.303" cy="66.8333" r="20" transform="rotate(-37.2637 208.303 66.8333)" fill="#80FFAF"/>
<ellipse cx="67.7046" cy="169.402" rx="19" ry="18.5" transform="rotate(-37.2637 67.7046 169.402)" fill="#80FFAF"/>
<circle cx="224.342" cy="232.427" r="18.5" transform="rotate(-37.2637 224.342 232.427)" fill="#FFDB80"/>
<path d="M147.826 79.318L147.83 79.3205C164.98 88.7113 184.128 105.668 200.818 127.605C213.165 143.834 222.315 160.408 228.309 175.564C234.376 191.693 236.7 206.105 235.221 217.21C235.093 217.566 234.861 217.872 234.592 218.077C234.308 218.293 234.027 218.366 233.815 218.333L233.815 218.333L233.804 218.331C233.693 218.316 233.625 218.279 233.59 218.255C233.575 218.245 233.565 218.237 233.56 218.232L233.506 218.161L233.411 218.11C230.384 216.478 227.013 215.83 223.711 216.191C220.446 216.547 217.267 217.536 214.552 219.602C211.831 221.672 209.798 224.635 208.798 227.544C207.573 230.628 207.3 234.045 208.064 237.393L208.07 237.419L208.079 237.444C208.159 237.68 208.112 237.95 207.933 238.216C207.751 238.486 207.46 238.707 207.155 238.808L207.076 238.835L207.063 238.845C207.017 238.838 206.914 238.824 206.8 238.837C206.734 238.844 206.667 238.859 206.602 238.884C195.31 237.491 182.083 231.414 168.424 221.128L168.418 221.123C155.195 211.479 141.887 198.072 129.535 181.837C112.842 159.896 101.402 137.107 96.9129 118.058C94.6006 108.231 94.0023 99.3031 95.2253 91.8941C96.4479 84.4881 99.4837 78.6301 104.417 74.877C109.341 71.1311 115.791 69.7717 123.228 70.5883C130.668 71.4052 139.066 74.3983 147.826 79.318ZM146.711 81.398L146.709 81.3968C138.338 76.7918 130.443 73.8713 123.482 72.9742C116.519 72.0768 110.452 73.2015 105.803 76.7381C101.156 80.2738 98.4017 85.8583 97.3829 92.829C96.3646 99.7964 97.0728 108.185 99.3807 117.405C103.722 136.418 114.901 158.885 131.326 180.474C143.383 196.322 156.776 209.787 169.917 219.31C182.281 228.704 194.373 234.507 204.713 236.114L205.326 236.209L205.289 235.589C205.112 232.659 205.358 229.431 206.281 226.672C207.717 223.199 209.864 220.223 213.077 217.779C216.069 215.502 219.715 214.073 223.444 213.615C226.334 213.444 229.529 214.054 232.296 215.037L232.9 215.251L232.961 214.613C233.945 204.395 231.565 191.178 226.049 176.608L226.047 176.604C220.174 161.562 210.977 144.907 198.916 129.054C182.542 107.416 163.647 90.8209 146.711 81.398Z" fill="#263238" stroke="white"/>
<path d="M219.074 82.2121L219.077 82.2224L219.08 82.2325C222.336 92.8257 222.591 106.777 220.441 122.605L220.387 122.998C218.342 138.052 213.496 154.871 206.452 172.021C195.709 197.526 181.644 218.591 167.437 232.18C160.035 239.025 152.615 243.977 145.61 246.605C138.607 249.233 132.047 249.529 126.317 247.116L126.316 247.116C114.865 242.306 108.647 227.533 108.214 207.422C107.971 187.564 113.08 162.899 123.818 137.428L123.931 137.161L123.762 136.939C132.433 116.599 143.237 99.0951 154.591 85.9674L154.592 85.9653C166.491 72.0535 178.803 63.4126 189.782 61.209C190.215 61.192 190.583 61.2564 190.83 61.3889C191.054 61.5087 191.19 61.6836 191.205 61.9897L191.212 62.1445L191.306 62.2678C191.305 62.2658 191.305 62.2663 191.306 62.2698C191.31 62.2802 191.322 62.3163 191.327 62.3882C191.329 62.4266 191.329 62.462 191.327 62.4875C191.327 62.4934 191.326 62.4985 191.326 62.5029C190.784 65.0252 190.63 67.6164 191.328 69.9907C191.802 72.4771 192.902 74.8702 194.442 76.8945C197.197 80.5161 200.961 82.6377 204.87 83.5792L204.883 83.5823L204.896 83.5847C209.016 84.3489 213.552 83.7809 217.144 81.4015C217.93 81.0857 218.579 81.3055 218.948 81.7284L219.074 82.2121ZM218.127 122.498L218.128 122.491C220.132 107.739 219.867 95.0356 217.312 84.748L217.163 84.1473L216.607 84.4194C212.916 86.2259 208.598 86.7917 204.521 85.8647L204.519 85.8642C200.006 84.8582 195.521 82.5322 192.423 78.4597C190.645 76.1222 189.647 73.5115 188.879 70.6766C188.585 68.5031 188.495 66.5797 188.748 64.7172L188.85 63.9655L188.119 64.1681C177.957 66.9836 167.102 75.2681 156.529 87.4644L156.528 87.4655C145.239 100.564 134.406 117.882 125.921 138.235C115.413 163.277 110.471 187.923 110.599 207.326L110.599 207.326L110.6 207.338C110.895 216.876 112.356 225.12 115.07 231.57C117.785 238.023 121.771 242.711 127.127 245.061L127.396 245.18L127.621 245.008C132.918 247.232 138.969 246.858 145.349 244.338C151.834 241.777 158.693 236.987 165.53 230.385C179.807 217.072 193.89 196.273 204.415 171.221L204.527 170.954L204.357 170.73C211.294 154.012 215.91 137.346 218.127 122.498Z" fill="#263238" stroke="white"/>
<path d="M264.505 142.187L264.492 142.26L264.501 142.333C265.929 154.448 256.379 166.948 239.19 177.591C222.317 187.677 198.025 195.763 170.804 199.143L170.801 199.143C151.595 201.646 133.124 201.482 117.519 199.179C101.128 196.753 87.4384 192.327 78.3764 185.844L78.3701 185.839L78.3637 185.835C78.143 185.687 77.9613 185.393 77.8932 185.032C77.8308 184.702 77.8781 184.393 78.0012 184.181L78.002 184.18L78.003 184.179L78.004 184.178L78.0051 184.178L78.0061 184.177L78.0071 184.176L78.0081 184.175L78.0091 184.175L78.0102 184.174L78.0112 184.173L78.0122 184.172L78.0132 184.172L78.0142 184.171L78.0151 184.17L78.0161 184.169L78.0171 184.169L78.0181 184.168L78.0191 184.167L78.02 184.166L78.021 184.166L78.022 184.165L78.0229 184.164L78.0239 184.163L78.0248 184.163L78.0258 184.162L78.0267 184.161L78.0277 184.16L78.0286 184.16L78.0296 184.159L78.0305 184.158L78.0314 184.158L78.0324 184.157L78.0333 184.156L78.0342 184.156L78.0351 184.155L78.036 184.154L78.037 184.153L78.0379 184.153L78.0388 184.152L78.0397 184.151L78.0406 184.151L78.0415 184.15L78.0424 184.149L78.0432 184.149L78.0441 184.148L78.045 184.147L78.0459 184.147L78.0468 184.146L78.0476 184.145L78.0485 184.145L78.0494 184.144L78.0503 184.143L78.0511 184.143L78.052 184.142L78.0528 184.141L78.0537 184.141L78.0545 184.14L78.0554 184.139L78.0562 184.139L78.0571 184.138L78.0579 184.137L78.0588 184.137L78.0596 184.136L78.0604 184.136L78.0613 184.135L78.0621 184.134L78.0629 184.134L78.0637 184.133L78.0645 184.132L78.0654 184.132L78.0662 184.131L78.067 184.131L78.0678 184.13L78.0686 184.129L78.0694 184.129L78.0702 184.128L78.071 184.128L78.0718 184.127L78.0726 184.126L78.0734 184.126L78.0742 184.125L78.075 184.125L78.0758 184.124L78.0765 184.123L78.0773 184.123L78.0781 184.122L78.0789 184.122L78.0796 184.121L78.0804 184.12L78.0812 184.12L78.082 184.119L78.0827 184.119L78.0835 184.118L78.0842 184.117L78.085 184.117L78.0858 184.116L78.0865 184.116L78.0873 184.115L78.088 184.115L78.0888 184.114L78.0895 184.113L78.0903 184.113L78.091 184.112L78.0917 184.112L78.0925 184.111L78.0932 184.111L78.094 184.11L78.0947 184.109L78.0954 184.109L78.0962 184.108L78.0969 184.108L78.0976 184.107L78.0983 184.107L78.0991 184.106L78.0998 184.106L78.1005 184.105L78.1012 184.105L78.1019 184.104L78.1027 184.103L78.1034 184.103L78.1041 184.102L78.1048 184.102L78.1055 184.101L78.1062 184.101L78.1069 184.1L78.1076 184.1L78.1083 184.099L78.109 184.099L78.1097 184.098L78.1104 184.098L78.1111 184.097L78.1118 184.096L78.1125 184.096L78.1132 184.095L78.1139 184.095L78.1146 184.094L78.1153 184.094L78.116 184.093L78.1167 184.093L78.1174 184.092L78.118 184.092L78.1187 184.091L78.1194 184.091L78.1201 184.09L78.1208 184.09L78.1215 184.089L78.1221 184.089L78.1228 184.088L78.1235 184.088L78.1242 184.087L78.1248 184.087L78.1255 184.086L78.1262 184.086L78.1269 184.085L78.1275 184.085L78.1282 184.084L78.1289 184.083L78.1296 184.083L78.1302 184.082L78.1309 184.082L78.1316 184.081L78.1322 184.081L78.1329 184.08L78.1336 184.08L78.1342 184.079L78.1349 184.079L78.1355 184.078L78.1362 184.078L78.1369 184.077L78.1375 184.077L78.1382 184.076L78.1389 184.076L78.1395 184.075L78.1402 184.075L78.1408 184.074L78.1415 184.074L78.1422 184.073L78.1428 184.073L78.1435 184.072L78.1441 184.072L78.1448 184.071L78.1454 184.071L78.1461 184.07L78.1468 184.07L78.1474 184.069L78.1481 184.069L78.1487 184.068L78.1494 184.068L78.15 184.067L78.1507 184.067L78.1513 184.066L78.152 184.066L78.1526 184.065L78.1533 184.065L78.154 184.064L78.1546 184.064L78.1553 184.063L78.1559 184.063L78.1566 184.062L78.1572 184.062L78.1579 184.061L78.1585 184.061L78.1592 184.06L78.1598 184.06L78.1605 184.059L78.1612 184.059L78.1618 184.058L78.1625 184.058L78.1631 184.057L78.1638 184.057L78.1644 184.056L78.1651 184.056L78.1657 184.055L78.1664 184.055L78.1671 184.054L78.1677 184.054L78.1684 184.053L78.169 184.053L78.1697 184.052L78.1704 184.052L78.171 184.051L78.1717 184.051L78.1723 184.05L78.173 184.05L78.1737 184.049L78.1743 184.049L78.175 184.048L78.1756 184.048L78.1763 184.047L78.177 184.047L78.1776 184.046L78.1783 184.046L78.179 184.045L78.1796 184.045L78.1803 184.044L78.181 184.044L78.1816 184.043L78.1823 184.043L78.183 184.042L78.1837 184.042L78.1843 184.041L78.185 184.041L78.1857 184.04L78.1864 184.04L78.187 184.039L78.1877 184.039L78.1884 184.038L78.1891 184.038L78.1898 184.037L78.1904 184.037L78.1911 184.036L78.1918 184.036L78.1925 184.035L78.1932 184.035L78.1939 184.034L78.1945 184.034L78.1952 184.033L78.1959 184.032L78.1966 184.032L78.1973 184.031L78.198 184.031L78.1987 184.03L78.1994 184.03L78.2001 184.029L78.2008 184.029L78.2015 184.028L78.2022 184.028L78.2029 184.027L78.2036 184.027L78.2043 184.026L78.205 184.026L78.2057 184.025L78.2064 184.024L78.2072 184.024L78.2079 184.023L78.2086 184.023L78.2093 184.022L78.21 184.022L78.2107 184.021L78.2115 184.021L78.2122 184.02L78.2129 184.02L78.2136 184.019L78.2144 184.018L78.2151 184.018L78.2158 184.017L78.2166 184.017L78.2173 184.016L78.218 184.016L78.2188 184.015L78.2195 184.015L78.2203 184.014L78.221 184.013L78.2218 184.013L78.2225 184.012L78.2233 184.012L78.224 184.011L78.2248 184.011L78.2255 184.01L78.2263 184.009L78.227 184.009L78.2278 184.008L78.2286 184.008L78.2293 184.007L78.2301 184.006L78.2309 184.006L78.2317 184.005L78.2324 184.005L78.2332 184.004L78.234 184.004L78.2348 184.003L78.2356 184.002L78.2363 184.002L78.2371 184.001L78.2379 184.001L78.2387 184L78.2395 183.999L78.2403 183.999L78.2411 183.998L78.2419 183.997L78.2427 183.997L78.2435 183.996L78.2444 183.996L78.2452 183.995L78.246 183.994L78.2468 183.994L78.2476 183.993L78.2484 183.993L78.2493 183.992L78.2501 183.991L78.2509 183.991L78.2518 183.99L78.2526 183.989L78.2534 183.989L78.2543 183.988L78.2551 183.987L78.256 183.987L78.2568 183.986L78.2577 183.985L78.2585 183.985L78.2594 183.984L78.2603 183.984L78.2611 183.983L78.262 183.982L78.2629 183.982L78.2638 183.981L78.2646 183.98L78.2655 183.98L78.2664 183.979L78.2673 183.978L78.2682 183.978L78.2691 183.977L78.27 183.976L78.2709 183.975L78.2718 183.975L78.2727 183.974L78.2736 183.973L78.2745 183.973L78.2754 183.972L78.2763 183.971L78.2772 183.971L78.2782 183.97L78.2791 183.969L78.28 183.968L78.281 183.968L78.2819 183.967L78.2828 183.966L78.2838 183.966L78.2847 183.965L78.2857 183.964L78.2866 183.963L78.2876 183.963L78.2886 183.962L78.2895 183.961L78.2905 183.961L78.2915 183.96L78.2924 183.959L78.2934 183.958L78.2944 183.958L78.2954 183.957L78.2964 183.956L78.2974 183.955L78.2984 183.955L78.2994 183.954L78.3004 183.953L78.3014 183.952L78.3024 183.951L78.3034 183.951L78.3044 183.95L78.3055 183.949L78.3065 183.948L78.3075 183.948L78.3085 183.947L78.3096 183.946L78.3106 183.945L78.3117 183.944L78.3127 183.944L78.3138 183.943L78.3148 183.942L78.3159 183.941L78.317 183.94L78.3181 183.94L78.3191 183.939L78.3202 183.938L78.3213 183.937L78.3224 183.936L78.3235 183.935L78.3246 183.935L78.3257 183.934L78.3268 183.933L78.3279 183.932L78.329 183.931L78.3301 183.93L78.3312 183.93L78.3324 183.929L78.3335 183.928L78.3346 183.927L78.3358 183.926L78.3369 183.925L78.3381 183.924L78.3392 183.923L78.3404 183.923L78.3415 183.922L78.3427 183.921L78.3439 183.92L78.345 183.919L78.3462 183.918L78.3474 183.917L78.3486 183.916L78.3498 183.915L78.351 183.915L78.3522 183.914L78.3534 183.913L78.3546 183.912L78.3558 183.911L78.3571 183.91L78.3583 183.909L78.3595 183.908L78.3608 183.907L78.362 183.906L78.3632 183.905L78.3645 183.904L78.3657 183.903L78.367 183.902L78.3683 183.901L78.3695 183.9L78.3708 183.899L78.3721 183.898L78.3734 183.897L78.3747 183.896L78.376 183.895L78.3773 183.895L78.3786 183.894C82.013 181.128 84.1948 176.95 84.6178 172.342C85.2098 167.965 84.2205 163.364 81.2902 159.513C80.0681 157.906 78.2367 156.459 76.639 155.244L76.6133 155.225L76.5853 155.209C74.7264 154.141 72.6091 153.263 70.5894 152.989C69.8413 152.887 69.4875 152.254 69.5027 151.725C69.5395 151.673 69.5689 151.618 69.5916 151.561C69.6341 151.455 69.6479 151.351 69.6539 151.306L69.6745 151.29L69.7232 151.211C75.7201 141.513 87.6436 132.737 103.581 125.478L103.581 125.478L103.587 125.475C119.096 118.156 138.299 112.89 159.505 110.275L159.509 110.275C186.942 106.707 212.075 108.364 230.921 114.064L230.927 114.066C250.394 119.652 262.928 129.554 264.564 141.856L264.505 142.187ZM230.201 116.34L230.201 116.34C211.754 110.867 186.681 109.056 159.763 112.489L159.762 112.489C138.848 115.182 119.954 120.51 104.763 127.555C90.2566 134.085 79.2214 142.105 73.3035 150.475L72.9392 150.99L73.524 151.227C73.59 151.254 73.656 151.28 73.7219 151.307C75.15 151.885 76.5336 152.445 77.8519 153.361L77.86 153.366L77.8684 153.372C79.8284 154.621 81.7273 156.216 83.184 158.131C86.6158 162.641 87.846 167.803 87.1648 172.697L87.1632 172.709L87.1621 172.721C86.7656 177.07 84.7092 181.021 81.5206 184.458L81.1112 184.899L81.6201 185.22C90.413 190.776 102.933 194.869 117.856 197.097L117.863 197.098C133.395 199.191 151.564 199.3 170.492 196.737C197.341 193.264 221.327 185.484 237.764 175.429C245.942 170.608 252.383 165.279 256.609 159.692C260.838 154.101 262.866 148.227 262.156 142.347C261.52 136.576 258.116 131.438 252.6 127.071C247.085 122.705 239.428 119.085 230.201 116.34Z" fill="#263238" stroke="white"/>
<path d="M210.943 46.7439L210.953 46.7453L210.963 46.7463C216.07 47.2292 220.882 50.0078 224.145 54.2969C227.575 58.8062 228.803 63.9607 227.905 69.0148L227.902 69.0341L227.9 69.0537C227.403 74.1478 224.857 78.8068 220.349 82.2366C216.06 85.4997 210.682 86.8939 205.631 85.997L205.621 85.9952L205.611 85.9939C200.678 85.3237 195.83 82.9372 192.409 78.441C189.158 74.1671 187.97 68.6199 188.651 63.7138C189.556 58.6278 192.097 53.9791 196.375 50.7246C200.885 47.2937 206.061 46.0806 210.943 46.7439ZM191.149 64.0568L191.149 64.0587C190.554 68.4391 191.542 73.044 194.475 76.8988C197.403 80.7466 201.743 83.1569 206.132 83.7532C210.513 84.3482 215.118 83.3597 218.972 80.427C222.82 77.4995 225.231 73.1591 225.827 68.7697C226.423 64.3803 225.258 59.5542 222.331 55.7063C219.398 51.8515 215.224 49.6704 210.843 49.0753C206.452 48.4788 201.641 49.6636 197.794 52.59C193.94 55.5226 191.759 59.6963 191.149 64.0568Z" fill="#263238" stroke="white"/>
<path d="M87.2367 172.753L87.0718 172.879L87.044 173.084C86.3763 177.999 83.8312 182.631 79.3212 186.062C75.044 189.316 69.8847 190.556 64.753 190.042C59.6739 189.169 55.0307 186.6 51.6048 182.096C48.3508 177.819 47.1107 172.661 47.6244 167.529C48.5125 162.463 51.071 157.803 55.347 154.55C59.8498 151.124 65.01 149.886 70.1377 150.4C75.2042 151.288 79.8636 153.846 83.1168 158.122C86.4986 162.567 87.7483 167.653 87.286 172.716L87.2367 172.753ZM81.3027 159.532L81.3012 159.53C78.3514 155.692 74.1976 153.496 69.8154 152.901C65.426 152.304 60.5999 153.469 56.752 156.397C52.8972 159.33 50.7161 163.504 50.121 167.884C49.5259 172.265 50.5145 176.869 53.4472 180.724C56.3746 184.572 60.715 186.982 65.1044 187.579C69.4847 188.174 74.0896 187.185 77.9445 184.252C81.7923 181.325 84.2025 176.985 84.7988 172.595C85.3951 168.206 84.2302 163.38 81.3027 159.532Z" fill="#263238" stroke="white"/>
<path d="M222.537 253.263L222.536 253.262C217.239 252.527 212.591 249.991 209.163 245.486C205.907 241.206 204.67 236.046 205.406 230.749L205.406 230.746C206.055 225.851 208.82 221.048 213.129 217.77C217.417 214.507 222.798 213.11 227.687 213.788C232.776 214.677 237.653 217.076 240.899 221.342C244.316 225.833 245.324 231.175 244.825 236.313C244.16 241.189 241.39 246.021 237.103 249.282C232.593 252.713 227.431 253.944 222.537 253.263ZM207.84 230.939L207.675 231.064L238.412 223.234L238.812 222.933C238.811 222.933 238.811 222.932 238.811 222.932C236.069 219.289 231.726 216.882 227.341 216.286C222.959 215.691 218.369 216.699 214.515 219.631C210.721 222.517 208.549 226.606 207.9 230.893L207.84 230.939Z" fill="#263238" stroke="white"/>
</svg>
