<svg width="47" height="47" viewBox="0 0 47 47" fill="none" xmlns="http://www.w3.org/2000/svg">
<g clip-path="url(#clip0_1263_4999)">
<path d="M24.153 1.30554C19.8925 1.30554 15.7276 2.56894 12.1851 4.93597C8.64259 7.303 5.88154 10.6673 4.2511 14.6036C2.62066 18.5398 2.19407 22.8711 3.02525 27.0498C3.85644 31.2285 5.90809 35.0668 8.92075 38.0795C11.9334 41.0921 15.7718 43.1438 19.9504 43.975C24.1291 44.8061 28.4604 44.3795 32.3966 42.7491C36.3329 41.1187 39.6972 38.3576 42.0642 34.8151C44.4313 31.2726 45.6947 27.1077 45.6947 22.8472C45.6947 17.134 43.4251 11.6548 39.3853 7.61495C35.3454 3.5751 29.8662 1.30554 24.153 1.30554ZM24.153 40.7986C20.6026 40.7986 17.1318 39.7458 14.1797 37.7732C11.2277 35.8007 8.92678 32.9971 7.56808 29.7169C6.20939 26.4367 5.85389 22.8273 6.54655 19.3451C7.2392 15.8628 8.94891 12.6642 11.4595 10.1537C13.97 7.64311 17.1686 5.93341 20.6509 5.24075C24.1331 4.54809 27.7425 4.90359 31.0227 6.26229C34.3029 7.62099 37.1065 9.92186 39.079 12.874C41.0516 15.826 42.1044 19.2968 42.1044 22.8472C42.1044 25.2046 41.6401 27.5389 40.7379 29.7169C39.8358 31.8949 38.5135 33.8738 36.8465 35.5408C35.1796 37.2077 33.2007 38.53 31.0227 39.4321C28.8447 40.3343 26.5104 40.7986 24.153 40.7986Z" fill="#620000"/>
<path d="M24.1526 27.4167C23.2869 27.4167 22.4567 27.1672 21.8446 26.723C21.2325 26.2789 20.8887 25.6765 20.8887 25.0485V14.1182C20.8887 13.4901 21.2325 12.8878 21.8446 12.4436C22.4567 11.9995 23.2869 11.75 24.1526 11.75C25.0182 11.75 25.8484 11.9995 26.4605 12.4436C27.0726 12.8878 27.4164 13.4901 27.4164 14.1182V25.0485C27.4164 25.6765 27.0726 26.2789 26.4605 26.723C25.8484 27.1672 25.0182 27.4167 24.1526 27.4167Z" fill="#620000"/>
<path d="M24.1526 33.9444C25.9552 33.9444 27.4164 32.7754 27.4164 31.3333C27.4164 29.8912 25.9552 28.7222 24.1526 28.7222C22.35 28.7222 20.8887 29.8912 20.8887 31.3333C20.8887 32.7754 22.35 33.9444 24.1526 33.9444Z" fill="#620000"/>
</g>
<defs>
<clipPath id="clip0_1263_4999">
<rect width="47" height="47" fill="white"/>
</clipPath>
</defs>
</svg>
