<svg width="33" height="32" viewBox="0 0 33 32" fill="none" xmlns="http://www.w3.org/2000/svg">
<path d="M8.25 12.3389C9.34402 12.3389 10.3932 11.9306 11.1668 11.2039C11.9404 10.4772 12.375 9.49158 12.375 8.46387C12.375 7.43615 11.9404 6.45053 11.1668 5.72383C10.3932 4.99713 9.34402 4.58887 8.25 4.58887C7.15598 4.58887 6.10677 4.99713 5.33318 5.72383C4.5596 6.45053 4.125 7.43615 4.125 8.46387C4.125 9.49158 4.5596 10.4772 5.33318 11.2039C6.10677 11.9306 7.15598 12.3389 8.25 12.3389ZM11.6875 20.0889H4.8125V26.5472H11.6875V20.0889Z" fill="white" stroke="#D5EEFF" stroke-width="3" stroke-linejoin="round"/>
<path d="M17.655 8.46387H28.875V23.318H17.1875" stroke="#D5EEFF" stroke-width="3" stroke-linecap="round" stroke-linejoin="round"/>
<path d="M8.25 12.3389C9.34402 12.3389 10.3932 11.9306 11.1668 11.2039C11.9404 10.4772 12.375 9.49158 12.375 8.46387C12.375 7.43615 11.9404 6.45053 11.1668 5.72383C10.3932 4.99713 9.34402 4.58887 8.25 4.58887C7.15598 4.58887 6.10677 4.99713 5.33318 5.72383C4.5596 6.45053 4.125 7.43615 4.125 8.46387C4.125 9.49158 4.5596 10.4772 5.33318 11.2039C6.10677 11.9306 7.15598 12.3389 8.25 12.3389ZM11.6875 20.0889H4.8125V26.5472H11.6875V20.0889Z" fill="white" stroke="#0593F5" stroke-width="2" stroke-linejoin="round"/>
<path d="M17.655 8.46387H28.875V23.318H17.1875" stroke="#0593F5" stroke-width="2" stroke-linecap="round" stroke-linejoin="round"/>
</svg>
