<svg width="74" height="68" viewBox="0 0 74 68" fill="none" xmlns="http://www.w3.org/2000/svg">
<ellipse cx="38" cy="52.5" rx="34.5" ry="11" fill="#D5EEFF"/>
<g clip-path="url(#clip0_542_1612)">
<rect x="18.5" y="31.5" width="37" height="14" fill="white"/>
<rect x="32.5" y="38.5" width="9" height="18" fill="white"/>
<rect x="22.5" y="40.7401" width="9" height="18" transform="rotate(-53.5576 22.5 40.7401)" fill="white"/>
<rect x="34.5323" y="50.6108" width="9" height="18" transform="rotate(-116.618 34.5323 50.6108)" fill="white"/>
<path d="M30.3679 51.3992L30.3075 50.9668L29.9017 50.8058C28.3658 50.1963 27.0389 49.3639 25.7398 48.3646L25.399 48.1024L25.0006 48.264L18.6177 50.8531C18.3622 50.9404 18.0843 50.8298 17.9752 50.6298L17.9708 50.6217L17.9661 50.6137L12.827 41.7229L12.827 41.7229L12.8225 41.7152C12.7583 41.6072 12.7357 41.4795 12.7589 41.3561C12.782 41.2326 12.8493 41.1218 12.9483 41.0443L12.9497 41.0432L18.3716 36.7777L18.6845 36.5315L18.6559 36.1343L18.4798 33.6949L18.656 31.1785L18.684 30.7781L18.3663 30.5326L12.9483 26.3472C12.9478 26.3468 12.9473 26.3464 12.9468 26.346C12.8487 26.2686 12.7819 26.1583 12.7589 26.0354C12.7357 25.912 12.7583 25.7843 12.8225 25.6763L12.8225 25.6763L12.827 25.6686L17.9661 16.7778L17.9708 16.7698L17.9752 16.7616C18.0988 16.5351 18.385 16.4433 18.6003 16.5314L18.6047 16.5332L25.003 19.1027L25.3948 19.2601L25.7325 19.0068C27.0364 18.0289 28.3651 17.1955 29.9017 16.5857L30.3075 16.4247L30.3679 15.9923L31.3169 9.19492C31.3624 8.94504 31.586 8.75 31.8606 8.75H42.1389C42.4135 8.75 42.6371 8.94505 42.6826 9.19492L43.6316 15.9923L43.692 16.4247L44.0978 16.5857C45.6344 17.1955 46.9631 18.0289 48.267 19.0068L48.6048 19.2601L48.9965 19.1027L55.3948 16.5332L55.3992 16.5314C55.6145 16.4433 55.9007 16.5351 56.0243 16.7616L56.0287 16.7698L56.0334 16.7778L61.1725 25.6686L61.1725 25.6686L61.1762 25.6748C61.3114 25.9037 61.2543 26.185 61.0512 26.3472C61.0504 26.3478 61.0496 26.3485 61.0488 26.3491L55.6332 30.5326L55.3155 30.7781L55.3435 31.1785L55.5197 33.6957L55.3435 36.213L55.3155 36.6134L55.6332 36.8588L61.0488 41.0424C61.0496 41.0431 61.0504 41.0437 61.0513 41.0444C61.2543 41.2066 61.3114 41.4878 61.1761 41.7167L61.1761 41.7167L61.1725 41.7229L56.0334 50.6137L56.0287 50.6217L56.0243 50.6298C55.9007 50.8564 55.6145 50.9482 55.3992 50.8601L55.3948 50.8583L48.9965 48.2887L48.6048 48.1314L48.267 48.3847C46.9631 49.3626 45.6344 50.196 44.0978 50.8058L43.692 50.9668L43.6316 51.3992L42.6826 58.1966C42.6371 58.4464 42.4135 58.6415 42.1389 58.6415H31.8606C31.586 58.6415 31.3624 58.4465 31.3169 58.1966L30.3679 51.3992ZM35.0726 12.3891H34.4214L34.33 13.0339L33.4518 19.2289C30.6028 19.9294 28.0702 21.4473 26.1385 23.5175L20.4405 21.0586L19.8274 20.794L19.4937 21.3724L17.5665 24.7129L17.2309 25.2945L17.7721 25.6921L22.7584 29.355C21.9033 32.1856 21.9033 35.2063 22.7585 38.0369L17.746 41.7254L17.2055 42.1231L17.5408 42.7043L19.468 46.0448L19.8007 46.6214L20.4127 46.3595L26.1657 43.8973C28.0906 45.9419 30.5982 47.4586 33.4262 48.1399L34.3042 54.3572L34.3953 55.0023H35.0469H38.9526H39.6038L39.6952 54.3576L40.5736 48.1615C43.3999 47.4602 45.9078 45.9432 47.8339 43.8973L53.5868 46.3595L54.1988 46.6214L54.5315 46.0448L56.4587 42.7043L56.795 42.1213L56.2517 41.7241L51.2411 38.0607C52.0963 35.2222 52.0962 32.1937 51.2408 29.3553L56.2274 25.6921L56.7686 25.2945L56.433 24.7129L54.5058 21.3724L54.1721 20.794L53.559 21.0586L47.8614 23.5173C45.8957 21.4079 43.3516 19.9239 40.5475 19.2514L39.6696 13.0343L39.5785 12.3891H38.9269H35.0726ZM36.9998 24.1674C39.5268 24.1674 41.9504 25.1713 43.7373 26.9582C45.5242 28.7451 46.528 31.1687 46.528 33.6957C46.528 36.2228 45.5242 38.6464 43.7373 40.4333C41.9504 42.2202 39.5268 43.224 36.9998 43.224C34.4727 43.224 32.0491 42.2202 30.2622 40.4333C28.4753 38.6464 27.4715 36.2228 27.4715 33.6957C27.4715 31.1687 28.4753 28.7451 30.2622 26.9582C32.0491 25.1713 34.4727 24.1674 36.9998 24.1674ZM36.9998 27.8066C35.4379 27.8066 33.9399 28.4271 32.8355 29.5315C31.7311 30.6359 31.1106 32.1339 31.1106 33.6957C31.1106 35.2576 31.7311 36.7556 32.8355 37.86C33.9399 38.9644 35.4379 39.5849 36.9998 39.5849C38.5617 39.5849 40.0596 38.9644 41.164 37.86C42.2684 36.7556 42.8889 35.2576 42.8889 33.6957C42.8889 32.1339 42.2684 30.6359 41.164 29.5315C40.0596 28.4271 38.5617 27.8066 36.9998 27.8066Z" fill="#0593F5" stroke="#D5EEFF" stroke-width="1.5"/>
</g>
<defs>
<clipPath id="clip0_542_1612">
<rect width="50" height="50" fill="white" transform="translate(12 9)"/>
</clipPath>
</defs>
</svg>
