<svg width="60" height="60" viewBox="0 0 60 60" fill="none" xmlns="http://www.w3.org/2000/svg">
<rect x="1" y="1" width="58" height="58" fill="#0593F5"/>
<rect x="1" y="1" width="58" height="58" stroke="#00041A" stroke-width="2"/>
<path d="M14.52 14.52C12 17.064 12 21.132 12 29.28V30.72C12 38.856 12 42.924 14.52 45.48C17.064 48 21.132 48 29.28 48H30.72C38.856 48 42.924 48 45.48 45.48C48 42.936 48 38.868 48 30.72V29.28C48 21.144 48 17.076 45.48 14.52C42.936 12 38.868 12 30.72 12H29.28C21.144 12 17.076 12 14.52 14.52ZM18.072 22.956H22.2C22.332 29.82 25.356 32.724 27.756 33.324V22.956H31.632V28.872C33.996 28.62 36.492 25.92 37.332 22.944H41.196C40.8811 24.4846 40.2517 25.9436 39.3474 27.2299C38.443 28.5163 37.2831 29.6023 35.94 30.42C37.4389 31.1657 38.7625 32.2209 39.8237 33.5157C40.8848 34.8106 41.6593 36.3158 42.096 37.932H37.836C36.924 35.088 34.644 32.88 31.632 32.58V37.932H31.152C22.944 37.932 18.264 32.316 18.072 22.956Z" fill="white"/>
</svg>
