<svg width="60" height="60" viewBox="0 0 60 60" fill="none" xmlns="http://www.w3.org/2000/svg">
<rect x="1" y="1" width="58" height="58" fill="#0593F5"/>
<rect x="1" y="1" width="58" height="58" stroke="#00041A" stroke-width="2"/>
<path d="M22.6056 12C24.6039 12 26.5409 12.5609 28.2099 13.5941C30.7028 13.3283 33.2236 13.6221 35.5885 14.4542C37.9535 15.2862 40.1029 16.6355 41.8802 18.4037C43.4387 19.9571 44.6755 21.8027 45.5199 23.8348C46.3642 25.8668 46.7996 28.0454 46.801 30.2459C46.801 31.0286 46.7465 31.8052 46.6375 32.5757C47.5283 34.1569 47.9975 35.9406 48 37.7554C48.0006 39.1458 47.7261 40.5226 47.1921 41.8064C46.6582 43.0902 45.8754 44.2556 44.889 45.2355C43.9031 46.2191 42.733 46.999 41.4457 47.5304C40.1584 48.0619 38.779 48.3345 37.3863 48.3329C35.4788 48.3329 33.6213 47.8196 32.0045 46.8705C29.4792 47.1724 26.9184 46.8989 24.514 46.0703C22.1095 45.2416 19.9238 43.8795 18.1208 42.0859C16.5626 40.5327 15.3259 38.6875 14.4815 36.6558C13.6372 34.6242 13.2017 32.446 13.1999 30.2459C13.1999 29.4208 13.2605 28.6026 13.3816 27.7912C12.236 25.7793 11.7842 23.4463 12.0961 21.1522C12.408 18.8581 13.4662 16.7304 15.1074 15.0974C17.0983 13.1146 19.7957 12.0009 22.6056 12ZM23.6207 27.9183C24.0294 28.62 24.5971 29.2172 25.2761 29.6646C26.175 30.2541 27.1313 30.7509 28.1305 31.1474C29.2462 31.6137 30.1129 32.0096 30.7305 32.335C31.2506 32.5894 31.7229 32.9345 32.1271 33.3524C32.4336 33.6748 32.604 34.104 32.604 34.5513C32.6171 34.8658 32.5549 35.1789 32.4226 35.4645C32.2903 35.75 32.0916 35.9999 31.8432 36.1931C31.1824 36.6382 30.3899 36.8494 29.5951 36.7926C28.778 36.8031 27.9677 36.6438 27.2153 36.3248C26.8076 36.1442 26.4048 35.9526 26.0073 35.7503C25.596 35.5334 25.1393 35.4167 24.6743 35.4097C24.258 35.3931 23.8511 35.5361 23.5366 35.8094C23.3865 35.9521 23.2692 36.1257 23.1927 36.3182C23.1163 36.5107 23.0825 36.7175 23.0938 36.9243C23.0849 37.3159 23.2028 37.6998 23.4299 38.0189C23.7045 38.3671 24.06 38.643 24.4654 38.8227C26.048 39.5101 27.7641 39.8352 29.4884 39.7742C30.7438 39.7969 31.9931 39.593 33.1762 39.1724C34.1566 38.824 35.0106 38.1906 35.6287 37.3535C36.235 36.4679 36.5415 35.412 36.5052 34.3402C36.5277 33.4644 36.3085 32.5994 35.8716 31.84C35.4289 31.1172 34.8299 30.5026 34.1186 30.0415C33.2204 29.4586 32.2656 28.9679 31.2687 28.5769C31.1626 28.5244 31.0525 28.4804 30.9395 28.4452C30.1625 28.1305 29.3953 27.792 28.6391 27.4301C28.1794 27.2158 27.7636 26.9178 27.4129 26.5513C27.118 26.24 26.9552 25.8265 26.9587 25.3977C26.943 25.0707 27.0159 24.7455 27.1698 24.4565C27.3237 24.1675 27.5528 23.9254 27.833 23.7559C28.4962 23.3606 29.2596 23.1658 30.0311 23.1951C30.6215 23.1882 31.212 23.2632 31.7842 23.4131C32.4079 23.5932 33.015 23.815 33.6054 24.0784C33.8438 24.1897 34.105 24.2487 34.3684 24.251C34.5606 24.2557 34.7516 24.2197 34.9289 24.1454C35.1062 24.071 35.2657 23.96 35.397 23.8195C35.675 23.5118 35.8217 23.1076 35.8058 22.6932C35.812 22.2981 35.6748 21.9141 35.4198 21.6123C35.0689 21.2477 34.636 20.9721 34.1572 20.8084C33.6363 20.6172 33.0978 20.478 32.5495 20.3929C31.7823 20.2678 31.0059 20.2085 30.2287 20.2158C29.0408 20.2068 27.8605 20.4051 26.7407 20.8016C25.7099 21.1481 24.7898 21.7626 24.0748 22.5819C23.3844 23.3961 23.0203 24.4374 23.053 25.5045C23.0302 26.3447 23.2255 27.1758 23.6207 27.9183Z" fill="white"/>
</svg>
