<svg width="133" height="134" viewBox="0 0 133 134" fill="none" xmlns="http://www.w3.org/2000/svg">
<path d="M10.7422 52.3372L10.7443 52.3371L28.7213 51.5188L38.4615 66.4999L38.6167 66.7386L38.9005 66.7257L55.5167 65.9692L55.8121 65.9557L55.9427 65.6888L63.3079 50.636L63.4334 50.3795L63.2781 50.1406L53.687 35.3887C53.5472 35.1737 53.6135 34.9031 53.7962 34.7829C53.9789 34.6626 54.2518 34.7099 54.3916 34.9249L64.1375 49.9147L64.2928 50.1536L64.5767 50.1405L81.1466 49.3805L81.4419 49.367L81.5724 49.1001L89.1602 33.5871C89.1606 33.5864 89.1609 33.5857 89.1613 33.585C89.2685 33.375 89.5229 33.2945 89.7258 33.4031C89.9526 33.5246 90.0379 33.8008 89.9347 34.0153C89.9345 34.0156 89.9344 34.0159 89.9342 34.0162L82.3499 49.5063L82.2243 49.7629L82.3796 50.0018L91.5686 64.1351L91.7239 64.3739L92.0078 64.3609L109.363 63.5671C109.364 63.567 109.365 63.567 109.365 63.567C109.529 63.5623 109.676 63.6422 109.764 63.7776C109.809 63.8468 109.835 63.9218 109.842 64.0047L109.842 64.0047L109.843 64.0172C109.848 64.0654 109.835 64.1317 109.789 64.2138L109.757 64.2703L109.74 64.3331C109.688 64.5285 109.54 64.6441 109.375 64.6515L109.374 64.6516L92.203 65.4337L91.9077 65.4472L91.7771 65.714L84.4912 80.6014L84.3656 80.8579L84.5209 81.0968L94.0863 95.809C94.2261 96.024 94.1598 96.2946 93.9771 96.4149C93.7944 96.5352 93.5215 96.4879 93.3817 96.2729L83.904 81.6955L83.7487 81.4567L83.4648 81.4696L65.8528 82.2742L55.9683 67.0711L55.8129 66.8322L55.529 66.8452L38.9591 67.6053L38.6638 67.6188L38.5333 67.8857L30.9455 83.3987C30.9451 83.3994 30.9448 83.4001 30.9444 83.4008C30.8403 83.6048 30.5944 83.691 30.3765 83.5808C30.1522 83.4584 30.0683 83.1837 30.1712 82.9702C30.1713 82.97 30.1714 82.9698 30.1715 82.9696L37.7558 67.4795L37.8814 67.2229L37.7261 66.984L28.4133 52.6604L28.258 52.4215L27.9741 52.4345L10.8308 53.2223C10.8303 53.2223 10.8298 53.2224 10.8293 53.2224C10.5845 53.2316 10.3717 53.0402 10.3566 52.7923C10.3409 52.5354 10.5226 52.3463 10.7422 52.3372ZM81.6571 50.4888L81.5018 50.2499L81.2179 50.2629L64.594 51.0245L64.2987 51.0381L64.1682 51.3049L56.803 66.3577L56.6775 66.6143L56.8327 66.8531L66.1248 81.145L66.2801 81.3839L66.5641 81.3708L83.1879 80.6092L83.4832 80.5957L83.6137 80.3289L90.9789 65.276L91.1044 65.0195L90.9492 64.7807L81.6571 50.4888Z" stroke="#263238"/>
<path d="M25.9093 82.4991C28.0073 81.118 30.8674 81.7413 32.29 83.9292C33.7125 86.1172 33.1344 89.0038 31.0364 90.3849C28.9384 91.766 26.0783 91.1427 24.6557 88.9548C23.2332 86.7668 23.8113 83.8801 25.9093 82.4991Z" fill="#FFDB80" stroke="#263238"/>
<path d="M4.89367 49.3311C6.99166 47.95 9.85181 48.5733 11.2743 50.7613C12.6968 52.9492 12.1188 55.8359 10.0208 57.2169C7.92279 58.598 5.06264 57.9747 3.64012 55.7868C2.21761 53.5989 2.79568 50.7122 4.89367 49.3311Z" fill="#80FFAF" stroke="#263238"/>
<path d="M48.796 27.2256C50.894 25.8445 53.7542 26.4679 55.1767 28.6558C56.5992 30.8437 56.0211 33.7304 53.9231 35.1115C51.8251 36.4926 48.965 35.8692 47.5425 33.6813C46.12 31.4934 46.698 28.6067 48.796 27.2256Z" fill="#FFDB80" stroke="#263238"/>
<path d="M93.3507 95.7588C95.4487 94.3777 98.3088 95.0011 99.7314 97.189C101.154 99.3769 100.576 102.264 98.4778 103.645C96.3798 105.026 93.5197 104.402 92.0972 102.215C90.6746 100.027 91.2527 97.1399 93.3507 95.7588Z" fill="#FFDB80" stroke="#263238"/>
<path d="M89.9093 26.208C92.0073 24.827 94.8674 25.4503 96.29 27.6382C97.7125 29.8261 97.1344 32.7128 95.0364 34.0939C92.9384 35.475 90.0783 34.8517 88.6557 32.6637C87.2332 30.4758 87.8113 27.5891 89.9093 26.208Z" fill="#80FFAF" stroke="#263238"/>
<path d="M111.569 59.5186C113.667 58.1375 116.528 58.7608 117.95 60.9488C119.373 63.1367 118.795 66.0234 116.697 67.4044C114.599 68.7855 111.738 68.1622 110.316 65.9743C108.893 63.7864 109.471 60.8997 111.569 59.5186Z" fill="#FFDB80" stroke="#263238"/>
</svg>
