<svg width="32" height="33" viewBox="0 0 32 33" fill="none" xmlns="http://www.w3.org/2000/svg">
<g clip-path="url(#clip0_445_4840)">
<rect x="2" y="20.9316" width="28" height="10" fill="white"/>
<path fill-rule="evenodd" clip-rule="evenodd" d="M30.8571 4.49805H1.14286C0.839753 4.49805 0.549063 4.61845 0.334735 4.83278C0.120408 5.04711 0 5.3378 0 5.6409V30.7838C0 31.0869 0.120408 31.3776 0.334735 31.5919C0.549063 31.8062 0.839753 31.9266 1.14286 31.9266H30.8571C31.1602 31.9266 31.4509 31.8062 31.6653 31.5919C31.8796 31.3776 32 31.0869 32 30.7838V5.6409C32 5.3378 31.8796 5.04711 31.6653 4.83278C31.4509 4.61845 31.1602 4.49805 30.8571 4.49805ZM2.28571 29.6409V6.78376H29.7143V29.6409H2.28571Z" fill="#0593F5" stroke="#D5EEFF" stroke-width="0.5"/>
<path d="M2.03571 11.3552V11.6052H2.28571H29.7143H29.9643V11.3552V6.78376V6.53376H29.7143H2.28571H2.03571V6.78376V11.3552ZM1.14286 4.74805H30.8571C31.0939 4.74805 31.321 4.84212 31.4885 5.00956C31.6559 5.177 31.75 5.4041 31.75 5.6409V12.498C31.75 12.7348 31.6559 12.962 31.4885 13.1294C31.321 13.2968 31.0939 13.3909 30.8571 13.3909H1.14286C0.906056 13.3909 0.678955 13.2968 0.511512 13.1294C0.344069 12.9619 0.25 12.7348 0.25 12.498V5.6409C0.25 5.4041 0.344069 5.177 0.511512 5.00956C0.678955 4.84212 0.906057 4.74805 1.14286 4.74805Z" fill="#0593F5" stroke="#D5EEFF" stroke-width="0.5"/>
<path d="M8.00084 6.53334H5.71512C5.47832 6.53334 5.25122 6.43927 5.08378 6.27183C4.91633 6.10439 4.82227 5.87729 4.82227 5.64049V3.35477C4.82227 3.11797 4.91633 2.89087 5.08378 2.72343C5.25122 2.55598 5.47832 2.46191 5.71512 2.46191H8.00084C8.23764 2.46191 8.46474 2.55598 8.63218 2.72343C8.79963 2.89087 8.89369 3.11797 8.89369 3.35477V5.64049C8.89369 5.87729 8.79963 6.10439 8.63218 6.27183C8.46474 6.43927 8.23764 6.53334 8.00084 6.53334ZM26.2866 6.53334H24.0008C23.764 6.53334 23.5369 6.43927 23.3695 6.27183C23.202 6.10439 23.108 5.87729 23.108 5.64049V3.35477C23.108 3.11797 23.202 2.89087 23.3695 2.72343C23.5369 2.55598 23.764 2.46191 24.0008 2.46191H26.2866C26.5234 2.46191 26.7505 2.55598 26.9179 2.72343C27.0853 2.89087 27.1794 3.11797 27.1794 3.35477V5.64049C27.1794 5.87729 27.0853 6.10439 26.9179 6.27183C26.7505 6.43927 26.5234 6.53334 26.2866 6.53334ZM6.85798 20.2476C6.31808 20.2476 5.80028 20.0331 5.41851 19.6514C5.03674 19.2696 4.82227 18.7518 4.82227 18.2119C4.82227 17.672 5.03674 17.1542 5.41851 16.7724C5.80028 16.3907 6.31808 16.1762 6.85798 16.1762C7.39789 16.1762 7.91568 16.3907 8.29745 16.7724C8.67922 17.1542 8.89369 17.672 8.89369 18.2119C8.89369 18.7518 8.67922 19.2696 8.29745 19.6514C7.91568 20.0331 7.39789 20.2476 6.85798 20.2476Z" fill="#0593F5" stroke="#D5EEFF" stroke-width="0.5"/>
</g>
<defs>
<clipPath id="clip0_445_4840">
<rect width="32" height="32" fill="white" transform="translate(0 0.931641)"/>
</clipPath>
</defs>
</svg>
