<svg width="74" height="68" viewBox="0 0 74 68" fill="none" xmlns="http://www.w3.org/2000/svg">
<ellipse cx="38" cy="52" rx="34.5" ry="11.5" fill="#D5EEFF"/>
<g clip-path="url(#clip0_542_399)">
<path d="M57.1423 10.2856H17.8566C16.9094 10.2856 16.001 10.6619 15.3312 11.3317C14.6614 12.0015 14.2852 12.9099 14.2852 13.8571V53.1428C14.2852 54.09 14.6614 54.9984 15.3312 55.6682C16.001 56.3379 16.9094 56.7142 17.8566 56.7142H57.1423C58.0895 56.7142 58.9979 56.3379 59.6677 55.6682C60.3375 54.9984 60.7137 54.09 60.7137 53.1428V13.8571C60.7137 12.9099 60.3375 12.0015 59.6677 11.3317C58.9979 10.6619 58.0895 10.2856 57.1423 10.2856Z" fill="white" stroke="#D5EEFF" stroke-width="3" stroke-linecap="round" stroke-linejoin="round"/>
<path d="M37.499 10.2856V17.8999C36.7282 17.2105 35.7743 16.7588 34.7525 16.5996C33.7307 16.4403 32.6846 16.5802 31.7405 17.0024C30.7964 17.4246 29.9947 18.111 29.4322 18.9788C28.8696 19.8465 28.5703 20.8586 28.5703 21.8928C28.5703 22.927 28.8696 23.939 29.4322 24.8068C29.9947 25.6746 30.7964 26.361 31.7405 26.7832C32.6846 27.2054 33.7307 27.3453 34.7525 27.186C35.7743 27.0267 36.7282 26.5751 37.499 25.8856V41.1142C38.2698 40.4247 39.2237 39.9731 40.2455 39.8138C41.2674 39.6546 42.3135 39.7945 43.2575 40.2167C44.2016 40.6388 45.0033 41.3253 45.5659 42.193C46.1284 43.0608 46.4277 44.0729 46.4277 45.1071C46.4277 46.1412 46.1284 47.1533 45.5659 48.0211C45.0033 48.8889 44.2016 49.5753 43.2575 49.9975C42.3135 50.4197 41.2674 50.5596 40.2455 50.4003C39.2237 50.241 38.2698 49.7894 37.499 49.0999V56.7142" fill="white"/>
<path d="M37.499 10.2856V17.8999C36.7282 17.2105 35.7743 16.7588 34.7525 16.5996C33.7307 16.4403 32.6846 16.5802 31.7405 17.0024C30.7964 17.4246 29.9947 18.111 29.4322 18.9788C28.8696 19.8465 28.5703 20.8586 28.5703 21.8928C28.5703 22.927 28.8696 23.939 29.4322 24.8068C29.9947 25.6746 30.7964 26.361 31.7405 26.7832C32.6846 27.2054 33.7307 27.3453 34.7525 27.186C35.7743 27.0267 36.7282 26.5751 37.499 25.8856V41.1142C38.2698 40.4247 39.2237 39.9731 40.2455 39.8138C41.2674 39.6546 42.3135 39.7945 43.2575 40.2167C44.2016 40.6388 45.0033 41.3253 45.5659 42.193C46.1284 43.0608 46.4277 44.0729 46.4277 45.1071C46.4277 46.1412 46.1284 47.1533 45.5659 48.0211C45.0033 48.8889 44.2016 49.5753 43.2575 49.9975C42.3135 50.4197 41.2674 50.5596 40.2455 50.4003C39.2237 50.241 38.2698 49.7894 37.499 49.0999V56.7142" stroke="#D5EEFF" stroke-width="3" stroke-linecap="round" stroke-linejoin="round"/>
<path d="M14.2852 33.5H21.8994C21.21 34.2708 20.7583 35.2247 20.5991 36.2465C20.4398 37.2684 20.5797 38.3144 21.0019 39.2585C21.4241 40.2026 22.1105 41.0043 22.9783 41.5668C23.8461 42.1294 24.8581 42.4287 25.8923 42.4287C26.9265 42.4287 27.9385 42.1294 28.8063 41.5668C29.6741 41.0043 30.3605 40.2026 30.7827 39.2585C31.2049 38.3144 31.3448 37.2684 31.1855 36.2465C31.0263 35.2247 30.5746 34.2708 29.8852 33.5H45.1137C44.4243 32.7292 43.9726 31.7753 43.8134 30.7535C43.6541 29.7316 43.794 28.6855 44.2162 27.7415C44.6383 26.7974 45.3248 25.9957 46.1926 25.4332C47.0603 24.8706 48.0724 24.5713 49.1066 24.5713C50.1408 24.5713 51.1528 24.8706 52.0206 25.4332C52.8884 25.9957 53.5748 26.7974 53.997 27.7415C54.4192 28.6855 54.5591 29.7316 54.3998 30.7535C54.2405 31.7753 53.7889 32.7292 53.0994 33.5H60.7137" fill="white"/>
<path d="M14.2852 33.5H21.8994C21.21 34.2708 20.7583 35.2247 20.5991 36.2465C20.4398 37.2684 20.5797 38.3144 21.0019 39.2585C21.4241 40.2026 22.1105 41.0043 22.9783 41.5668C23.8461 42.1294 24.8581 42.4287 25.8923 42.4287C26.9265 42.4287 27.9385 42.1294 28.8063 41.5668C29.6741 41.0043 30.3605 40.2026 30.7827 39.2585C31.2049 38.3144 31.3448 37.2684 31.1855 36.2465C31.0263 35.2247 30.5746 34.2708 29.8852 33.5H45.1137C44.4243 32.7292 43.9726 31.7753 43.8134 30.7535C43.6541 29.7316 43.794 28.6855 44.2162 27.7415C44.6383 26.7974 45.3248 25.9957 46.1926 25.4332C47.0603 24.8706 48.0724 24.5713 49.1066 24.5713C50.1408 24.5713 51.1528 24.8706 52.0206 25.4332C52.8884 25.9957 53.5748 26.7974 53.997 27.7415C54.4192 28.6855 54.5591 29.7316 54.3998 30.7535C54.2405 31.7753 53.7889 32.7292 53.0994 33.5H60.7137" stroke="#D5EEFF" stroke-width="3" stroke-linecap="round" stroke-linejoin="round"/>
<path d="M57.1423 10.2856H17.8566C16.9094 10.2856 16.001 10.6619 15.3312 11.3317C14.6614 12.0015 14.2852 12.9099 14.2852 13.8571V53.1428C14.2852 54.09 14.6614 54.9984 15.3312 55.6682C16.001 56.3379 16.9094 56.7142 17.8566 56.7142H57.1423C58.0895 56.7142 58.9979 56.3379 59.6677 55.6682C60.3375 54.9984 60.7137 54.09 60.7137 53.1428V13.8571C60.7137 12.9099 60.3375 12.0015 59.6677 11.3317C58.9979 10.6619 58.0895 10.2856 57.1423 10.2856Z" fill="white" stroke="#0593F5" stroke-width="2" stroke-linecap="round" stroke-linejoin="round"/>
<path d="M37.499 10.2856V17.8999C36.7282 17.2105 35.7743 16.7588 34.7525 16.5996C33.7307 16.4403 32.6846 16.5802 31.7405 17.0024C30.7964 17.4246 29.9947 18.111 29.4322 18.9788C28.8696 19.8465 28.5703 20.8586 28.5703 21.8928C28.5703 22.927 28.8696 23.939 29.4322 24.8068C29.9947 25.6746 30.7964 26.361 31.7405 26.7832C32.6846 27.2054 33.7307 27.3453 34.7525 27.186C35.7743 27.0267 36.7282 26.5751 37.499 25.8856V41.1142C38.2698 40.4247 39.2237 39.9731 40.2455 39.8138C41.2674 39.6546 42.3135 39.7945 43.2575 40.2167C44.2016 40.6388 45.0033 41.3253 45.5659 42.193C46.1284 43.0608 46.4277 44.0729 46.4277 45.1071C46.4277 46.1412 46.1284 47.1533 45.5659 48.0211C45.0033 48.8889 44.2016 49.5753 43.2575 49.9975C42.3135 50.4197 41.2674 50.5596 40.2455 50.4003C39.2237 50.241 38.2698 49.7894 37.499 49.0999V56.7142" fill="white"/>
<path d="M37.499 10.2856V17.8999C36.7282 17.2105 35.7743 16.7588 34.7525 16.5996C33.7307 16.4403 32.6846 16.5802 31.7405 17.0024C30.7964 17.4246 29.9947 18.111 29.4322 18.9788C28.8696 19.8465 28.5703 20.8586 28.5703 21.8928C28.5703 22.927 28.8696 23.939 29.4322 24.8068C29.9947 25.6746 30.7964 26.361 31.7405 26.7832C32.6846 27.2054 33.7307 27.3453 34.7525 27.186C35.7743 27.0267 36.7282 26.5751 37.499 25.8856V41.1142C38.2698 40.4247 39.2237 39.9731 40.2455 39.8138C41.2674 39.6546 42.3135 39.7945 43.2575 40.2167C44.2016 40.6388 45.0033 41.3253 45.5659 42.193C46.1284 43.0608 46.4277 44.0729 46.4277 45.1071C46.4277 46.1412 46.1284 47.1533 45.5659 48.0211C45.0033 48.8889 44.2016 49.5753 43.2575 49.9975C42.3135 50.4197 41.2674 50.5596 40.2455 50.4003C39.2237 50.241 38.2698 49.7894 37.499 49.0999V56.7142" stroke="#0593F5" stroke-width="2" stroke-linecap="round" stroke-linejoin="round"/>
<path d="M14.2852 33.5H21.8994C21.21 34.2708 20.7583 35.2247 20.5991 36.2465C20.4398 37.2684 20.5797 38.3144 21.0019 39.2585C21.4241 40.2026 22.1105 41.0043 22.9783 41.5668C23.8461 42.1294 24.8581 42.4287 25.8923 42.4287C26.9265 42.4287 27.9385 42.1294 28.8063 41.5668C29.6741 41.0043 30.3605 40.2026 30.7827 39.2585C31.2049 38.3144 31.3448 37.2684 31.1855 36.2465C31.0263 35.2247 30.5746 34.2708 29.8852 33.5H45.1137C44.4243 32.7292 43.9726 31.7753 43.8134 30.7535C43.6541 29.7316 43.794 28.6855 44.2162 27.7415C44.6383 26.7974 45.3248 25.9957 46.1926 25.4332C47.0603 24.8706 48.0724 24.5713 49.1066 24.5713C50.1408 24.5713 51.1528 24.8706 52.0206 25.4332C52.8884 25.9957 53.5748 26.7974 53.997 27.7415C54.4192 28.6855 54.5591 29.7316 54.3998 30.7535C54.2405 31.7753 53.7889 32.7292 53.0994 33.5H60.7137" fill="white"/>
<path d="M14.2852 33.5H21.8994C21.21 34.2708 20.7583 35.2247 20.5991 36.2465C20.4398 37.2684 20.5797 38.3144 21.0019 39.2585C21.4241 40.2026 22.1105 41.0043 22.9783 41.5668C23.8461 42.1294 24.8581 42.4287 25.8923 42.4287C26.9265 42.4287 27.9385 42.1294 28.8063 41.5668C29.6741 41.0043 30.3605 40.2026 30.7827 39.2585C31.2049 38.3144 31.3448 37.2684 31.1855 36.2465C31.0263 35.2247 30.5746 34.2708 29.8852 33.5H45.1137C44.4243 32.7292 43.9726 31.7753 43.8134 30.7535C43.6541 29.7316 43.794 28.6855 44.2162 27.7415C44.6383 26.7974 45.3248 25.9957 46.1926 25.4332C47.0603 24.8706 48.0724 24.5713 49.1066 24.5713C50.1408 24.5713 51.1528 24.8706 52.0206 25.4332C52.8884 25.9957 53.5748 26.7974 53.997 27.7415C54.4192 28.6855 54.5591 29.7316 54.3998 30.7535C54.2405 31.7753 53.7889 32.7292 53.0994 33.5H60.7137" stroke="#0593F5" stroke-width="2" stroke-linecap="round" stroke-linejoin="round"/>
</g>
<defs>
<clipPath id="clip0_542_399">
<rect width="50" height="50" fill="white" transform="translate(12.5 8.5)"/>
</clipPath>
</defs>
</svg>
