<svg width="60" height="56" viewBox="0 0 60 56" fill="none" xmlns="http://www.w3.org/2000/svg">
<ellipse cx="29.5" cy="37.8975" rx="22.5" ry="7.5" fill="#D5EEFF"/>
<path d="M20.25 22.668C21.344 22.668 22.3932 22.2597 23.1668 21.533C23.9404 20.8063 24.375 19.8207 24.375 18.793C24.375 17.7653 23.9404 16.7796 23.1668 16.0529C22.3932 15.3262 21.344 14.918 20.25 14.918C19.156 14.918 18.1068 15.3262 17.3332 16.0529C16.5596 16.7796 16.125 17.7653 16.125 18.793C16.125 19.8207 16.5596 20.8063 17.3332 21.533C18.1068 22.2597 19.156 22.668 20.25 22.668ZM23.6875 30.418H16.8125V36.8763H23.6875V30.418Z" fill="white" stroke="#D5EEFF" stroke-width="3" stroke-linejoin="round"/>
<path d="M29.655 18.793H40.875V33.6471H29.1875" stroke="#D5EEFF" stroke-width="3" stroke-linecap="round" stroke-linejoin="round"/>
<path d="M20.25 22.668C21.344 22.668 22.3932 22.2597 23.1668 21.533C23.9404 20.8063 24.375 19.8207 24.375 18.793C24.375 17.7653 23.9404 16.7796 23.1668 16.0529C22.3932 15.3262 21.344 14.918 20.25 14.918C19.156 14.918 18.1068 15.3262 17.3332 16.0529C16.5596 16.7796 16.125 17.7653 16.125 18.793C16.125 19.8207 16.5596 20.8063 17.3332 21.533C18.1068 22.2597 19.156 22.668 20.25 22.668ZM23.6875 30.418H16.8125V36.8763H23.6875V30.418Z" fill="white" stroke="#0593F5" stroke-width="2" stroke-linejoin="round"/>
<path d="M29.655 18.793H40.875V33.6471H29.1875" stroke="#0593F5" stroke-width="2" stroke-linecap="round" stroke-linejoin="round"/>
</svg>
