<svg width="77" height="82" viewBox="0 0 77 82" fill="none" xmlns="http://www.w3.org/2000/svg">
<path d="M60.9786 44.9557L33.1713 41.6696L37.1565 70.6145" stroke="#263238" stroke-width="2.3576" stroke-miterlimit="10"/>
<path d="M54.826 47.5923C52.8573 44.3648 53.8779 40.1525 57.1054 38.1838C60.3329 36.2152 64.5452 37.2357 66.5138 40.4632C68.4825 43.6907 67.462 47.903 64.2345 49.8717C61.007 51.8403 56.7946 50.8198 54.826 47.5923Z" fill="#80FFAF" stroke="#263238"/>
<path d="M54.9995 44.953C54.8946 42.8102 55.9389 40.6791 57.8978 39.4843" stroke="#263238" stroke-width="1.4476" stroke-miterlimit="10" stroke-linecap="round" stroke-linejoin="round"/>
<path d="M29.8997 73.9326C27.5579 70.0933 28.7719 65.0826 32.6112 62.7408C36.4505 60.3989 41.4612 61.6129 43.803 65.4522C46.1448 69.2915 44.9309 74.3022 41.0916 76.644C37.2523 78.9858 32.2416 77.7719 29.8997 73.9326Z" fill="#80FFAF" stroke="#263238"/>
<path d="M30.1144 70.6682C29.9942 68.1483 31.2143 65.6438 33.5236 64.2353" stroke="#263238" stroke-width="1.4476" stroke-miterlimit="10" stroke-linecap="round" stroke-linejoin="round"/>
<path d="M7.40734 27.9335C5.93623 25.5217 6.69883 22.374 9.11064 20.9029C11.5225 19.4318 14.6702 20.1944 16.1413 22.6062C17.6124 25.018 16.8498 28.1657 14.438 29.6368C12.0262 31.1079 8.87844 30.3453 7.40734 27.9335Z" fill="#80FFAF" stroke="#263238"/>
<path d="M7.53057 26.1244C7.45202 24.4894 8.24222 22.8568 9.7442 21.9406L7.53057 26.1244Z" fill="#80FFAF"/>
<path d="M7.53057 26.1244C7.45202 24.4894 8.24222 22.8568 9.7442 21.9406" stroke="#263238" stroke-width="1.4476" stroke-miterlimit="10" stroke-linecap="round" stroke-linejoin="round"/>
<path d="M25.6689 47.9213C22.7685 43.1661 24.272 36.96 29.0272 34.0595C33.7825 31.159 39.9886 32.6625 42.8891 37.4178C45.7896 42.173 44.286 48.3792 39.5308 51.2796C34.7756 54.1801 28.5694 52.6766 25.6689 47.9213Z" fill="#FFDB80" stroke="#263238"/>
<path d="M25.946 43.7165C25.7978 40.6299 27.2992 37.5588 30.1217 35.8373" stroke="#263238" stroke-width="1.4476" stroke-miterlimit="10" stroke-linecap="round" stroke-linejoin="round"/>
</svg>
