<svg width="208" height="212" viewBox="0 0 208 212" fill="none" xmlns="http://www.w3.org/2000/svg">
<path d="M15.926 82.245L15.9281 82.245L44.4408 80.9471L59.8902 104.709L60.0454 104.948L60.3292 104.935L86.5322 103.742L86.8276 103.729L86.9582 103.462L98.5728 79.7241L98.6983 79.4676L98.543 79.2287L83.4181 55.9656C83.1147 55.499 83.2471 54.8909 83.6741 54.6098C84.1011 54.3287 84.7078 54.4502 85.0112 54.9169L100.38 78.5552L100.535 78.7941L100.819 78.7811L126.949 77.5825L127.245 77.5689L127.375 77.3021L139.342 52.8358C139.343 52.8352 139.343 52.8345 139.343 52.8339C139.583 52.3598 140.161 52.1711 140.626 52.4205C141.116 52.6825 141.312 53.2843 141.079 53.7672C141.079 53.7677 141.078 53.7682 141.078 53.7687L129.117 78.1971L128.992 78.4537L129.147 78.6926L143.638 100.98L143.793 101.219L144.077 101.206L171.449 99.954C171.45 99.9539 171.451 99.9539 171.452 99.9539C171.814 99.9427 172.138 100.121 172.331 100.416C172.426 100.563 172.486 100.728 172.5 100.91L172.5 100.91L172.501 100.923C172.516 101.075 172.473 101.24 172.379 101.406L172.347 101.462L172.33 101.525C172.22 101.942 171.888 102.224 171.488 102.242L171.488 102.242L144.41 103.476L144.114 103.489L143.984 103.756L132.494 127.233L132.369 127.489L132.524 127.728L147.608 150.929C147.912 151.395 147.779 152.003 147.352 152.284C146.925 152.566 146.318 152.444 146.015 151.977L131.069 128.989L130.914 128.751L130.63 128.763L102.693 130.04L87.0157 105.927L86.8603 105.688L86.5764 105.701L60.4464 106.9L60.1511 106.914L60.0206 107.18L48.0535 131.647C48.0531 131.647 48.0527 131.648 48.0524 131.649C47.8154 132.117 47.2511 132.308 46.7659 132.06C46.279 131.797 46.0847 131.197 46.3168 130.715C46.317 130.715 46.3173 130.714 46.3176 130.714L58.2782 106.285L58.4038 106.029L58.2485 105.79L43.5627 83.2023L43.4074 82.9634L43.1235 82.9764L16.088 84.2188C16.0875 84.2188 16.0871 84.2188 16.0866 84.2188C15.5452 84.2404 15.0754 83.8195 15.0418 83.2701C15.0077 82.7116 15.4098 82.2664 15.926 82.245ZM127.526 79.7778L127.37 79.5389L127.087 79.5519L100.871 80.753L100.576 80.7665L100.446 81.0333L88.8311 104.771L88.7056 105.027L88.8608 105.266L103.514 127.804L103.669 128.043L103.953 128.03L130.168 126.829L130.464 126.815L130.594 126.548L142.209 102.811L142.334 102.554L142.179 102.315L127.526 79.7778Z" stroke="#263238"/>
<path d="M39.6971 129.853C43.1445 127.584 47.8311 128.614 50.1573 132.192C52.4836 135.77 51.5442 140.503 48.0969 142.773C44.6495 145.042 39.9629 144.012 37.6366 140.434C35.3104 136.856 36.2498 132.123 39.6971 129.853Z" fill="#FFDB80" stroke="#263238"/>
<path d="M6.55845 77.5496C10.0058 75.2802 14.6924 76.3102 17.0187 79.8881C19.3449 83.466 18.4055 88.1996 14.9582 90.4689C11.5108 92.7383 6.82418 91.7083 4.49796 88.1304C2.17174 84.5525 3.11109 79.8189 6.55845 77.5496Z" fill="#80FFAF" stroke="#263238"/>
<path d="M75.7889 42.6912C79.2363 40.4218 83.9229 41.4518 86.2491 45.0297C88.5754 48.6076 87.636 53.3412 84.1886 55.6105C80.7413 57.8799 76.0547 56.8499 73.7284 53.272C71.4022 49.6941 72.3416 44.9605 75.7889 42.6912Z" fill="#FFDB80" stroke="#263238"/>
<path d="M146.055 150.765C149.502 148.496 154.189 149.526 156.515 153.104C158.841 156.682 157.902 161.415 154.454 163.685C151.007 165.954 146.32 164.924 143.994 161.346C141.668 157.768 142.607 153.035 146.055 150.765Z" fill="#FFDB80" stroke="#263238"/>
<path d="M140.629 41.0857C144.076 38.8163 148.763 39.8464 151.089 43.4242C153.415 47.0021 152.476 51.7357 149.028 54.0051C145.581 56.2744 140.894 55.2444 138.568 51.6665C136.242 48.0886 137.181 43.3551 140.629 41.0857Z" fill="#80FFAF" stroke="#263238"/>
<path d="M174.783 93.615C178.23 91.3456 182.917 92.3756 185.243 95.9535C187.57 99.5314 186.63 104.265 183.183 106.534C179.735 108.804 175.049 107.774 172.723 104.196C170.396 100.618 171.336 95.8844 174.783 93.615Z" fill="#FFDB80" stroke="#263238"/>
</svg>
