<svg width="487" height="2779" viewBox="0 0 487 2779" fill="none" xmlns="http://www.w3.org/2000/svg">
<path d="M467.613 2777.45C474.18 2773.66 471.232 2756.26 461.027 2738.58C450.822 2720.91 437.226 2709.65 430.659 2713.44C424.091 2717.23 427.04 2734.64 437.245 2752.31C447.449 2769.99 461.046 2781.24 467.613 2777.45Z" stroke="#263238" stroke-width="0.5" stroke-miterlimit="10" stroke-linecap="round" stroke-linejoin="round"/>
<path d="M449.143 2759.16C469.553 2759.16 486.098 2753.02 486.098 2745.43C486.098 2737.85 469.552 2731.7 449.142 2731.7C428.733 2731.7 412.188 2737.85 412.188 2745.43C412.188 2753.02 428.733 2759.16 449.143 2759.16Z" stroke="#263238" stroke-width="0.5" stroke-miterlimit="10" stroke-linecap="round" stroke-linejoin="round"/>
<path d="M430.666 2777.45C437.233 2781.24 450.83 2769.98 461.035 2752.31C471.24 2734.63 474.189 2717.23 467.622 2713.44C461.054 2709.65 447.458 2720.9 437.252 2738.58C427.047 2756.25 424.098 2773.66 430.666 2777.45Z" stroke="#263238" stroke-width="0.5" stroke-miterlimit="10" stroke-linecap="round" stroke-linejoin="round"/>
<path d="M446.634 2749.79C449.035 2751.17 452.104 2750.35 453.49 2747.95C454.875 2745.55 454.053 2742.48 451.653 2741.1C449.252 2739.71 446.183 2740.53 444.797 2742.93C443.412 2745.33 444.234 2748.4 446.634 2749.79Z" fill="#80FFAF" stroke="#263238" stroke-width="0.5" stroke-miterlimit="10" stroke-linecap="round" stroke-linejoin="round"/>
<path d="M59.7594 162.427C59.1091 162.459 58.46 161.85 58.264 160.958C58.101 160.075 58.6981 159.405 59.3484 159.373L80.5386 157.298C81.4214 157.135 82.0918 157.732 82.1238 158.382C82.2867 159.265 81.6896 159.935 80.7857 160.11L59.7594 162.427ZM161.529 86.7197C162.18 86.6877 163.082 87.1539 163.114 87.8041C163.277 88.6869 162.823 89.6109 162.173 89.6429L131.204 96.555C130.554 96.587 129.651 96.1208 129.476 95.2169C129.444 94.5666 129.911 93.6637 130.561 93.6317L161.529 86.7197ZM95.0542 94.8574C95.8473 95.0791 96.4965 95.6882 96.2959 96.4693C96.2171 97.5161 95.4771 97.9327 94.684 97.711L69.352 94.2101C68.559 93.9884 67.9097 93.3794 68.1103 92.5982C68.332 91.8051 68.941 91.156 69.7222 91.3565L95.0542 94.8574Z" fill="#263238"/>
<path d="M121.96 59.6618C122.182 58.8687 122.922 58.4521 123.715 58.6738C124.508 58.8955 124.924 59.6354 124.703 60.4285L119.194 81.6008C118.972 82.3939 118.232 82.8105 117.439 82.5888C116.646 82.3671 116.229 81.6272 116.451 80.8342L121.96 59.6618Z" fill="#263238"/>
<path d="M107.801 116.306C108.023 115.513 108.763 115.097 109.556 115.318C110.349 115.54 110.908 116.534 110.675 117.306L102.301 142.736C102.079 143.529 101.196 143.692 100.403 143.471C99.6103 143.249 99.4474 142.366 99.6691 141.573L107.801 116.306Z" fill="#263238"/>
<circle cx="185.855" cy="83.4841" r="23.9482" transform="rotate(-29.382 185.855 83.4841)" fill="#FFDB80" stroke="#263238"/>
<circle cx="56.3166" cy="90.4488" r="14.0367" transform="rotate(-29.382 56.3166 90.4488)" fill="#FFDB80" stroke="#263238"/>
<circle cx="95.6486" cy="156.265" r="14.0367" transform="rotate(-29.382 95.6486 156.265)" fill="#FFDB80" stroke="#263238"/>
<circle cx="113.676" cy="98.7223" r="18.9925" transform="rotate(-29.382 113.676 98.7223)" fill="#80FFAF" stroke="#263238"/>
<circle cx="126.884" cy="51.4729" r="9.41142" transform="rotate(-29.382 126.884 51.4729)" fill="#80FFAF" stroke="#263238"/>
<circle cx="50.1754" cy="161.018" r="10.4026" transform="rotate(-29.382 50.1754 161.018)" fill="#80FFAF" stroke="#263238"/>
</svg>
