<svg width="60" height="56" viewBox="0 0 60 56" fill="none" xmlns="http://www.w3.org/2000/svg">
<ellipse cx="29.5" cy="40.5" rx="26.5" ry="8.5" fill="#D5EEFF"/>
<g clip-path="url(#clip0_620_622)">
<rect x="14.0703" y="24.5498" width="28.86" height="10.92" fill="white"/>
<rect x="24.99" y="30.0098" width="7.02" height="14.04" fill="white"/>
<rect x="17.1895" y="31.7578" width="7.02" height="14.04" transform="rotate(-53.5576 17.1895 31.7578)" fill="white"/>
<rect x="26.5762" y="39.4561" width="7.02" height="14.04" transform="rotate(-116.618 26.5762 39.4561)" fill="white"/>
<path d="M24.2428 39.8631L24.2025 39.5749L23.932 39.4675C22.7246 38.9884 21.6827 38.3344 20.6652 37.5517L20.438 37.377L20.1724 37.4847L15.1917 39.505C14.9572 39.5864 14.6936 39.4891 14.5861 39.292L14.5862 39.2919L14.58 39.2812L10.5715 32.3464L10.5715 32.3464L10.5685 32.3413C10.5079 32.2393 10.4865 32.1187 10.5084 32.0021C10.5302 31.8854 10.5938 31.7808 10.6873 31.7076L10.6882 31.7069L14.9173 28.3798L15.1259 28.2156L15.1068 27.9508L14.9691 26.0421L15.1069 24.0733L15.1256 23.8063L14.9138 23.6427L10.6873 20.3777C10.6869 20.3775 10.6866 20.3772 10.6862 20.3769C10.5934 20.3038 10.5301 20.1995 10.5084 20.0833C10.4865 19.9667 10.5079 19.8461 10.5685 19.7441L10.5685 19.7441L10.5715 19.7389L14.58 12.8042L14.5801 12.8043L14.5861 12.7934C14.7034 12.5783 14.9728 12.4909 15.1804 12.5758L15.1834 12.577L20.174 14.5813L20.4352 14.6862L20.6603 14.5173C21.681 13.7518 22.7241 13.0972 23.932 12.6178L24.2025 12.5105L24.2428 12.2222L24.9833 6.91862C25.0253 6.68233 25.2355 6.5 25.4913 6.5H33.5083C33.7641 6.5 33.9743 6.6823 34.0163 6.91858L34.7569 12.2222L34.7971 12.5105L35.0676 12.6178C36.2755 13.0972 37.3186 13.7518 38.3393 14.5173L38.5644 14.6862L38.8256 14.5813L43.8162 12.577L43.8192 12.5758C44.0268 12.4909 44.2962 12.5783 44.4136 12.7934L44.4134 12.7935L44.4196 12.8042L48.4281 19.739L48.4306 19.7431C48.5586 19.9597 48.5031 20.2258 48.3125 20.3776C48.3119 20.3781 48.3113 20.3785 48.3107 20.379L44.0858 23.6427L43.8741 23.8063L43.8927 24.0733L44.0306 26.0427L43.8927 28.012L43.8741 28.279L44.0858 28.4426L48.3107 31.7063C48.3113 31.7068 48.3119 31.7073 48.3125 31.7077C48.5031 31.8596 48.5586 32.1257 48.4306 32.3423L48.4282 32.3464L44.4196 39.2812L44.4195 39.2811L44.4136 39.292C44.2962 39.5071 44.0268 39.5945 43.8192 39.5096L43.8162 39.5084L38.8256 37.5041L38.5644 37.3992L38.3393 37.5681C37.3186 38.3336 36.2755 38.9882 35.0676 39.4675L34.7971 39.5749L34.7569 39.8631L34.0163 45.1668C33.9743 45.4031 33.7641 45.5854 33.5083 45.5854H25.4913C25.2355 45.5854 25.0253 45.403 24.9833 45.1668L24.2428 39.8631ZM27.9966 9.50854H27.5625L27.5016 9.93836L26.8085 14.8275C24.5597 15.3685 22.5627 16.5667 21.0495 18.2055L16.5499 16.2638L16.1412 16.0874L15.9187 16.473L14.4155 19.0785L14.1918 19.4663L14.5526 19.7313L18.4904 22.6241C17.8049 24.8516 17.805 27.2341 18.4905 29.4616L14.5322 32.3743L14.1719 32.6394L14.3955 33.0269L15.8987 35.6324L16.1205 36.0169L16.5285 35.8422L21.0705 33.8983C22.5791 35.5171 24.5565 36.7145 26.7885 37.2398L27.4815 42.1467L27.5422 42.5768H27.9766H31.0231H31.4572L31.5181 42.147L32.2113 37.2572C34.4421 36.7156 36.4197 35.518 37.9291 33.8983L42.4711 35.8422L42.8792 36.0169L43.1009 35.6324L44.6041 33.0269L44.8284 32.6382L44.4662 32.3734L40.5092 29.4803C41.1947 27.2466 41.1946 24.8579 40.509 22.6242L44.447 19.7313L44.8078 19.4663L44.5841 19.0785L43.0809 16.473L42.8584 16.0874L42.4497 16.2638L37.9504 18.2054C36.41 16.5348 34.4036 15.3642 32.191 14.8454L31.4981 9.93862L31.4374 9.50854H31.003H27.9966ZM29.4998 18.5256C31.4935 18.5256 33.4055 19.3176 34.8152 20.7273C36.2249 22.137 37.0169 24.049 37.0169 26.0427C37.0169 28.0363 36.2249 29.9483 34.8152 31.3581C33.4055 32.7678 31.4935 33.5598 29.4998 33.5598C27.5062 33.5598 25.5942 32.7678 24.1844 31.3581C22.7747 29.9483 21.9827 28.0363 21.9827 26.0427C21.9827 24.049 22.7747 22.137 24.1844 20.7273C25.5942 19.3176 27.5062 18.5256 29.4998 18.5256ZM29.4998 21.5341C28.3041 21.5341 27.1573 22.0092 26.3118 22.8547C25.4663 23.7002 24.9913 24.8469 24.9913 26.0427C24.9913 27.2384 25.4663 28.3852 26.3118 29.2307C27.1573 30.0762 28.3041 30.5512 29.4998 30.5512C30.6955 30.5512 31.8423 30.0762 32.6878 29.2307C33.5333 28.3852 34.0083 27.2384 34.0083 26.0427C34.0083 24.8469 33.5333 23.7002 32.6878 22.8547C31.8423 22.0092 30.6955 21.5341 29.4998 21.5341Z" fill="#0593F5" stroke="#D5EEFF"/>
</g>
<defs>
<clipPath id="clip0_620_622">
<rect width="39" height="39" fill="white" transform="translate(9 7)"/>
</clipPath>
</defs>
</svg>
