<svg width="190" height="187" viewBox="0 0 190 187" fill="none" xmlns="http://www.w3.org/2000/svg">
<path d="M107.152 89.3203C103.942 84.2727 97.2631 82.7802 92.2298 86.0001C87.2039 89.2152 85.7249 95.9159 88.9396 100.971C92.1496 106.019 98.8284 107.511 103.862 104.291C108.89 101.064 110.362 94.3679 107.152 89.3203Z" fill="#FFDB80" stroke="#263238" stroke-width="0.5" stroke-miterlimit="10" stroke-linecap="round" stroke-linejoin="round"/>
<path d="M117.379 155.046C119.97 153.388 120.729 149.937 119.074 147.334C118.737 146.804 118.309 146.362 117.841 145.988C119.937 142.795 121.922 139.327 123.786 135.621C149.015 134.808 168.199 125.923 171.379 111.455C173.335 102.525 168.878 92.9309 159.873 84.2061C165.336 72.9164 166.238 62.3774 161.331 54.6606C159.129 51.1985 155.907 48.5685 151.897 46.7261C152.31 45.2518 152.131 43.62 151.242 42.2217C149.587 39.6195 146.147 38.854 143.556 40.5115C142.305 41.3116 141.499 42.5318 141.162 43.8626C138.886 43.5937 136.498 43.4798 134 43.5209C129.904 31.6452 123.11 23.5471 114.216 21.5681C99.8192 18.3648 83.7029 32.0409 72.3285 54.623C65.1386 54.8464 58.338 55.7149 52.1687 57.2631C46.6962 58.6389 41.957 60.4925 38.0017 62.7387C36.2648 60.452 33.0568 59.8217 30.5999 61.3935C28.0089 63.051 27.2503 66.5027 28.9051 69.1049C29.043 69.3218 29.2086 69.4998 29.3593 69.6874C27.0263 72.4423 25.4472 75.4932 24.7155 78.8226C23.4134 84.747 24.8609 91.0584 28.8363 97.3096C30.7241 100.278 33.1906 103.234 36.1949 106.13C30.7496 117.398 29.8576 127.92 34.7555 135.622C39.6629 143.339 49.5836 146.965 62.1012 146.752C63.4512 150.654 65.0662 154.165 66.9778 157.171C70.8724 163.295 75.8998 167.38 81.8659 168.707C91.5043 170.852 101.901 165.442 111.136 154.864C112.951 156.153 115.406 156.308 117.379 155.046ZM166.077 93.6814C169.786 99.5138 171.277 105.482 170.029 111.161C167.011 124.895 148.712 133.361 124.472 134.246C126.885 129.294 129.06 123.936 130.956 118.253C143.864 107.933 153.656 96.3677 159.247 85.4276C161.998 88.1068 164.294 90.8773 166.077 93.6814ZM90.1852 130.911C78.9118 128.403 68.3385 124.69 59.0618 120.083C58.8127 109.892 59.8621 98.7114 62.3908 87.2054C63.483 82.2358 64.7997 77.4382 66.3011 72.8485C70.075 69.8557 74.1139 66.9669 78.3875 64.233C82.6611 61.4991 86.9759 59.044 91.2802 56.869C96.0946 57.4395 100.992 58.2724 105.909 59.3664C117.377 61.9182 127.913 65.6874 137.022 70.2114C137.271 80.4032 136.237 91.574 133.708 103.08C132.616 108.05 131.299 112.847 129.798 117.437C126.024 120.43 121.985 123.318 117.711 126.052C113.438 128.786 109.123 131.241 104.826 133.412C100.031 132.839 95.1386 132.014 90.1852 130.911ZM102.577 134.503C88.4399 141.327 74.6089 145.042 63.0192 145.429C60.7903 138.597 59.4483 130.524 59.1119 121.661C68.3267 126.17 78.784 129.8 89.8865 132.27C94.1764 133.218 98.4117 133.949 102.577 134.503ZM57.7124 119.411C51.6343 116.293 46.1423 112.779 41.4432 108.948C40.1575 107.898 38.9626 106.842 37.8266 105.781C43.0606 95.416 52.2506 84.4035 64.3734 74.4288C63.1183 78.4506 61.993 82.6104 61.0488 86.9068C58.555 98.2536 57.506 109.286 57.7124 119.411ZM67.1144 70.4873C68.9109 65.3406 70.9322 60.4815 73.1499 55.9806C78.2057 55.8601 83.4511 56.0707 88.8101 56.6083C85.0813 58.5518 81.3508 60.7069 77.6505 63.074C73.9576 65.4364 70.4438 67.9157 67.1144 70.4873ZM93.5368 55.7727C107.659 48.9582 121.482 45.2486 133.06 44.8588C135.294 51.6982 136.648 59.7735 136.984 68.6686C127.922 64.2194 117.507 60.5412 106.21 58.0274C101.954 57.0678 97.7216 56.325 93.5368 55.7727ZM138.401 70.8969C146.301 74.9529 153.026 79.5819 158.272 84.5046C153.038 94.8694 143.848 105.882 131.725 115.857C132.98 111.835 134.106 107.675 135.05 103.379C137.536 92.0365 138.602 81.0139 138.401 70.8969ZM128.98 119.791C127.191 124.932 125.157 129.789 122.947 134.285C117.942 134.404 112.702 134.201 107.294 133.653C111.018 131.702 114.746 129.559 118.446 127.192C122.141 124.849 125.65 122.362 128.98 119.791ZM140.995 45.1478C140.981 46.1977 141.257 47.2733 141.861 48.2229C143.516 50.8251 146.956 51.5906 149.547 49.9331C150.351 49.4187 150.953 48.7181 151.385 47.9475C155.11 49.688 158.111 52.1659 160.165 55.3961C164.782 62.6568 163.958 72.5777 158.865 83.2627C153.423 78.213 146.46 73.4732 138.343 69.3561C138.043 60.238 136.694 51.9071 134.423 44.8283C136.713 44.8049 138.911 44.9026 140.995 45.1478ZM113.92 22.9145C119.581 24.1741 124.348 28.0465 128.057 33.8789C129.836 36.6755 131.365 39.9366 132.647 43.5664C120.398 44.0381 105.821 48.0615 91.0482 55.4501C85.1699 54.7712 79.3993 54.4759 73.8564 54.5714C84.8765 32.9311 100.236 19.8762 113.92 22.9145ZM26.0575 79.1212C26.7327 76.0489 28.195 73.2095 30.3528 70.6403C32.1485 71.9322 34.611 72.0821 36.584 70.8199C38.9144 69.3291 39.7437 66.4002 38.6941 63.9263C42.533 61.744 47.151 59.947 52.4954 58.6004C58.3546 57.1244 64.8069 56.2683 71.6126 56.0173C69.1998 60.9691 67.0168 66.3315 65.1262 72.0222C52.2174 82.3419 42.4287 93.8952 36.8378 104.835C28.0872 96.2635 24.2706 87.2808 26.0575 79.1212ZM35.9217 134.887C31.3139 127.641 32.1249 117.749 37.1932 107.091C38.2572 108.072 39.3849 109.055 40.5743 110.019C45.5244 114.048 51.3317 117.728 57.7577 120.981C58.0674 130.082 59.4097 138.386 61.6831 145.452C49.8632 145.576 40.539 142.147 35.9217 134.887ZM82.174 167.363C73.8044 165.501 67.395 157.893 63.4549 146.707C75.7031 146.235 90.2878 142.207 105.061 134.818C111.003 135.498 116.759 135.771 122.253 135.665C120.507 139.096 118.655 142.311 116.718 145.276C115.052 144.501 113.043 144.555 111.383 145.617C108.792 147.274 108.034 150.726 109.688 153.328C109.841 153.567 110.02 153.768 110.193 153.973C101.32 164.183 91.3685 169.403 82.174 167.363Z" fill="#263238"/>
<path d="M152.354 45.3678C152.354 48.3438 149.948 50.7552 146.981 50.7552C144.015 50.7552 141.609 48.3438 141.609 45.3678C141.609 42.3918 144.015 39.9805 146.981 39.9805C149.948 39.9805 152.354 42.3918 152.354 45.3678Z" fill="#80FFAF" stroke="#263238" stroke-width="0.5"/>
<path d="M38.8382 65.7692C38.8382 68.7452 36.4324 71.1566 33.466 71.1566C30.4996 71.1566 28.0938 68.7452 28.0938 65.7692C28.0938 62.7932 30.4996 60.3818 33.466 60.3818C36.4324 60.3818 38.8382 62.7932 38.8382 65.7692Z" fill="#80FFAF" stroke="#263238" stroke-width="0.5"/>
</svg>
