<svg width="36" height="36" viewBox="0 0 36 36" fill="none" xmlns="http://www.w3.org/2000/svg">
<rect x="5" y="5" width="27" height="27" rx="6" fill="#0D3754"/>
<path fill-rule="evenodd" clip-rule="evenodd" d="M25.1355 11.1052C25.3568 11.0121 25.5991 10.9799 25.837 11.0122C26.0749 11.0444 26.2999 11.1398 26.4884 11.2885C26.677 11.4372 26.8222 11.6337 26.9091 11.8576C26.9959 12.0814 27.0212 12.3245 26.9822 12.5614L24.951 24.8819C24.754 26.0703 23.45 26.7518 22.3601 26.1598C21.4484 25.6646 20.0943 24.9016 18.8763 24.1054C18.2673 23.7069 16.4018 22.4307 16.6311 21.5225C16.8281 20.7461 19.9627 17.8283 21.7538 16.0936C22.4568 15.412 22.1362 15.0189 21.306 15.6458C19.2444 17.2023 15.9344 19.5693 14.84 20.2356C13.8745 20.8231 13.3712 20.9234 12.7694 20.8231C11.6714 20.6404 10.6531 20.3574 9.82204 20.0126C8.69899 19.5469 8.75362 18.0029 9.82114 17.5534L25.1355 11.1052Z" fill="white"/>
</svg>
