<svg width="220" height="185" viewBox="0 0 220 185" fill="none" xmlns="http://www.w3.org/2000/svg">
<g filter="url(#filter0_dddd_243_4055)">
<path d="M116.7 11.5445L117.025 10.869L116.7 11.5445ZM204.81 142.69C205.202 142.824 205.629 142.615 205.762 142.223L207.942 135.834C208.076 135.442 207.866 135.016 207.474 134.882C207.082 134.749 206.656 134.958 206.522 135.35L204.585 141.029L198.906 139.091C198.514 138.957 198.088 139.167 197.954 139.559C197.82 139.951 198.03 140.377 198.422 140.511L204.81 142.69ZM34.7736 77.8016C20.5996 72.2553 14.3997 63.349 13.9209 53.7275C13.4385 44.0326 18.7484 33.3759 28.1193 24.3757C46.8438 6.39176 81.4368 -4.62903 116.374 12.22L117.025 10.869C81.4625 -6.28195 46.2055 4.92503 27.0802 23.2939C17.5262 32.47 11.9112 43.5209 12.4228 53.8021C12.938 64.1566 19.6507 73.4948 34.227 79.1984L34.7736 77.8016ZM116.374 12.22C140.133 23.6784 158.627 48.9788 172.956 75.1106C180.112 88.1601 186.212 101.383 191.4 113.133C196.581 124.864 200.87 135.168 204.379 142.311L205.726 141.65C202.234 134.543 197.976 124.309 192.773 112.527C187.578 100.763 181.458 87.4947 174.271 74.3893C159.916 48.2114 141.233 22.5437 117.025 10.869L116.374 12.22Z" fill="#263238"/>
</g>
<defs>
<filter id="filter0_dddd_243_4055" x="0.390625" y="0.372864" width="219.592" height="184.358" filterUnits="userSpaceOnUse" color-interpolation-filters="sRGB">
<feFlood flood-opacity="0" result="BackgroundImageFix"/>
<feColorMatrix in="SourceAlpha" type="matrix" values="0 0 0 0 0 0 0 0 0 0 0 0 0 0 0 0 0 0 127 0" result="hardAlpha"/>
<feOffset dy="2"/>
<feGaussianBlur stdDeviation="2"/>
<feColorMatrix type="matrix" values="0 0 0 0 0.301961 0 0 0 0 0 0 0 0 0 0.0901961 0 0 0 0.1 0"/>
<feBlend mode="normal" in2="BackgroundImageFix" result="effect1_dropShadow_243_4055"/>
<feColorMatrix in="SourceAlpha" type="matrix" values="0 0 0 0 0 0 0 0 0 0 0 0 0 0 0 0 0 0 127 0" result="hardAlpha"/>
<feOffset dy="8"/>
<feGaussianBlur stdDeviation="4"/>
<feColorMatrix type="matrix" values="0 0 0 0 0.301961 0 0 0 0 0 0 0 0 0 0.0901961 0 0 0 0.09 0"/>
<feBlend mode="normal" in2="effect1_dropShadow_243_4055" result="effect2_dropShadow_243_4055"/>
<feColorMatrix in="SourceAlpha" type="matrix" values="0 0 0 0 0 0 0 0 0 0 0 0 0 0 0 0 0 0 127 0" result="hardAlpha"/>
<feOffset dy="17"/>
<feGaussianBlur stdDeviation="5"/>
<feColorMatrix type="matrix" values="0 0 0 0 0.301961 0 0 0 0 0 0 0 0 0 0.0901961 0 0 0 0.05 0"/>
<feBlend mode="normal" in2="effect2_dropShadow_243_4055" result="effect3_dropShadow_243_4055"/>
<feColorMatrix in="SourceAlpha" type="matrix" values="0 0 0 0 0 0 0 0 0 0 0 0 0 0 0 0 0 0 127 0" result="hardAlpha"/>
<feOffset dy="30"/>
<feGaussianBlur stdDeviation="6"/>
<feColorMatrix type="matrix" values="0 0 0 0 0.301961 0 0 0 0 0 0 0 0 0 0.0901961 0 0 0 0.01 0"/>
<feBlend mode="normal" in2="effect3_dropShadow_243_4055" result="effect4_dropShadow_243_4055"/>
<feBlend mode="normal" in="SourceGraphic" in2="effect4_dropShadow_243_4055" result="shape"/>
</filter>
</defs>
</svg>
